<?xml version="1.0" standalone="no"?>
<!DOCTYPE svg PUBLIC "-//W3C//DTD SVG 1.1//EN" "http://www.w3.org/Graphics/SVG/1.1/DTD/svg11.dtd" >
<svg xmlns="http://www.w3.org/2000/svg" xmlns:xlink="http://www.w3.org/1999/xlink" version="1.1">
<metadata>
Created by FontForge 20170924 at Fri Sep  7 13:43:17 2018
 By www-data
Copyright 2018 Bai Jamjuree (https://github.com/cadsondemak/Bai-Jamjuree)
</metadata>
<defs>
<font id="BaiJamjuree-Light" horiz-adv-x="0" >
  <font-face 
    font-family="Bai Jamjuree Light"
    font-weight="300"
    font-stretch="normal"
    units-per-em="1000"
    panose-1="0 0 4 0 0 0 0 0 0 0"
    ascent="800"
    descent="-200"
    x-height="499"
    cap-height="700"
    bbox="-614 -483 1269 1192"
    underline-thickness="50"
    underline-position="-100"
    unicode-range="U+000D-FB02"
  />
<missing-glyph horiz-adv-x="509" 
d="M50 712h409v-712h-409v712zM392 66v580h-274v-580h274z" />
    <glyph glyph-name="fi" unicode="fi" horiz-adv-x="567" 
d="M485 0h-53v452h-246v-452h-54v452h-86v48h86v41q0 163 156 163h121v-47h-121q-54 0 -78 -27.5t-24 -88.5v-41h299v-500z" />
    <glyph glyph-name="fl" unicode="fl" horiz-adv-x="616" 
d="M590 48v-48h-33q-64 0 -92 30t-28 100v322h-251v-452h-54v452h-86v48h86v41q0 163 156 163h71v-47h-71q-54 0 -78 -27.5t-24 -88.5v-41h251v203h53v-573q0 -44 15.5 -63t51.5 -19h33z" />
    <glyph glyph-name="uni0E240E45" unicode="&#xe24;&#xe45;" horiz-adv-x="928" 
d="M801 516q41 -42 41 -112v-604h-54v604q0 48 -26 77t-69 29h-75q-45 0 -74 -31t-32 -82v-597h-54v609q0 45 -28.5 73t-74.5 28h-112q-45 0 -83.5 -33t-55.5 -87q37 -15 55.5 -45t18.5 -70v-119q17 11 40 11q40 0 64.5 -24t24.5 -64t-25 -64.5t-66 -24.5t-66.5 24.5
t-25.5 64.5v196q0 39 -19 61.5t-59 29.5q6 47 33.5 91.5t70 72.5t91.5 28h117q44 0 78 -18.5t53 -52.5q20 33 53.5 52t75.5 19h75q67 0 108 -42zM179.5 114.5q-13.5 -13.5 -13.5 -35.5t14 -36t36 -14t35.5 13.5t13.5 36.5t-13 36t-36 13t-36.5 -13.5z" />
    <glyph glyph-name="uni0E260E45" unicode="&#xe26;&#xe45;" horiz-adv-x="945" 
d="M818 516q41 -42 41 -112v-604h-54v604q0 48 -26 77t-69 29h-75q-46 0 -75 -31t-31 -82v-597h-54v609q0 45 -28.5 73t-75.5 28h-96q-45 0 -82.5 -33t-54.5 -87q39 -15 61.5 -45.5t22.5 -69.5v-197q0 -39 -25 -63.5t-65 -24.5t-65 24.5t-25 63.5q0 40 24.5 64t64.5 24
q22 0 37 -9v118q0 36 -23.5 59.5t-64.5 31.5q6 47 33 91.5t69.5 72.5t90.5 28h101q44 0 78 -19t53 -53q20 34 53.5 53t76.5 19h75q67 0 108 -42zM167.5 42.5q13.5 13.5 13.5 35.5t-13.5 35.5t-35.5 13.5t-35.5 -13.5t-13.5 -35.5t13.5 -35.5t35.5 -13.5t35.5 13.5z" />
    <glyph glyph-name=".notdef" horiz-adv-x="509" 
d="M50 712h409v-712h-409v712zM392 66v580h-274v-580h274z" />
    <glyph glyph-name="NULL" 
 />
    <glyph glyph-name="NULL" 
 />
    <glyph glyph-name="nonmarkingreturn" unicode="&#xd;" horiz-adv-x="253" 
 />
    <glyph glyph-name="space" unicode=" " horiz-adv-x="253" 
 />
    <glyph glyph-name="A" unicode="A" horiz-adv-x="638" 
d="M477 204h-315l-77 -204h-57l267 700h26q24 0 36 -31l253 -669h-57zM179 251h281l-140 375h-1z" />
    <glyph glyph-name="Aacute" unicode="&#xc1;" horiz-adv-x="638" 
d="M477 204h-315l-77 -204h-57l267 700h26q24 0 36 -31l253 -669h-57zM179 251h281l-140 375h-1zM376 930h62l-94 -144h-52z" />
    <glyph glyph-name="Abreve" unicode="&#x102;" horiz-adv-x="638" 
d="M477 204h-315l-77 -204h-57l267 700h26q24 0 36 -31l253 -669h-57zM179 251h281l-140 375h-1zM219.5 812q-35.5 34 -35.5 89v6h45v-6q0 -39 23 -61.5t62 -22.5h12q39 0 62 22.5t23 61.5v6h45v-6q0 -55 -35.5 -89t-94.5 -34h-12q-59 0 -94.5 34z" />
    <glyph glyph-name="uni1EAE" unicode="&#x1eae;" horiz-adv-x="638" 
d="M477 204h-315l-77 -204h-57l267 700h26q24 0 36 -31l253 -669h-57zM179 251h281l-140 375h-1zM357 1064h55l-71 -107h-45zM219.5 812q-35.5 34 -35.5 89v6h45v-6q0 -39 23 -61.5t62 -22.5h12q39 0 62 22.5t23 61.5v6h45v-6q0 -55 -35.5 -89t-94.5 -34h-12q-59 0 -94.5 34
z" />
    <glyph glyph-name="uni1EB6" unicode="&#x1eb6;" horiz-adv-x="638" 
d="M477 204h-315l-77 -204h-57l267 700h26q24 0 36 -31l253 -669h-57zM179 251h281l-140 375h-1zM287 -159q-13 13 -13 33t13 32.5t33 12.5t33 -12.5t13 -32.5t-13 -33t-33 -13t-33 13zM219.5 812q-35.5 34 -35.5 89v6h45v-6q0 -39 23 -61.5t62 -22.5h12q39 0 62 22.5
t23 61.5v6h45v-6q0 -55 -35.5 -89t-94.5 -34h-12q-59 0 -94.5 34z" />
    <glyph glyph-name="uni1EB0" unicode="&#x1eb0;" horiz-adv-x="638" 
d="M477 204h-315l-77 -204h-57l267 700h26q24 0 36 -31l253 -669h-57zM179 251h281l-140 375h-1zM228 1064h55l61 -107h-45zM219.5 812q-35.5 34 -35.5 89v6h45v-6q0 -39 23 -61.5t62 -22.5h12q39 0 62 22.5t23 61.5v6h45v-6q0 -55 -35.5 -89t-94.5 -34h-12q-59 0 -94.5 34z
" />
    <glyph glyph-name="uni1EB2" unicode="&#x1eb2;" horiz-adv-x="638" 
d="M477 204h-315l-77 -204h-57l267 700h26q24 0 36 -31l253 -669h-57zM179 251h281l-140 375h-1zM298 952q0 15 9.5 25t27.5 21q14 9 21.5 16t7.5 16v9q0 14 -8.5 21.5t-24.5 7.5h-16q-37 0 -37 -35h-38q0 70 75 70h16q35 0 54 -16.5t19 -47.5v-9q0 -19 -10 -30t-29 -24
q-12 -8 -18 -13t-6 -12v-9h-43v10zM219.5 812q-35.5 34 -35.5 89v6h45v-6q0 -39 23 -61.5t62 -22.5h12q39 0 62 22.5t23 61.5v6h45v-6q0 -55 -35.5 -89t-94.5 -34h-12q-59 0 -94.5 34z" />
    <glyph glyph-name="uni1EB4" unicode="&#x1eb4;" horiz-adv-x="638" 
d="M477 204h-315l-77 -204h-57l267 700h26q24 0 36 -31l253 -669h-57zM179 251h281l-140 375h-1zM339 961q-13 8 -29 24q-12 12 -20 17.5t-18 5.5h-10q-13 0 -21.5 -11.5t-10.5 -29.5h-38q1 34 20.5 55t49.5 21h10q21 0 35 -8.5t30 -24.5q11 -11 19 -16.5t17 -5.5h9
q12 0 20.5 11.5t9.5 30.5h39q-2 -35 -20.5 -56t-48.5 -21h-9q-21 0 -34 8zM219.5 812q-35.5 34 -35.5 89v6h45v-6q0 -39 23 -61.5t62 -22.5h12q39 0 62 22.5t23 61.5v6h45v-6q0 -55 -35.5 -89t-94.5 -34h-12q-59 0 -94.5 34z" />
    <glyph glyph-name="uni01CD" unicode="&#x1cd;" horiz-adv-x="638" 
d="M477 204h-315l-77 -204h-57l267 700h26q24 0 36 -31l253 -669h-57zM179 251h281l-140 375h-1zM181 938h53l86 -114l86 114h53l-117 -152h-45z" />
    <glyph glyph-name="Acircumflex" unicode="&#xc2;" horiz-adv-x="638" 
d="M477 204h-315l-77 -204h-57l267 700h26q24 0 36 -31l253 -669h-57zM179 251h281l-140 375h-1zM297 938h45l117 -152h-53l-86 114l-86 -114h-53z" />
    <glyph glyph-name="uni1EA4" unicode="&#x1ea4;" horiz-adv-x="638" 
d="M477 204h-315l-77 -204h-57l267 700h26q24 0 36 -31l253 -669h-57zM179 251h281l-140 375h-1zM482 1040h55l-71 -107h-45zM297 938h45l117 -152h-53l-86 114l-86 -114h-53z" />
    <glyph glyph-name="uni1EAC" unicode="&#x1eac;" horiz-adv-x="638" 
d="M477 204h-315l-77 -204h-57l267 700h26q24 0 36 -31l253 -669h-57zM179 251h281l-140 375h-1zM287 -159q-13 13 -13 33t13 32.5t33 12.5t33 -12.5t13 -32.5t-13 -33t-33 -13t-33 13zM297 938h45l117 -152h-53l-86 114l-86 -114h-53z" />
    <glyph glyph-name="uni1EA6" unicode="&#x1ea6;" horiz-adv-x="638" 
d="M477 204h-315l-77 -204h-57l267 700h26q24 0 36 -31l253 -669h-57zM179 251h281l-140 375h-1zM374 1040h54l61 -107h-45zM297 938h45l117 -152h-53l-86 114l-86 -114h-53z" />
    <glyph glyph-name="uni1EA8" unicode="&#x1ea8;" horiz-adv-x="638" 
d="M477 204h-315l-77 -204h-57l267 700h26q24 0 36 -31l253 -669h-57zM179 251h281l-140 375h-1zM427 933q0 15 9 24.5t27 20.5q15 10 22 17t7 17v8q0 28 -32 28h-16q-37 0 -37 -34h-39q0 70 76 70h16q35 0 53.5 -16.5t18.5 -47.5v-8q0 -19 -10.5 -30.5t-29.5 -24.5
q-12 -8 -17.5 -13t-5.5 -12v-9h-42v10zM297 938h45l117 -152h-53l-86 114l-86 -114h-53z" />
    <glyph glyph-name="uni1EAA" unicode="&#x1eaa;" horiz-adv-x="638" 
d="M477 204h-315l-77 -204h-57l267 700h26q24 0 36 -31l253 -669h-57zM179 251h281l-140 375h-1zM339 988.5q-13 8.5 -29 23.5q-12 12 -20 17.5t-18 5.5h-10q-13 0 -21.5 -11.5t-10.5 -29.5h-38q1 34 20.5 55t49.5 21h10q21 0 35 -8.5t30 -24.5q11 -12 19 -17t17 -5h9
q12 0 20.5 11.5t9.5 30.5h39q-2 -35 -20.5 -56t-48.5 -21h-9q-21 0 -34 8.5zM297 938h45l117 -152h-53l-86 114l-86 -114h-53z" />
    <glyph glyph-name="Adieresis" unicode="&#xc4;" horiz-adv-x="638" 
d="M477 204h-315l-77 -204h-57l267 700h26q24 0 36 -31l253 -669h-57zM179 251h281l-140 375h-1zM196.5 797q-11.5 11 -11.5 30q0 18 11.5 29.5t29.5 11.5q19 0 30 -11.5t11 -29.5q0 -19 -11 -30t-30 -11q-18 0 -29.5 11zM383.5 797q-11.5 11 -11.5 30q0 18 11.5 29.5
t29.5 11.5q19 0 30 -11.5t11 -29.5q0 -19 -11 -30t-30 -11q-18 0 -29.5 11z" />
    <glyph glyph-name="uni1EA0" unicode="&#x1ea0;" horiz-adv-x="638" 
d="M477 204h-315l-77 -204h-57l267 700h26q24 0 36 -31l253 -669h-57zM179 251h281l-140 375h-1zM287 -159q-13 13 -13 33t13 32.5t33 12.5t33 -12.5t13 -32.5t-13 -33t-33 -13t-33 13z" />
    <glyph glyph-name="Agrave" unicode="&#xc0;" horiz-adv-x="638" 
d="M477 204h-315l-77 -204h-57l267 700h26q24 0 36 -31l253 -669h-57zM179 251h281l-140 375h-1zM208 930h62l84 -144h-52z" />
    <glyph glyph-name="uni1EA2" unicode="&#x1ea2;" horiz-adv-x="638" 
d="M477 204h-315l-77 -204h-57l267 700h26q24 0 36 -31l253 -669h-57zM179 251h281l-140 375h-1zM293 789q0 19 11.5 31t32.5 25q19 13 27 20.5t8 19.5v11q0 35 -40 35h-22q-44 0 -44 -44h-45q0 41 23 63t66 22h22q41 0 63.5 -19.5t22.5 -56.5v-11q0 -23 -12.5 -37
t-34.5 -29q-15 -9 -22 -16t-7 -15v-14h-49v15z" />
    <glyph glyph-name="Amacron" unicode="&#x100;" horiz-adv-x="638" 
d="M477 204h-315l-77 -204h-57l267 700h26q24 0 36 -31l253 -669h-57zM179 251h281l-140 375h-1zM202 837h237v-41h-237v41z" />
    <glyph glyph-name="Aogonek" unicode="&#x104;" horiz-adv-x="638" 
d="M477 204h-315l-77 -204h-57l267 700h26q24 0 36 -31l253 -669h-57zM179 251h281l-140 375h-1zM521.5 -178.5q-25.5 24.5 -25.5 65.5v11q0 31 17.5 59t45.5 43h52q-32 -17 -49.5 -43t-17.5 -58v-10q0 -23 13 -36.5t36 -13.5h10q28 0 53 18v-43q-11 -8 -26 -12.5t-29 -4.5
h-10q-44 0 -69.5 24.5z" />
    <glyph glyph-name="Aring" unicode="&#xc5;" horiz-adv-x="638" 
d="M477 204h-315l-77 -204h-57l267 700h26q24 0 36 -31l253 -669h-57zM179 251h281l-140 375h-1zM247 791q-28 27 -28 71t28 71t73 27t73 -27t28 -71t-28 -71t-73 -27t-73 27zM363.5 818.5q16.5 16.5 16.5 43.5t-16.5 43t-43.5 16t-43.5 -16t-16.5 -43t16.5 -43.5
t43.5 -16.5t43.5 16.5z" />
    <glyph glyph-name="Aringacute" unicode="&#x1fa;" horiz-adv-x="638" 
d="M477 204h-315l-77 -204h-57l267 700h26q24 0 36 -31l253 -669h-57zM179 251h281l-140 375h-1zM247 791q-28 27 -28 71t28 71t73 27t73 -27t28 -71t-28 -71t-73 -27t-73 27zM363.5 818.5q16.5 16.5 16.5 43.5t-16.5 43t-43.5 16t-43.5 -16t-16.5 -43t16.5 -43.5
t43.5 -16.5t43.5 16.5zM376 1157h62l-94 -144h-52z" />
    <glyph glyph-name="Atilde" unicode="&#xc3;" horiz-adv-x="638" 
d="M477 204h-315l-77 -204h-57l267 700h26q24 0 36 -31l253 -669h-57zM179 251h281l-140 375h-1zM341.5 787.5q-15.5 9.5 -33.5 27.5q-15 14 -24.5 20.5t-21.5 6.5h-11q-16 0 -27 -13t-12 -35h-44q1 40 24.5 64t58.5 24h11q25 0 41 -10t35 -29q14 -13 22.5 -19t19.5 -6h12
q14 0 24.5 13.5t11.5 35.5h45q-1 -40 -23.5 -64.5t-57.5 -24.5h-12q-23 0 -38.5 9.5z" />
    <glyph glyph-name="AE" unicode="&#xc6;" horiz-adv-x="919" 
d="M400 700h463v-48h-385v-270h345v-48h-345v-285h385v-49h-390q-24 0 -37 14t-13 39v150h-239l-112 -203h-58zM423 250v385h-1l-212 -385h213z" />
    <glyph glyph-name="AEacute" unicode="&#x1fc;" horiz-adv-x="919" 
d="M400 700h463v-48h-385v-270h345v-48h-345v-285h385v-49h-390q-24 0 -37 14t-13 39v150h-239l-112 -203h-58zM423 250v385h-1l-212 -385h213zM603 930h62l-94 -144h-52z" />
    <glyph glyph-name="B" unicode="B" horiz-adv-x="655" 
d="M100 14q-14 14 -14 37v649h291q83 0 133.5 -41t50.5 -108v-57q0 -41 -18 -75.5t-48 -53.5v-1q50 -12 80 -49.5t30 -87.5v-54q0 -78 -51 -125.5t-136 -47.5h-281q-23 0 -37 14zM397 377q49 0 79 32t30 85v57q0 44 -35.5 72t-93.5 28h-236v-274h256zM413 50q62 0 99.5 33.5
t37.5 89.5v54q0 46 -32.5 74.5t-85.5 28.5h-291v-280h272z" />
    <glyph glyph-name="C" unicode="C" horiz-adv-x="653" 
d="M169.5 23q-49.5 31 -76.5 87.5t-27 130.5v219q0 74 27.5 130t78 87t115.5 31h106q62 0 110 -27t74 -75.5t26 -111.5h-53q0 74 -43 119.5t-114 45.5h-106q-74 0 -120 -55t-46 -144v-219q0 -90 44.5 -144.5t117.5 -54.5h108q73 0 117 49.5t44 131.5h53q0 -69 -26.5 -121.5
t-75 -81t-112.5 -28.5h-108q-64 0 -113.5 31z" />
    <glyph glyph-name="Cacute" unicode="&#x106;" horiz-adv-x="653" 
d="M169.5 23q-49.5 31 -76.5 87.5t-27 130.5v219q0 74 27.5 130t78 87t115.5 31h106q62 0 110 -27t74 -75.5t26 -111.5h-53q0 74 -43 119.5t-114 45.5h-106q-74 0 -120 -55t-46 -144v-219q0 -90 44.5 -144.5t117.5 -54.5h108q73 0 117 49.5t44 131.5h53q0 -69 -26.5 -121.5
t-75 -81t-112.5 -28.5h-108q-64 0 -113.5 31zM396 930h62l-94 -144h-52z" />
    <glyph glyph-name="Ccaron" unicode="&#x10c;" horiz-adv-x="653" 
d="M169.5 23q-49.5 31 -76.5 87.5t-27 130.5v219q0 74 27.5 130t78 87t115.5 31h106q62 0 110 -27t74 -75.5t26 -111.5h-53q0 74 -43 119.5t-114 45.5h-106q-74 0 -120 -55t-46 -144v-219q0 -90 44.5 -144.5t117.5 -54.5h108q73 0 117 49.5t44 131.5h53q0 -69 -26.5 -121.5
t-75 -81t-112.5 -28.5h-108q-64 0 -113.5 31zM201 938h53l86 -114l86 114h53l-117 -152h-45z" />
    <glyph glyph-name="Ccedilla" unicode="&#xc7;" horiz-adv-x="653" 
d="M357 -8l-20 -45h6q39 0 61.5 -19.5t22.5 -53.5v-10q0 -35 -26 -55t-71 -20h-48v39h47q25 0 39.5 9.5t14.5 26.5v10q0 17 -12.5 27t-34.5 10h-43v37l19 44h-29q-64 0 -113.5 31t-76.5 87.5t-27 130.5v219q0 74 27.5 130t78 87t115.5 31h106q62 0 110 -27t74 -75.5
t26 -111.5h-53q0 74 -43 119.5t-114 45.5h-106q-74 0 -120 -55t-46 -144v-219q0 -90 44.5 -144.5t117.5 -54.5h108q73 0 117 49.5t44 131.5h53q0 -69 -26.5 -121.5t-75 -81t-112.5 -28.5h-34z" />
    <glyph glyph-name="Ccircumflex" unicode="&#x108;" horiz-adv-x="653" 
d="M169.5 23q-49.5 31 -76.5 87.5t-27 130.5v219q0 74 27.5 130t78 87t115.5 31h106q62 0 110 -27t74 -75.5t26 -111.5h-53q0 74 -43 119.5t-114 45.5h-106q-74 0 -120 -55t-46 -144v-219q0 -90 44.5 -144.5t117.5 -54.5h108q73 0 117 49.5t44 131.5h53q0 -69 -26.5 -121.5
t-75 -81t-112.5 -28.5h-108q-64 0 -113.5 31zM317 938h45l117 -152h-53l-86 114l-86 -114h-53z" />
    <glyph glyph-name="Cdotaccent" unicode="&#x10a;" horiz-adv-x="653" 
d="M169.5 23q-49.5 31 -76.5 87.5t-27 130.5v219q0 74 27.5 130t78 87t115.5 31h106q62 0 110 -27t74 -75.5t26 -111.5h-53q0 74 -43 119.5t-114 45.5h-106q-74 0 -120 -55t-46 -144v-219q0 -90 44.5 -144.5t117.5 -54.5h108q73 0 117 49.5t44 131.5h53q0 -69 -26.5 -121.5
t-75 -81t-112.5 -28.5h-108q-64 0 -113.5 31zM307 798.5q-13 12.5 -13 32.5t13 33t33 13t33 -13t13 -33t-13 -32.5t-33 -12.5t-33 12.5z" />
    <glyph glyph-name="D" unicode="D" horiz-adv-x="667" 
d="M99.5 13.5q-13.5 13.5 -13.5 37.5v649h277q72 0 127 -28t85 -79t30 -117v-231q0 -121 -60.5 -183t-177.5 -62h-230q-24 0 -37.5 13.5zM366 50q91 0 137.5 49.5t46.5 145.5v231q0 79 -51.5 127t-136.5 48h-221v-601h225z" />
    <glyph glyph-name="Eth" unicode="&#xd0;" horiz-adv-x="721" 
d="M544 672q55 -28 85 -79t30 -117v-231q0 -121 -60.5 -183t-177.5 -62h-231q-24 0 -37 13.5t-13 37.5v270h-108v49h108v330h277q72 0 127 -28zM604 476q0 79 -52 127t-136 48h-221v-281h214v-49h-214v-271h225q91 0 137.5 49.5t46.5 145.5v231z" />
    <glyph glyph-name="Dcaron" unicode="&#x10e;" horiz-adv-x="667" 
d="M99.5 13.5q-13.5 13.5 -13.5 37.5v649h277q72 0 127 -28t85 -79t30 -117v-231q0 -121 -60.5 -183t-177.5 -62h-230q-24 0 -37.5 13.5zM366 50q91 0 137.5 49.5t46.5 145.5v231q0 79 -51.5 127t-136.5 48h-221v-601h225zM196 938h53l86 -114l86 114h53l-117 -152h-45z" />
    <glyph glyph-name="Dcroat" unicode="&#x110;" horiz-adv-x="721" 
d="M544 672q55 -28 85 -79t30 -117v-231q0 -121 -60.5 -183t-177.5 -62h-231q-24 0 -37 13.5t-13 37.5v270h-108v49h108v330h277q72 0 127 -28zM604 476q0 79 -52 127t-136 48h-221v-281h214v-49h-214v-271h225q91 0 137.5 49.5t46.5 145.5v231z" />
    <glyph glyph-name="uni1E0C" unicode="&#x1e0c;" horiz-adv-x="667" 
d="M99.5 13.5q-13.5 13.5 -13.5 37.5v649h277q72 0 127 -28t85 -79t30 -117v-231q0 -121 -60.5 -183t-177.5 -62h-230q-24 0 -37.5 13.5zM366 50q91 0 137.5 49.5t46.5 145.5v231q0 79 -51.5 127t-136.5 48h-221v-601h225zM307 -159q-13 13 -13 33t13 32.5t33 12.5t33 -12.5
t13 -32.5t-13 -33t-33 -13t-33 13z" />
    <glyph glyph-name="uni1E0E" unicode="&#x1e0e;" horiz-adv-x="667" 
d="M99.5 13.5q-13.5 13.5 -13.5 37.5v649h277q72 0 127 -28t85 -79t30 -117v-231q0 -121 -60.5 -183t-177.5 -62h-230q-24 0 -37.5 13.5zM366 50q91 0 137.5 49.5t46.5 145.5v231q0 79 -51.5 127t-136.5 48h-221v-601h225zM222 -82h237v-41h-237v41z" />
    <glyph glyph-name="E" unicode="E" horiz-adv-x="593" 
d="M99.5 14q-13.5 14 -13.5 39v647h451v-48h-396v-270h366v-48h-366v-285h396v-49h-400q-24 0 -37.5 14z" />
    <glyph glyph-name="Eacute" unicode="&#xc9;" horiz-adv-x="593" 
d="M99.5 14q-13.5 14 -13.5 39v647h451v-48h-396v-270h366v-48h-366v-285h396v-49h-400q-24 0 -37.5 14zM370 930h62l-94 -144h-52z" />
    <glyph glyph-name="Ebreve" unicode="&#x114;" horiz-adv-x="593" 
d="M99.5 14q-13.5 14 -13.5 39v647h451v-48h-396v-270h366v-48h-366v-285h396v-49h-400q-24 0 -37.5 14zM213.5 812q-35.5 34 -35.5 89v6h45v-6q0 -39 23 -61.5t62 -22.5h12q39 0 62 22.5t23 61.5v6h45v-6q0 -55 -35.5 -89t-94.5 -34h-12q-59 0 -94.5 34z" />
    <glyph glyph-name="Ecaron" unicode="&#x11a;" horiz-adv-x="593" 
d="M99.5 14q-13.5 14 -13.5 39v647h451v-48h-396v-270h366v-48h-366v-285h396v-49h-400q-24 0 -37.5 14zM175 938h53l86 -114l86 114h53l-117 -152h-45z" />
    <glyph glyph-name="Ecircumflex" unicode="&#xca;" horiz-adv-x="593" 
d="M99.5 14q-13.5 14 -13.5 39v647h451v-48h-396v-270h366v-48h-366v-285h396v-49h-400q-24 0 -37.5 14zM291 938h45l117 -152h-53l-86 114l-86 -114h-53z" />
    <glyph glyph-name="uni1EBE" unicode="&#x1ebe;" horiz-adv-x="593" 
d="M99.5 14q-13.5 14 -13.5 39v647h451v-48h-396v-270h366v-48h-366v-285h396v-49h-400q-24 0 -37.5 14zM476 1040h55l-71 -107h-45zM291 938h45l117 -152h-53l-86 114l-86 -114h-53z" />
    <glyph glyph-name="uni1EC6" unicode="&#x1ec6;" horiz-adv-x="593" 
d="M99.5 14q-13.5 14 -13.5 39v647h451v-48h-396v-270h366v-48h-366v-285h396v-49h-400q-24 0 -37.5 14zM283 -159q-13 13 -13 33t13 32.5t33 12.5t33 -12.5t13 -32.5t-13 -33t-33 -13t-33 13zM291 938h45l117 -152h-53l-86 114l-86 -114h-53z" />
    <glyph glyph-name="uni1EC0" unicode="&#x1ec0;" horiz-adv-x="593" 
d="M99.5 14q-13.5 14 -13.5 39v647h451v-48h-396v-270h366v-48h-366v-285h396v-49h-400q-24 0 -37.5 14zM368 1040h54l61 -107h-45zM291 938h45l117 -152h-53l-86 114l-86 -114h-53z" />
    <glyph glyph-name="uni1EC2" unicode="&#x1ec2;" horiz-adv-x="593" 
d="M99.5 14q-13.5 14 -13.5 39v647h451v-48h-396v-270h366v-48h-366v-285h396v-49h-400q-24 0 -37.5 14zM421 933q0 15 9 24.5t27 20.5q15 10 22 17t7 17v8q0 28 -32 28h-16q-37 0 -37 -34h-39q0 70 76 70h16q35 0 53.5 -16.5t18.5 -47.5v-8q0 -19 -10.5 -30.5t-29.5 -24.5
q-12 -8 -17.5 -13t-5.5 -12v-9h-42v10zM291 938h45l117 -152h-53l-86 114l-86 -114h-53z" />
    <glyph glyph-name="uni1EC4" unicode="&#x1ec4;" horiz-adv-x="593" 
d="M99.5 14q-13.5 14 -13.5 39v647h451v-48h-396v-270h366v-48h-366v-285h396v-49h-400q-24 0 -37.5 14zM333 988.5q-13 8.5 -29 23.5q-12 12 -20 17.5t-18 5.5h-10q-13 0 -21.5 -11.5t-10.5 -29.5h-38q1 34 20.5 55t49.5 21h10q21 0 35 -8.5t30 -24.5q11 -12 19 -17t17 -5
h9q12 0 20.5 11.5t9.5 30.5h39q-2 -35 -20.5 -56t-48.5 -21h-9q-21 0 -34 8.5zM291 938h45l117 -152h-53l-86 114l-86 -114h-53z" />
    <glyph glyph-name="Edieresis" unicode="&#xcb;" horiz-adv-x="593" 
d="M99.5 14q-13.5 14 -13.5 39v647h451v-48h-396v-270h366v-48h-366v-285h396v-49h-400q-24 0 -37.5 14zM190.5 797q-11.5 11 -11.5 30q0 18 11.5 29.5t29.5 11.5q19 0 30 -11.5t11 -29.5q0 -19 -11 -30t-30 -11q-18 0 -29.5 11zM377.5 797q-11.5 11 -11.5 30
q0 18 11.5 29.5t29.5 11.5q19 0 30 -11.5t11 -29.5q0 -19 -11 -30t-30 -11q-18 0 -29.5 11z" />
    <glyph glyph-name="Edotaccent" unicode="&#x116;" horiz-adv-x="593" 
d="M99.5 14q-13.5 14 -13.5 39v647h451v-48h-396v-270h366v-48h-366v-285h396v-49h-400q-24 0 -37.5 14zM281 798.5q-13 12.5 -13 32.5t13 33t33 13t33 -13t13 -33t-13 -32.5t-33 -12.5t-33 12.5z" />
    <glyph glyph-name="uni1EB8" unicode="&#x1eb8;" horiz-adv-x="593" 
d="M99.5 14q-13.5 14 -13.5 39v647h451v-48h-396v-270h366v-48h-366v-285h396v-49h-400q-24 0 -37.5 14zM283 -159q-13 13 -13 33t13 32.5t33 12.5t33 -12.5t13 -32.5t-13 -33t-33 -13t-33 13z" />
    <glyph glyph-name="Egrave" unicode="&#xc8;" horiz-adv-x="593" 
d="M99.5 14q-13.5 14 -13.5 39v647h451v-48h-396v-270h366v-48h-366v-285h396v-49h-400q-24 0 -37.5 14zM202 930h62l84 -144h-52z" />
    <glyph glyph-name="uni1EBA" unicode="&#x1eba;" horiz-adv-x="593" 
d="M99.5 14q-13.5 14 -13.5 39v647h451v-48h-396v-270h366v-48h-366v-285h396v-49h-400q-24 0 -37.5 14zM287 789q0 19 11.5 31t32.5 25q19 13 27 20.5t8 19.5v11q0 35 -40 35h-22q-44 0 -44 -44h-45q0 41 23 63t66 22h22q41 0 63.5 -19.5t22.5 -56.5v-11q0 -23 -12.5 -37
t-34.5 -29q-15 -9 -22 -16t-7 -15v-14h-49v15z" />
    <glyph glyph-name="Emacron" unicode="&#x112;" horiz-adv-x="593" 
d="M99.5 14q-13.5 14 -13.5 39v647h451v-48h-396v-270h366v-48h-366v-285h396v-49h-400q-24 0 -37.5 14zM196 837h237v-41h-237v41z" />
    <glyph glyph-name="Eogonek" unicode="&#x118;" horiz-adv-x="593" 
d="M99.5 14q-13.5 14 -13.5 39v647h451v-48h-396v-270h366v-48h-366v-285h396v-49h-400q-24 0 -37.5 14zM448.5 -178.5q-25.5 24.5 -25.5 65.5v11q0 31 17.5 59t45.5 43h52q-32 -17 -49.5 -43t-17.5 -58v-10q0 -23 13 -36.5t36 -13.5h10q28 0 53 18v-43q-11 -8 -26 -12.5
t-29 -4.5h-10q-44 0 -69.5 24.5z" />
    <glyph glyph-name="uni1EBC" unicode="&#x1ebc;" horiz-adv-x="593" 
d="M99.5 14q-13.5 14 -13.5 39v647h451v-48h-396v-270h366v-48h-366v-285h396v-49h-400q-24 0 -37.5 14zM335.5 787.5q-15.5 9.5 -33.5 27.5q-15 14 -24.5 20.5t-21.5 6.5h-11q-16 0 -27 -13t-12 -35h-44q1 40 24.5 64t58.5 24h11q25 0 41 -10t35 -29q14 -13 22.5 -19
t19.5 -6h12q14 0 24.5 13.5t11.5 35.5h45q-1 -40 -23.5 -64.5t-57.5 -24.5h-12q-23 0 -38.5 9.5z" />
    <glyph glyph-name="F" unicode="F" horiz-adv-x="569" 
d="M86 700h441v-49h-386v-277h349v-49h-349v-325h-55v700z" />
    <glyph glyph-name="G" unicode="G" horiz-adv-x="677" 
d="M170.5 23q-49.5 31 -77 87.5t-27.5 130.5v219q0 74 28 130t79 87t117 31h106q64 0 112.5 -27t75 -75.5t26.5 -111.5h-53q0 74 -44 119.5t-117 45.5h-106q-76 0 -122.5 -55t-46.5 -144v-219q0 -90 45.5 -144.5t119.5 -54.5h108q75 0 121.5 50.5t46.5 132.5v80h-199v49h252
v-129q0 -69 -27.5 -122t-77.5 -82t-116 -29h-108q-66 0 -115.5 31z" />
    <glyph glyph-name="Gbreve" unicode="&#x11e;" horiz-adv-x="677" 
d="M170.5 23q-49.5 31 -77 87.5t-27.5 130.5v219q0 74 28 130t79 87t117 31h106q64 0 112.5 -27t75 -75.5t26.5 -111.5h-53q0 74 -44 119.5t-117 45.5h-106q-76 0 -122.5 -55t-46.5 -144v-219q0 -90 45.5 -144.5t119.5 -54.5h108q75 0 121.5 50.5t46.5 132.5v80h-199v49h252
v-129q0 -69 -27.5 -122t-77.5 -82t-116 -29h-108q-66 0 -115.5 31zM242.5 812q-35.5 34 -35.5 89v6h45v-6q0 -39 23 -61.5t62 -22.5h12q39 0 62 22.5t23 61.5v6h45v-6q0 -55 -35.5 -89t-94.5 -34h-12q-59 0 -94.5 34z" />
    <glyph glyph-name="Gcaron" unicode="&#x1e6;" horiz-adv-x="677" 
d="M170.5 23q-49.5 31 -77 87.5t-27.5 130.5v219q0 74 28 130t79 87t117 31h106q64 0 112.5 -27t75 -75.5t26.5 -111.5h-53q0 74 -44 119.5t-117 45.5h-106q-76 0 -122.5 -55t-46.5 -144v-219q0 -90 45.5 -144.5t119.5 -54.5h108q75 0 121.5 50.5t46.5 132.5v80h-199v49h252
v-129q0 -69 -27.5 -122t-77.5 -82t-116 -29h-108q-66 0 -115.5 31zM204 938h53l86 -114l86 114h53l-117 -152h-45z" />
    <glyph glyph-name="Gcircumflex" unicode="&#x11c;" horiz-adv-x="677" 
d="M170.5 23q-49.5 31 -77 87.5t-27.5 130.5v219q0 74 28 130t79 87t117 31h106q64 0 112.5 -27t75 -75.5t26.5 -111.5h-53q0 74 -44 119.5t-117 45.5h-106q-76 0 -122.5 -55t-46.5 -144v-219q0 -90 45.5 -144.5t119.5 -54.5h108q75 0 121.5 50.5t46.5 132.5v80h-199v49h252
v-129q0 -69 -27.5 -122t-77.5 -82t-116 -29h-108q-66 0 -115.5 31zM320 938h45l117 -152h-53l-86 114l-86 -114h-53z" />
    <glyph glyph-name="uni0122" unicode="&#x122;" horiz-adv-x="677" 
d="M170.5 23q-49.5 31 -77 87.5t-27.5 130.5v219q0 74 28 130t79 87t117 31h106q64 0 112.5 -27t75 -75.5t26.5 -111.5h-53q0 74 -44 119.5t-117 45.5h-106q-76 0 -122.5 -55t-46.5 -144v-219q0 -90 45.5 -144.5t119.5 -54.5h108q75 0 121.5 50.5t46.5 132.5v80h-199v49h252
v-129q0 -69 -27.5 -122t-77.5 -82t-116 -29h-108q-66 0 -115.5 31zM246 -222l12 8q33 22 47 46.5t14 60.5v29h54v-29q0 -52 -19.5 -87.5t-62.5 -61.5l-14 -9z" />
    <glyph glyph-name="Gdotaccent" unicode="&#x120;" horiz-adv-x="677" 
d="M170.5 23q-49.5 31 -77 87.5t-27.5 130.5v219q0 74 28 130t79 87t117 31h106q64 0 112.5 -27t75 -75.5t26.5 -111.5h-53q0 74 -44 119.5t-117 45.5h-106q-76 0 -122.5 -55t-46.5 -144v-219q0 -90 45.5 -144.5t119.5 -54.5h108q75 0 121.5 50.5t46.5 132.5v80h-199v49h252
v-129q0 -69 -27.5 -122t-77.5 -82t-116 -29h-108q-66 0 -115.5 31zM310 798.5q-13 12.5 -13 32.5t13 33t33 13t33 -13t13 -33t-13 -32.5t-33 -12.5t-33 12.5z" />
    <glyph glyph-name="uni1E20" unicode="&#x1e20;" horiz-adv-x="677" 
d="M170.5 23q-49.5 31 -77 87.5t-27.5 130.5v219q0 74 28 130t79 87t117 31h106q64 0 112.5 -27t75 -75.5t26.5 -111.5h-53q0 74 -44 119.5t-117 45.5h-106q-76 0 -122.5 -55t-46.5 -144v-219q0 -90 45.5 -144.5t119.5 -54.5h108q75 0 121.5 50.5t46.5 132.5v80h-199v49h252
v-129q0 -69 -27.5 -122t-77.5 -82t-116 -29h-108q-66 0 -115.5 31zM225 837h237v-41h-237v41z" />
    <glyph glyph-name="H" unicode="H" horiz-adv-x="686" 
d="M86 700h55v-322h404v322h55v-700h-55v329h-404v-329h-55v700z" />
    <glyph glyph-name="Hbar" unicode="&#x126;" horiz-adv-x="768" 
d="M736 521h-95v-521h-55v329h-404v-329h-55v521h-95v45h95v134h55v-134h404v134h55v-134h95v-45zM586 521h-404v-143h404v143z" />
    <glyph glyph-name="uni1E2A" unicode="&#x1e2a;" horiz-adv-x="686" 
d="M86 700h55v-322h404v322h55v-700h-55v329h-404v-329h-55v700zM242.5 -167q-35.5 34 -35.5 89v6h45v-6q0 -39 23 -61.5t62 -22.5h12q39 0 62 22.5t23 61.5v6h45v-6q0 -55 -35.5 -89t-94.5 -34h-12q-59 0 -94.5 34z" />
    <glyph glyph-name="Hcircumflex" unicode="&#x124;" horiz-adv-x="686" 
d="M86 700h55v-322h404v322h55v-700h-55v329h-404v-329h-55v700zM319 938h45l117 -152h-53l-86 114l-86 -114h-53z" />
    <glyph glyph-name="uni1E24" unicode="&#x1e24;" horiz-adv-x="686" 
d="M86 700h55v-322h404v322h55v-700h-55v329h-404v-329h-55v700zM310 -159q-13 13 -13 33t13 32.5t33 12.5t33 -12.5t13 -32.5t-13 -33t-33 -13t-33 13z" />
    <glyph glyph-name="I" unicode="I" horiz-adv-x="247" 
d="M96 700h55v-700h-55v700z" />
    <glyph glyph-name="IJ" unicode="&#x132;" horiz-adv-x="795" 
d="M96 700h55v-700h-55v700zM350.5 19q-41.5 27 -64 76t-22.5 113h55q0 -75 35 -120.5t91 -45.5h90q59 0 93 48.5t34 133.5v476h55v-476q0 -109 -48 -170.5t-134 -61.5h-90q-53 0 -94.5 27z" />
    <glyph glyph-name="Iacute" unicode="&#xcd;" horiz-adv-x="247" 
d="M96 700h55v-700h-55v700zM180 930h62l-94 -144h-52z" />
    <glyph glyph-name="Ibreve" unicode="&#x12c;" horiz-adv-x="247" 
d="M96 700h55v-700h-55v700zM23.5 812q-35.5 34 -35.5 89v6h45v-6q0 -39 23 -61.5t62 -22.5h12q39 0 62 22.5t23 61.5v6h45v-6q0 -55 -35.5 -89t-94.5 -34h-12q-59 0 -94.5 34z" />
    <glyph glyph-name="uni01CF" unicode="&#x1cf;" horiz-adv-x="247" 
d="M96 700h55v-700h-55v700zM-15 938h53l86 -114l86 114h53l-117 -152h-45z" />
    <glyph glyph-name="Icircumflex" unicode="&#xce;" horiz-adv-x="247" 
d="M96 700h55v-700h-55v700zM101 938h45l117 -152h-53l-86 114l-86 -114h-53z" />
    <glyph glyph-name="Idieresis" unicode="&#xcf;" horiz-adv-x="247" 
d="M96 700h55v-700h-55v700zM0.5 797q-11.5 11 -11.5 30q0 18 11.5 29.5t29.5 11.5q19 0 30 -11.5t11 -29.5q0 -19 -11 -30t-30 -11q-18 0 -29.5 11zM187.5 797q-11.5 11 -11.5 30q0 18 11.5 29.5t29.5 11.5q19 0 30 -11.5t11 -29.5q0 -19 -11 -30t-30 -11q-18 0 -29.5 11z
" />
    <glyph glyph-name="Idotaccent" unicode="&#x130;" horiz-adv-x="247" 
d="M96 700h55v-700h-55v700zM91 798.5q-13 12.5 -13 32.5t13 33t33 13t33 -13t13 -33t-13 -32.5t-33 -12.5t-33 12.5z" />
    <glyph glyph-name="uni1ECA" unicode="&#x1eca;" horiz-adv-x="247" 
d="M96 700h55v-700h-55v700zM91 -159q-13 13 -13 33t13 32.5t33 12.5t33 -12.5t13 -32.5t-13 -33t-33 -13t-33 13z" />
    <glyph glyph-name="Igrave" unicode="&#xcc;" horiz-adv-x="247" 
d="M96 700h55v-700h-55v700zM12 930h62l84 -144h-52z" />
    <glyph glyph-name="uni1EC8" unicode="&#x1ec8;" horiz-adv-x="247" 
d="M96 700h55v-700h-55v700zM97 789q0 19 11.5 31t32.5 25q19 13 27 20.5t8 19.5v11q0 35 -40 35h-22q-44 0 -44 -44h-45q0 41 23 63t66 22h22q41 0 63.5 -19.5t22.5 -56.5v-11q0 -23 -12.5 -37t-34.5 -29q-15 -9 -22 -16t-7 -15v-14h-49v15z" />
    <glyph glyph-name="Imacron" unicode="&#x12a;" horiz-adv-x="247" 
d="M96 700h55v-700h-55v700zM6 837h237v-41h-237v41z" />
    <glyph glyph-name="Iogonek" unicode="&#x12e;" horiz-adv-x="247" 
d="M96 700h55v-700h-55v700zM62.5 -178.5q-25.5 24.5 -25.5 65.5v11q0 31 17.5 59t45.5 43h52q-32 -17 -49.5 -43t-17.5 -58v-10q0 -23 13 -36.5t36 -13.5h10q28 0 53 18v-43q-11 -8 -26 -12.5t-29 -4.5h-10q-44 0 -69.5 24.5z" />
    <glyph glyph-name="Itilde" unicode="&#x128;" horiz-adv-x="247" 
d="M96 700h55v-700h-55v700zM145.5 787.5q-15.5 9.5 -33.5 27.5q-15 14 -24.5 20.5t-21.5 6.5h-11q-16 0 -27 -13t-12 -35h-44q1 40 24.5 64t58.5 24h11q25 0 41 -10t35 -29q14 -13 22.5 -19t19.5 -6h12q14 0 24.5 13.5t11.5 35.5h45q-1 -40 -23.5 -64.5t-57.5 -24.5h-12
q-23 0 -38.5 9.5z" />
    <glyph glyph-name="J" unicode="J" horiz-adv-x="571" 
d="M126.5 19q-41.5 27 -64 76t-22.5 113h55q0 -75 35 -120.5t91 -45.5h90q59 0 93 48.5t34 133.5v476h55v-476q0 -109 -48 -170.5t-134 -61.5h-90q-53 0 -94.5 27z" />
    <glyph glyph-name="Jcircumflex" unicode="&#x134;" horiz-adv-x="571" 
d="M126.5 19q-41.5 27 -64 76t-22.5 113h55q0 -75 35 -120.5t91 -45.5h90q59 0 93 48.5t34 133.5v476h55v-476q0 -109 -48 -170.5t-134 -61.5h-90q-53 0 -94.5 27zM442 938h45l117 -152h-53l-86 114l-86 -114h-53z" />
    <glyph glyph-name="K" unicode="K" horiz-adv-x="618" 
d="M517 0l-282 348l-94 -100v-248h-55v700h55v-381l357 381h70l-295 -312l313 -388h-69z" />
    <glyph glyph-name="uni0136" unicode="&#x136;" horiz-adv-x="618" 
d="M517 0l-282 348l-94 -100v-248h-55v700h55v-381l357 381h70l-295 -312l313 -388h-69zM221 -222l12 8q33 22 47 46.5t14 60.5v29h54v-29q0 -52 -19.5 -87.5t-62.5 -61.5l-14 -9z" />
    <glyph glyph-name="L" unicode="L" horiz-adv-x="553" 
d="M99.5 13.5q-13.5 13.5 -13.5 38.5v648h55v-650h380v-50h-384q-24 0 -37.5 13.5z" />
    <glyph glyph-name="Lacute" unicode="&#x139;" horiz-adv-x="553" 
d="M99.5 13.5q-13.5 13.5 -13.5 38.5v648h55v-650h380v-50h-384q-24 0 -37.5 13.5zM170 930h62l-94 -144h-52z" />
    <glyph glyph-name="Lcaron" unicode="&#x13d;" horiz-adv-x="553" 
d="M99.5 13.5q-13.5 13.5 -13.5 38.5v648h55v-650h380v-50h-384q-24 0 -37.5 13.5zM394 558l12 8q32 21 46 46t14 61v27h54v-27q0 -52 -19 -87.5t-62 -61.5l-14 -9z" />
    <glyph glyph-name="uni013B" unicode="&#x13b;" horiz-adv-x="553" 
d="M99.5 13.5q-13.5 13.5 -13.5 38.5v648h55v-650h380v-50h-384q-24 0 -37.5 13.5zM212 -222l12 8q33 22 47 46.5t14 60.5v29h54v-29q0 -52 -19.5 -87.5t-62.5 -61.5l-14 -9z" />
    <glyph glyph-name="Ldot" unicode="&#x13f;" horiz-adv-x="553" 
d="M99.5 13.5q-13.5 13.5 -13.5 38.5v648h55v-650h380v-50h-384q-24 0 -37.5 13.5zM354.5 233.5q-12.5 12.5 -12.5 32.5t12.5 32.5t32.5 12.5q21 0 33 -12.5t12 -32.5t-12.5 -32.5t-32.5 -12.5t-32.5 12.5z" />
    <glyph glyph-name="uni1E36" unicode="&#x1e36;" horiz-adv-x="553" 
d="M99.5 13.5q-13.5 13.5 -13.5 38.5v648h55v-650h380v-50h-384q-24 0 -37.5 13.5zM276 -159q-13 13 -13 33t13 32.5t33 12.5t33 -12.5t13 -32.5t-13 -33t-33 -13t-33 13z" />
    <glyph glyph-name="uni1E38" unicode="&#x1e38;" horiz-adv-x="553" 
d="M99.5 13.5q-13.5 13.5 -13.5 38.5v648h55v-650h380v-50h-384q-24 0 -37.5 13.5zM276 -159q-13 13 -13 33t13 32.5t33 12.5t33 -12.5t13 -32.5t-13 -33t-33 -13t-33 13zM-4 837h237v-41h-237v41z" />
    <glyph glyph-name="uni1E3A" unicode="&#x1e3a;" horiz-adv-x="553" 
d="M99.5 13.5q-13.5 13.5 -13.5 38.5v648h55v-650h380v-50h-384q-24 0 -37.5 13.5zM191 -82h237v-41h-237v41z" />
    <glyph glyph-name="Lslash" unicode="&#x141;" horiz-adv-x="586" 
d="M554 50v-50h-384q-24 0 -37.5 13.5t-13.5 38.5v220l-87 -51v52l87 51v376h55v-344l144 85v-52l-144 -85v-254h380z" />
    <glyph glyph-name="M" unicode="M" horiz-adv-x="788" 
d="M86 700h55l257 -480l250 480h54v-700h-54v597l-223 -426q-7 -13 -12.5 -18t-12.5 -5h-17l-243 449v-597h-54v700z" />
    <glyph glyph-name="uni1E42" unicode="&#x1e42;" horiz-adv-x="788" 
d="M86 700h55l257 -480l250 480h54v-700h-54v597l-223 -426q-7 -13 -12.5 -18t-12.5 -5h-17l-243 449v-597h-54v700zM362 -159q-13 13 -13 33t13 32.5t33 12.5t33 -12.5t13 -32.5t-13 -33t-33 -13t-33 13z" />
    <glyph glyph-name="N" unicode="N" horiz-adv-x="683" 
d="M86 700h54l404 -613v613h53v-700h-53l-405 611v-611h-53v700z" />
    <glyph glyph-name="Nacute" unicode="&#x143;" horiz-adv-x="683" 
d="M86 700h54l404 -613v613h53v-700h-53l-405 611v-611h-53v700zM398 930h62l-94 -144h-52z" />
    <glyph glyph-name="Ncaron" unicode="&#x147;" horiz-adv-x="683" 
d="M86 700h54l404 -613v613h53v-700h-53l-405 611v-611h-53v700zM203 938h53l86 -114l86 114h53l-117 -152h-45z" />
    <glyph glyph-name="uni0145" unicode="&#x145;" horiz-adv-x="683" 
d="M86 700h54l404 -613v613h53v-700h-53l-405 611v-611h-53v700zM245 -222l12 8q33 22 47 46.5t14 60.5v29h54v-29q0 -52 -19.5 -87.5t-62.5 -61.5l-14 -9z" />
    <glyph glyph-name="uni1E44" unicode="&#x1e44;" horiz-adv-x="683" 
d="M86 700h54l404 -613v613h53v-700h-53l-405 611v-611h-53v700zM309 798.5q-13 12.5 -13 32.5t13 33t33 13t33 -13t13 -33t-13 -32.5t-33 -12.5t-33 12.5z" />
    <glyph glyph-name="uni1E46" unicode="&#x1e46;" horiz-adv-x="683" 
d="M86 700h54l404 -613v613h53v-700h-53l-405 611v-611h-53v700zM309 -159q-13 13 -13 33t13 32.5t33 12.5t33 -12.5t13 -32.5t-13 -33t-33 -13t-33 13z" />
    <glyph glyph-name="Eng" unicode="&#x14a;" horiz-adv-x="683" 
d="M412 -151h27q57 0 81 28.5t24 98.5v26l-405 609v-611h-53v700h54l404 -612v612h53v-719q0 -98 -36 -139t-122 -41h-27v48z" />
    <glyph glyph-name="uni1E48" unicode="&#x1e48;" horiz-adv-x="683" 
d="M86 700h54l404 -613v613h53v-700h-53l-405 611v-611h-53v700zM224 -82h237v-41h-237v41z" />
    <glyph glyph-name="Ntilde" unicode="&#xd1;" horiz-adv-x="683" 
d="M86 700h54l404 -613v613h53v-700h-53l-405 611v-611h-53v700zM363.5 787.5q-15.5 9.5 -33.5 27.5q-15 14 -24.5 20.5t-21.5 6.5h-11q-16 0 -27 -13t-12 -35h-44q1 40 24.5 64t58.5 24h11q25 0 41 -10t35 -29q14 -13 22.5 -19t19.5 -6h12q14 0 24.5 13.5t11.5 35.5h45
q-1 -40 -23.5 -64.5t-57.5 -24.5h-12q-23 0 -38.5 9.5z" />
    <glyph glyph-name="O" unicode="O" horiz-adv-x="689" 
d="M173.5 22.5q-51.5 30.5 -79.5 86t-28 127.5v228q0 73 28.5 128t80 85.5t118.5 30.5h104q67 0 118.5 -30.5t79.5 -85.5t28 -128v-228q0 -72 -28.5 -127.5t-80 -86t-118.5 -30.5h-104q-67 0 -118.5 30.5zM395 42q77 0 125 53.5t48 140.5v228q0 88 -47.5 141.5t-124.5 53.5
h-102q-78 0 -125.5 -53.5t-47.5 -141.5v-228q0 -87 47.5 -140.5t124.5 -53.5h102z" />
    <glyph glyph-name="Oacute" unicode="&#xd3;" horiz-adv-x="689" 
d="M173.5 22.5q-51.5 30.5 -79.5 86t-28 127.5v228q0 73 28.5 128t80 85.5t118.5 30.5h104q67 0 118.5 -30.5t79.5 -85.5t28 -128v-228q0 -72 -28.5 -127.5t-80 -86t-118.5 -30.5h-104q-67 0 -118.5 30.5zM395 42q77 0 125 53.5t48 140.5v228q0 88 -47.5 141.5t-124.5 53.5
h-102q-78 0 -125.5 -53.5t-47.5 -141.5v-228q0 -87 47.5 -140.5t124.5 -53.5h102zM401 930h62l-94 -144h-52z" />
    <glyph glyph-name="Obreve" unicode="&#x14e;" horiz-adv-x="689" 
d="M173.5 22.5q-51.5 30.5 -79.5 86t-28 127.5v228q0 73 28.5 128t80 85.5t118.5 30.5h104q67 0 118.5 -30.5t79.5 -85.5t28 -128v-228q0 -72 -28.5 -127.5t-80 -86t-118.5 -30.5h-104q-67 0 -118.5 30.5zM395 42q77 0 125 53.5t48 140.5v228q0 88 -47.5 141.5t-124.5 53.5
h-102q-78 0 -125.5 -53.5t-47.5 -141.5v-228q0 -87 47.5 -140.5t124.5 -53.5h102zM244.5 812q-35.5 34 -35.5 89v6h45v-6q0 -39 23 -61.5t62 -22.5h12q39 0 62 22.5t23 61.5v6h45v-6q0 -55 -35.5 -89t-94.5 -34h-12q-59 0 -94.5 34z" />
    <glyph glyph-name="uni01D1" unicode="&#x1d1;" horiz-adv-x="689" 
d="M173.5 22.5q-51.5 30.5 -79.5 86t-28 127.5v228q0 73 28.5 128t80 85.5t118.5 30.5h104q67 0 118.5 -30.5t79.5 -85.5t28 -128v-228q0 -72 -28.5 -127.5t-80 -86t-118.5 -30.5h-104q-67 0 -118.5 30.5zM395 42q77 0 125 53.5t48 140.5v228q0 88 -47.5 141.5t-124.5 53.5
h-102q-78 0 -125.5 -53.5t-47.5 -141.5v-228q0 -87 47.5 -140.5t124.5 -53.5h102zM206 938h53l86 -114l86 114h53l-117 -152h-45z" />
    <glyph glyph-name="Ocircumflex" unicode="&#xd4;" horiz-adv-x="689" 
d="M173.5 22.5q-51.5 30.5 -79.5 86t-28 127.5v228q0 73 28.5 128t80 85.5t118.5 30.5h104q67 0 118.5 -30.5t79.5 -85.5t28 -128v-228q0 -72 -28.5 -127.5t-80 -86t-118.5 -30.5h-104q-67 0 -118.5 30.5zM395 42q77 0 125 53.5t48 140.5v228q0 88 -47.5 141.5t-124.5 53.5
h-102q-78 0 -125.5 -53.5t-47.5 -141.5v-228q0 -87 47.5 -140.5t124.5 -53.5h102zM322 938h45l117 -152h-53l-86 114l-86 -114h-53z" />
    <glyph glyph-name="uni1ED0" unicode="&#x1ed0;" horiz-adv-x="689" 
d="M173.5 22.5q-51.5 30.5 -79.5 86t-28 127.5v228q0 73 28.5 128t80 85.5t118.5 30.5h104q67 0 118.5 -30.5t79.5 -85.5t28 -128v-228q0 -72 -28.5 -127.5t-80 -86t-118.5 -30.5h-104q-67 0 -118.5 30.5zM395 42q77 0 125 53.5t48 140.5v228q0 88 -47.5 141.5t-124.5 53.5
h-102q-78 0 -125.5 -53.5t-47.5 -141.5v-228q0 -87 47.5 -140.5t124.5 -53.5h102zM507 1040h55l-71 -107h-45zM322 938h45l117 -152h-53l-86 114l-86 -114h-53z" />
    <glyph glyph-name="uni1ED8" unicode="&#x1ed8;" horiz-adv-x="689" 
d="M173.5 22.5q-51.5 30.5 -79.5 86t-28 127.5v228q0 73 28.5 128t80 85.5t118.5 30.5h104q67 0 118.5 -30.5t79.5 -85.5t28 -128v-228q0 -72 -28.5 -127.5t-80 -86t-118.5 -30.5h-104q-67 0 -118.5 30.5zM395 42q77 0 125 53.5t48 140.5v228q0 88 -47.5 141.5t-124.5 53.5
h-102q-78 0 -125.5 -53.5t-47.5 -141.5v-228q0 -87 47.5 -140.5t124.5 -53.5h102zM312 -159q-13 13 -13 33t13 32.5t33 12.5t33 -12.5t13 -32.5t-13 -33t-33 -13t-33 13zM322 938h45l117 -152h-53l-86 114l-86 -114h-53z" />
    <glyph glyph-name="uni1ED2" unicode="&#x1ed2;" horiz-adv-x="689" 
d="M173.5 22.5q-51.5 30.5 -79.5 86t-28 127.5v228q0 73 28.5 128t80 85.5t118.5 30.5h104q67 0 118.5 -30.5t79.5 -85.5t28 -128v-228q0 -72 -28.5 -127.5t-80 -86t-118.5 -30.5h-104q-67 0 -118.5 30.5zM395 42q77 0 125 53.5t48 140.5v228q0 88 -47.5 141.5t-124.5 53.5
h-102q-78 0 -125.5 -53.5t-47.5 -141.5v-228q0 -87 47.5 -140.5t124.5 -53.5h102zM399 1040h54l61 -107h-45zM322 938h45l117 -152h-53l-86 114l-86 -114h-53z" />
    <glyph glyph-name="uni1ED4" unicode="&#x1ed4;" horiz-adv-x="689" 
d="M173.5 22.5q-51.5 30.5 -79.5 86t-28 127.5v228q0 73 28.5 128t80 85.5t118.5 30.5h104q67 0 118.5 -30.5t79.5 -85.5t28 -128v-228q0 -72 -28.5 -127.5t-80 -86t-118.5 -30.5h-104q-67 0 -118.5 30.5zM395 42q77 0 125 53.5t48 140.5v228q0 88 -47.5 141.5t-124.5 53.5
h-102q-78 0 -125.5 -53.5t-47.5 -141.5v-228q0 -87 47.5 -140.5t124.5 -53.5h102zM452 933q0 15 9 24.5t27 20.5q15 10 22 17t7 17v8q0 28 -32 28h-16q-37 0 -37 -34h-39q0 70 76 70h16q35 0 53.5 -16.5t18.5 -47.5v-8q0 -19 -10.5 -30.5t-29.5 -24.5q-12 -8 -17.5 -13
t-5.5 -12v-9h-42v10zM322 938h45l117 -152h-53l-86 114l-86 -114h-53z" />
    <glyph glyph-name="uni1ED6" unicode="&#x1ed6;" horiz-adv-x="689" 
d="M173.5 22.5q-51.5 30.5 -79.5 86t-28 127.5v228q0 73 28.5 128t80 85.5t118.5 30.5h104q67 0 118.5 -30.5t79.5 -85.5t28 -128v-228q0 -72 -28.5 -127.5t-80 -86t-118.5 -30.5h-104q-67 0 -118.5 30.5zM395 42q77 0 125 53.5t48 140.5v228q0 88 -47.5 141.5t-124.5 53.5
h-102q-78 0 -125.5 -53.5t-47.5 -141.5v-228q0 -87 47.5 -140.5t124.5 -53.5h102zM364 988.5q-13 8.5 -29 23.5q-12 12 -20 17.5t-18 5.5h-10q-13 0 -21.5 -11.5t-10.5 -29.5h-38q1 34 20.5 55t49.5 21h10q21 0 35 -8.5t30 -24.5q11 -12 19 -17t17 -5h9q12 0 20.5 11.5
t9.5 30.5h39q-2 -35 -20.5 -56t-48.5 -21h-9q-21 0 -34 8.5zM322 938h45l117 -152h-53l-86 114l-86 -114h-53z" />
    <glyph glyph-name="Odieresis" unicode="&#xd6;" horiz-adv-x="689" 
d="M173.5 22.5q-51.5 30.5 -79.5 86t-28 127.5v228q0 73 28.5 128t80 85.5t118.5 30.5h104q67 0 118.5 -30.5t79.5 -85.5t28 -128v-228q0 -72 -28.5 -127.5t-80 -86t-118.5 -30.5h-104q-67 0 -118.5 30.5zM395 42q77 0 125 53.5t48 140.5v228q0 88 -47.5 141.5t-124.5 53.5
h-102q-78 0 -125.5 -53.5t-47.5 -141.5v-228q0 -87 47.5 -140.5t124.5 -53.5h102zM221.5 797q-11.5 11 -11.5 30q0 18 11.5 29.5t29.5 11.5q19 0 30 -11.5t11 -29.5q0 -19 -11 -30t-30 -11q-18 0 -29.5 11zM408.5 797q-11.5 11 -11.5 30q0 18 11.5 29.5t29.5 11.5
q19 0 30 -11.5t11 -29.5q0 -19 -11 -30t-30 -11q-18 0 -29.5 11z" />
    <glyph glyph-name="uni1ECC" unicode="&#x1ecc;" horiz-adv-x="689" 
d="M173.5 22.5q-51.5 30.5 -79.5 86t-28 127.5v228q0 73 28.5 128t80 85.5t118.5 30.5h104q67 0 118.5 -30.5t79.5 -85.5t28 -128v-228q0 -72 -28.5 -127.5t-80 -86t-118.5 -30.5h-104q-67 0 -118.5 30.5zM395 42q77 0 125 53.5t48 140.5v228q0 88 -47.5 141.5t-124.5 53.5
h-102q-78 0 -125.5 -53.5t-47.5 -141.5v-228q0 -87 47.5 -140.5t124.5 -53.5h102zM312 -159q-13 13 -13 33t13 32.5t33 12.5t33 -12.5t13 -32.5t-13 -33t-33 -13t-33 13z" />
    <glyph glyph-name="Ograve" unicode="&#xd2;" horiz-adv-x="689" 
d="M173.5 22.5q-51.5 30.5 -79.5 86t-28 127.5v228q0 73 28.5 128t80 85.5t118.5 30.5h104q67 0 118.5 -30.5t79.5 -85.5t28 -128v-228q0 -72 -28.5 -127.5t-80 -86t-118.5 -30.5h-104q-67 0 -118.5 30.5zM395 42q77 0 125 53.5t48 140.5v228q0 88 -47.5 141.5t-124.5 53.5
h-102q-78 0 -125.5 -53.5t-47.5 -141.5v-228q0 -87 47.5 -140.5t124.5 -53.5h102zM233 930h62l84 -144h-52z" />
    <glyph glyph-name="uni1ECE" unicode="&#x1ece;" horiz-adv-x="689" 
d="M173.5 22.5q-51.5 30.5 -79.5 86t-28 127.5v228q0 73 28.5 128t80 85.5t118.5 30.5h104q67 0 118.5 -30.5t79.5 -85.5t28 -128v-228q0 -72 -28.5 -127.5t-80 -86t-118.5 -30.5h-104q-67 0 -118.5 30.5zM395 42q77 0 125 53.5t48 140.5v228q0 88 -47.5 141.5t-124.5 53.5
h-102q-78 0 -125.5 -53.5t-47.5 -141.5v-228q0 -87 47.5 -140.5t124.5 -53.5h102zM318 789q0 19 11.5 31t32.5 25q19 13 27 20.5t8 19.5v11q0 35 -40 35h-22q-44 0 -44 -44h-45q0 41 23 63t66 22h22q41 0 63.5 -19.5t22.5 -56.5v-11q0 -23 -12.5 -37t-34.5 -29
q-15 -9 -22 -16t-7 -15v-14h-49v15z" />
    <glyph glyph-name="Ohorn" unicode="&#x1a0;" horiz-adv-x="744" 
d="M745 703v-11q0 -74 -34 -117t-95 -44q7 -29 7 -67v-228q0 -72 -28.5 -127.5t-80 -86t-118.5 -30.5h-104q-67 0 -118.5 30.5t-79.5 86t-28 127.5v228q0 73 28.5 128t80 85.5t118.5 30.5h104q72 0 125.5 -34.5t79.5 -96.5h10q40 0 61 29.5t21 85.5v11h51zM568 464
q0 88 -47.5 141.5t-124.5 53.5h-102q-78 0 -125.5 -53.5t-47.5 -141.5v-228q0 -87 47.5 -140.5t124.5 -53.5h102q77 0 125 53.5t48 140.5v228z" />
    <glyph glyph-name="uni1EDA" unicode="&#x1eda;" horiz-adv-x="744" 
d="M745 703v-11q0 -74 -34 -117t-95 -44q7 -29 7 -67v-228q0 -72 -28.5 -127.5t-80 -86t-118.5 -30.5h-104q-67 0 -118.5 30.5t-79.5 86t-28 127.5v228q0 73 28.5 128t80 85.5t118.5 30.5h104q72 0 125.5 -34.5t79.5 -96.5h10q40 0 61 29.5t21 85.5v11h51zM568 464
q0 88 -47.5 141.5t-124.5 53.5h-102q-78 0 -125.5 -53.5t-47.5 -141.5v-228q0 -87 47.5 -140.5t124.5 -53.5h102q77 0 125 53.5t48 140.5v228zM401 930h62l-94 -144h-52z" />
    <glyph glyph-name="uni1EE2" unicode="&#x1ee2;" horiz-adv-x="744" 
d="M745 703v-11q0 -74 -34 -117t-95 -44q7 -29 7 -67v-228q0 -72 -28.5 -127.5t-80 -86t-118.5 -30.5h-104q-67 0 -118.5 30.5t-79.5 86t-28 127.5v228q0 73 28.5 128t80 85.5t118.5 30.5h104q72 0 125.5 -34.5t79.5 -96.5h10q40 0 61 29.5t21 85.5v11h51zM568 464
q0 88 -47.5 141.5t-124.5 53.5h-102q-78 0 -125.5 -53.5t-47.5 -141.5v-228q0 -87 47.5 -140.5t124.5 -53.5h102q77 0 125 53.5t48 140.5v228zM312 -159q-13 13 -13 33t13 32.5t33 12.5t33 -12.5t13 -32.5t-13 -33t-33 -13t-33 13z" />
    <glyph glyph-name="uni1EDC" unicode="&#x1edc;" horiz-adv-x="744" 
d="M745 703v-11q0 -74 -34 -117t-95 -44q7 -29 7 -67v-228q0 -72 -28.5 -127.5t-80 -86t-118.5 -30.5h-104q-67 0 -118.5 30.5t-79.5 86t-28 127.5v228q0 73 28.5 128t80 85.5t118.5 30.5h104q72 0 125.5 -34.5t79.5 -96.5h10q40 0 61 29.5t21 85.5v11h51zM568 464
q0 88 -47.5 141.5t-124.5 53.5h-102q-78 0 -125.5 -53.5t-47.5 -141.5v-228q0 -87 47.5 -140.5t124.5 -53.5h102q77 0 125 53.5t48 140.5v228zM233 930h62l84 -144h-52z" />
    <glyph glyph-name="uni1EDE" unicode="&#x1ede;" horiz-adv-x="744" 
d="M745 703v-11q0 -74 -34 -117t-95 -44q7 -29 7 -67v-228q0 -72 -28.5 -127.5t-80 -86t-118.5 -30.5h-104q-67 0 -118.5 30.5t-79.5 86t-28 127.5v228q0 73 28.5 128t80 85.5t118.5 30.5h104q72 0 125.5 -34.5t79.5 -96.5h10q40 0 61 29.5t21 85.5v11h51zM568 464
q0 88 -47.5 141.5t-124.5 53.5h-102q-78 0 -125.5 -53.5t-47.5 -141.5v-228q0 -87 47.5 -140.5t124.5 -53.5h102q77 0 125 53.5t48 140.5v228zM318 789q0 19 11.5 31t32.5 25q19 13 27 20.5t8 19.5v11q0 35 -40 35h-22q-44 0 -44 -44h-45q0 41 23 63t66 22h22
q41 0 63.5 -19.5t22.5 -56.5v-11q0 -23 -12.5 -37t-34.5 -29q-15 -9 -22 -16t-7 -15v-14h-49v15z" />
    <glyph glyph-name="uni1EE0" unicode="&#x1ee0;" horiz-adv-x="744" 
d="M745 703v-11q0 -74 -34 -117t-95 -44q7 -29 7 -67v-228q0 -72 -28.5 -127.5t-80 -86t-118.5 -30.5h-104q-67 0 -118.5 30.5t-79.5 86t-28 127.5v228q0 73 28.5 128t80 85.5t118.5 30.5h104q72 0 125.5 -34.5t79.5 -96.5h10q40 0 61 29.5t21 85.5v11h51zM568 464
q0 88 -47.5 141.5t-124.5 53.5h-102q-78 0 -125.5 -53.5t-47.5 -141.5v-228q0 -87 47.5 -140.5t124.5 -53.5h102q77 0 125 53.5t48 140.5v228zM366.5 787.5q-15.5 9.5 -33.5 27.5q-15 14 -24.5 20.5t-21.5 6.5h-11q-16 0 -27 -13t-12 -35h-44q1 40 24.5 64t58.5 24h11
q25 0 41 -10t35 -29q14 -13 22.5 -19t19.5 -6h12q14 0 24.5 13.5t11.5 35.5h45q-1 -40 -23.5 -64.5t-57.5 -24.5h-12q-23 0 -38.5 9.5z" />
    <glyph glyph-name="Ohungarumlaut" unicode="&#x150;" horiz-adv-x="689" 
d="M173.5 22.5q-51.5 30.5 -79.5 86t-28 127.5v228q0 73 28.5 128t80 85.5t118.5 30.5h104q67 0 118.5 -30.5t79.5 -85.5t28 -128v-228q0 -72 -28.5 -127.5t-80 -86t-118.5 -30.5h-104q-67 0 -118.5 30.5zM395 42q77 0 125 53.5t48 140.5v228q0 88 -47.5 141.5t-124.5 53.5
h-102q-78 0 -125.5 -53.5t-47.5 -141.5v-228q0 -87 47.5 -140.5t124.5 -53.5h102zM326 930h60l-87 -144h-47zM451 930h60l-86 -144h-47z" />
    <glyph glyph-name="Omacron" unicode="&#x14c;" horiz-adv-x="689" 
d="M173.5 22.5q-51.5 30.5 -79.5 86t-28 127.5v228q0 73 28.5 128t80 85.5t118.5 30.5h104q67 0 118.5 -30.5t79.5 -85.5t28 -128v-228q0 -72 -28.5 -127.5t-80 -86t-118.5 -30.5h-104q-67 0 -118.5 30.5zM395 42q77 0 125 53.5t48 140.5v228q0 88 -47.5 141.5t-124.5 53.5
h-102q-78 0 -125.5 -53.5t-47.5 -141.5v-228q0 -87 47.5 -140.5t124.5 -53.5h102zM227 837h237v-41h-237v41z" />
    <glyph glyph-name="Oslash" unicode="&#xd8;" horiz-adv-x="689" 
d="M565 637q58 -67 58 -173v-228q0 -72 -28.5 -127.5t-80 -86t-118.5 -30.5h-104q-74 0 -131 38l-47 -71h-54l67 101q-61 67 -61 176v228q0 73 28.5 128t80 85.5t118.5 30.5h104q79 0 134 -41l44 66h54zM159 107l343 516q-44 36 -106 36h-102q-78 0 -125.5 -53.5
t-47.5 -141.5v-228q0 -77 38 -129zM533 589l-342 -514q44 -33 102 -33h102q77 0 125 53.5t48 140.5v228q0 75 -35 125z" />
    <glyph glyph-name="Oslashacute" unicode="&#x1fe;" horiz-adv-x="689" 
d="M565 637q58 -67 58 -173v-228q0 -72 -28.5 -127.5t-80 -86t-118.5 -30.5h-104q-74 0 -131 38l-47 -71h-54l67 101q-61 67 -61 176v228q0 73 28.5 128t80 85.5t118.5 30.5h104q79 0 134 -41l44 66h54zM159 107l343 516q-44 36 -106 36h-102q-78 0 -125.5 -53.5
t-47.5 -141.5v-228q0 -77 38 -129zM533 589l-342 -514q44 -33 102 -33h102q77 0 125 53.5t48 140.5v228q0 75 -35 125zM400 930h62l-94 -144h-52z" />
    <glyph glyph-name="Otilde" unicode="&#xd5;" horiz-adv-x="689" 
d="M173.5 22.5q-51.5 30.5 -79.5 86t-28 127.5v228q0 73 28.5 128t80 85.5t118.5 30.5h104q67 0 118.5 -30.5t79.5 -85.5t28 -128v-228q0 -72 -28.5 -127.5t-80 -86t-118.5 -30.5h-104q-67 0 -118.5 30.5zM395 42q77 0 125 53.5t48 140.5v228q0 88 -47.5 141.5t-124.5 53.5
h-102q-78 0 -125.5 -53.5t-47.5 -141.5v-228q0 -87 47.5 -140.5t124.5 -53.5h102zM366.5 787.5q-15.5 9.5 -33.5 27.5q-15 14 -24.5 20.5t-21.5 6.5h-11q-16 0 -27 -13t-12 -35h-44q1 40 24.5 64t58.5 24h11q25 0 41 -10t35 -29q14 -13 22.5 -19t19.5 -6h12q14 0 24.5 13.5
t11.5 35.5h45q-1 -40 -23.5 -64.5t-57.5 -24.5h-12q-23 0 -38.5 9.5z" />
    <glyph glyph-name="OE" unicode="&#x152;" horiz-adv-x="1066" 
d="M173.5 22.5q-51.5 30.5 -79.5 86t-28 128.5v225q0 73 28.5 128.5t80 86.5t119.5 31h105q54 0 99 -23t73 -64v79h439v-48h-384v-270h349v-48h-349v-285h384v-49h-387q-23 0 -37 13t-14 35v38q-28 -43 -75.5 -68.5t-101.5 -25.5h-103q-67 0 -118.5 30.5zM394 42
q80 0 128.5 54.5t48.5 142.5v223q0 88 -47.5 142.5t-125.5 54.5h-103q-51 0 -90.5 -25t-61.5 -69.5t-22 -102.5v-225q0 -88 47.5 -141.5t124.5 -53.5h101z" />
    <glyph glyph-name="P" unicode="P" horiz-adv-x="617" 
d="M86 700h329q74 0 119 -40.5t45 -107.5v-111q0 -73 -48 -117.5t-127 -44.5h-263v-279h-55v700zM403 329q55 0 88 31t33 82v111q0 44 -30.5 71t-79.5 27h-273v-322h262z" />
    <glyph glyph-name="Thorn" unicode="&#xde;" horiz-adv-x="631" 
d="M534 527.5q45 -40.5 45 -107.5v-111q0 -73 -49.5 -117.5t-130.5 -44.5h-258v-147h-55v700h55v-132h274q74 0 119 -40.5zM524 421q0 44 -30.5 70.5t-79.5 26.5h-273v-322h257q57 0 91.5 31.5t34.5 82.5v111z" />
    <glyph glyph-name="Q" unicode="Q" horiz-adv-x="692" 
d="M616 -32l-76 75q-62 -51 -146 -51h-104q-67 0 -117.5 30.5t-78.5 86t-28 127.5v228q0 73 28.5 128t80 85.5t118.5 30.5h104q67 0 118.5 -30.5t79.5 -85.5t28 -128v-227q0 -92 -49 -158l76 -75zM503 80l-104 103l34 35l102 -101q33 50 33 120v227q0 88 -47.5 141.5
t-124.5 53.5h-102q-77 0 -125 -53.5t-48 -141.5v-228q0 -87 46.5 -140.5t123.5 -53.5h101q64 0 111 38z" />
    <glyph glyph-name="R" unicode="R" horiz-adv-x="643" 
d="M86 700h330q73 0 117 -40.5t44 -107.5v-78q0 -53 -34 -93.5t-91 -55.5v-1q30 -15 54 -49t37 -80l56 -195h-56l-56 195q-16 53 -50.5 84t-78.5 31h-217v-310h-55v700zM391 359q59 0 95 31.5t36 83.5v80q0 44 -29 70.5t-78 26.5h-274v-292h250z" />
    <glyph glyph-name="Racute" unicode="&#x154;" horiz-adv-x="643" 
d="M86 700h330q73 0 117 -40.5t44 -107.5v-78q0 -53 -34 -93.5t-91 -55.5v-1q30 -15 54 -49t37 -80l56 -195h-56l-56 195q-16 53 -50.5 84t-78.5 31h-217v-310h-55v700zM391 359q59 0 95 31.5t36 83.5v80q0 44 -29 70.5t-78 26.5h-274v-292h250zM374 930h62l-94 -144h-52z
" />
    <glyph glyph-name="Rcaron" unicode="&#x158;" horiz-adv-x="643" 
d="M86 700h330q73 0 117 -40.5t44 -107.5v-78q0 -53 -34 -93.5t-91 -55.5v-1q30 -15 54 -49t37 -80l56 -195h-56l-56 195q-16 53 -50.5 84t-78.5 31h-217v-310h-55v700zM391 359q59 0 95 31.5t36 83.5v80q0 44 -29 70.5t-78 26.5h-274v-292h250zM179 938h53l86 -114l86 114
h53l-117 -152h-45z" />
    <glyph glyph-name="uni0156" unicode="&#x156;" horiz-adv-x="643" 
d="M86 700h330q73 0 117 -40.5t44 -107.5v-78q0 -53 -34 -93.5t-91 -55.5v-1q30 -15 54 -49t37 -80l56 -195h-56l-56 195q-16 53 -50.5 84t-78.5 31h-217v-310h-55v700zM391 359q59 0 95 31.5t36 83.5v80q0 44 -29 70.5t-78 26.5h-274v-292h250zM237 -222l12 8
q33 22 47 46.5t14 60.5v29h54v-29q0 -52 -19.5 -87.5t-62.5 -61.5l-14 -9z" />
    <glyph glyph-name="uni1E5A" unicode="&#x1e5a;" horiz-adv-x="643" 
d="M86 700h330q73 0 117 -40.5t44 -107.5v-78q0 -53 -34 -93.5t-91 -55.5v-1q30 -15 54 -49t37 -80l56 -195h-56l-56 195q-16 53 -50.5 84t-78.5 31h-217v-310h-55v700zM391 359q59 0 95 31.5t36 83.5v80q0 44 -29 70.5t-78 26.5h-274v-292h250zM301 -159q-13 13 -13 33
t13 32.5t33 12.5t33 -12.5t13 -32.5t-13 -33t-33 -13t-33 13z" />
    <glyph glyph-name="uni1E5C" unicode="&#x1e5c;" horiz-adv-x="643" 
d="M86 700h330q73 0 117 -40.5t44 -107.5v-78q0 -53 -34 -93.5t-91 -55.5v-1q30 -15 54 -49t37 -80l56 -195h-56l-56 195q-16 53 -50.5 84t-78.5 31h-217v-310h-55v700zM391 359q59 0 95 31.5t36 83.5v80q0 44 -29 70.5t-78 26.5h-274v-292h250zM301 -159q-13 13 -13 33
t13 32.5t33 12.5t33 -12.5t13 -32.5t-13 -33t-33 -13t-33 13zM200 837h237v-41h-237v41z" />
    <glyph glyph-name="uni1E5E" unicode="&#x1e5e;" horiz-adv-x="643" 
d="M86 700h330q73 0 117 -40.5t44 -107.5v-78q0 -53 -34 -93.5t-91 -55.5v-1q30 -15 54 -49t37 -80l56 -195h-56l-56 195q-16 53 -50.5 84t-78.5 31h-217v-310h-55v700zM391 359q59 0 95 31.5t36 83.5v80q0 44 -29 70.5t-78 26.5h-274v-292h250zM216 -82h237v-41h-237v41z
" />
    <glyph glyph-name="S" unicode="S" horiz-adv-x="620" 
d="M114.5 45q-52.5 53 -52.5 144h54q0 -68 38 -107.5t103 -39.5h112q63 0 101.5 29t38.5 76v68q0 38 -28 65t-78 35l-179 30q-72 12 -112.5 52t-40.5 100v58q0 69 52 111t137 42h113q81 0 130.5 -49t49.5 -129h-54q0 58 -34.5 93.5t-91.5 35.5h-113q-61 0 -97.5 -28.5
t-36.5 -75.5v-58q0 -40 27 -67t76 -35l178 -31q74 -13 115.5 -52t41.5 -97v-68q0 -70 -53 -112.5t-141 -42.5h-114q-89 0 -141.5 53z" />
    <glyph glyph-name="Sacute" unicode="&#x15a;" horiz-adv-x="620" 
d="M114.5 45q-52.5 53 -52.5 144h54q0 -68 38 -107.5t103 -39.5h112q63 0 101.5 29t38.5 76v68q0 38 -28 65t-78 35l-179 30q-72 12 -112.5 52t-40.5 100v58q0 69 52 111t137 42h113q81 0 130.5 -49t49.5 -129h-54q0 58 -34.5 93.5t-91.5 35.5h-113q-61 0 -97.5 -28.5
t-36.5 -75.5v-58q0 -40 27 -67t76 -35l178 -31q74 -13 115.5 -52t41.5 -97v-68q0 -70 -53 -112.5t-141 -42.5h-114q-89 0 -141.5 53zM371 930h62l-94 -144h-52z" />
    <glyph glyph-name="Scaron" unicode="&#x160;" horiz-adv-x="620" 
d="M114.5 45q-52.5 53 -52.5 144h54q0 -68 38 -107.5t103 -39.5h112q63 0 101.5 29t38.5 76v68q0 38 -28 65t-78 35l-179 30q-72 12 -112.5 52t-40.5 100v58q0 69 52 111t137 42h113q81 0 130.5 -49t49.5 -129h-54q0 58 -34.5 93.5t-91.5 35.5h-113q-61 0 -97.5 -28.5
t-36.5 -75.5v-58q0 -40 27 -67t76 -35l178 -31q74 -13 115.5 -52t41.5 -97v-68q0 -70 -53 -112.5t-141 -42.5h-114q-89 0 -141.5 53zM176 938h53l86 -114l86 114h53l-117 -152h-45z" />
    <glyph glyph-name="Scedilla" unicode="&#x15e;" horiz-adv-x="620" 
d="M522.5 312q41.5 -39 41.5 -97v-68q0 -70 -53 -112.5t-141 -42.5h-29l-20 -45h6q39 0 61.5 -19.5t22.5 -53.5v-10q0 -35 -26 -55t-71 -20h-48v39h47q25 0 39.5 10t14.5 26v10q0 17 -12.5 27t-34.5 10h-43v37l19 44h-40q-89 0 -141.5 53t-52.5 144h54q0 -68 38 -107.5
t103 -39.5h112q63 0 101.5 29t38.5 76v68q0 38 -28 65t-78 35l-179 30q-72 12 -112.5 52t-40.5 100v58q0 69 52 111t137 42h113q81 0 130.5 -49t49.5 -129h-54q0 58 -34.5 93.5t-91.5 35.5h-113q-61 0 -97.5 -28.5t-36.5 -75.5v-58q0 -40 27 -67t76 -35l178 -31
q74 -13 115.5 -52z" />
    <glyph glyph-name="Scircumflex" unicode="&#x15c;" horiz-adv-x="620" 
d="M114.5 45q-52.5 53 -52.5 144h54q0 -68 38 -107.5t103 -39.5h112q63 0 101.5 29t38.5 76v68q0 38 -28 65t-78 35l-179 30q-72 12 -112.5 52t-40.5 100v58q0 69 52 111t137 42h113q81 0 130.5 -49t49.5 -129h-54q0 58 -34.5 93.5t-91.5 35.5h-113q-61 0 -97.5 -28.5
t-36.5 -75.5v-58q0 -40 27 -67t76 -35l178 -31q74 -13 115.5 -52t41.5 -97v-68q0 -70 -53 -112.5t-141 -42.5h-114q-89 0 -141.5 53zM292 938h45l117 -152h-53l-86 114l-86 -114h-53z" />
    <glyph glyph-name="uni0218" unicode="&#x218;" horiz-adv-x="620" 
d="M114.5 45q-52.5 53 -52.5 144h54q0 -68 38 -107.5t103 -39.5h112q63 0 101.5 29t38.5 76v68q0 38 -28 65t-78 35l-179 30q-72 12 -112.5 52t-40.5 100v58q0 69 52 111t137 42h113q81 0 130.5 -49t49.5 -129h-54q0 58 -34.5 93.5t-91.5 35.5h-113q-61 0 -97.5 -28.5
t-36.5 -75.5v-58q0 -40 27 -67t76 -35l178 -31q74 -13 115.5 -52t41.5 -97v-68q0 -70 -53 -112.5t-141 -42.5h-114q-89 0 -141.5 53zM226 -222l12 8q33 22 47 46.5t14 60.5v29h54v-29q0 -52 -19.5 -87.5t-62.5 -61.5l-14 -9z" />
    <glyph glyph-name="uni1E60" unicode="&#x1e60;" horiz-adv-x="620" 
d="M114.5 45q-52.5 53 -52.5 144h54q0 -68 38 -107.5t103 -39.5h112q63 0 101.5 29t38.5 76v68q0 38 -28 65t-78 35l-179 30q-72 12 -112.5 52t-40.5 100v58q0 69 52 111t137 42h113q81 0 130.5 -49t49.5 -129h-54q0 58 -34.5 93.5t-91.5 35.5h-113q-61 0 -97.5 -28.5
t-36.5 -75.5v-58q0 -40 27 -67t76 -35l178 -31q74 -13 115.5 -52t41.5 -97v-68q0 -70 -53 -112.5t-141 -42.5h-114q-89 0 -141.5 53zM282 798.5q-13 12.5 -13 32.5t13 33t33 13t33 -13t13 -33t-13 -32.5t-33 -12.5t-33 12.5z" />
    <glyph glyph-name="uni1E62" unicode="&#x1e62;" horiz-adv-x="620" 
d="M114.5 45q-52.5 53 -52.5 144h54q0 -68 38 -107.5t103 -39.5h112q63 0 101.5 29t38.5 76v68q0 38 -28 65t-78 35l-179 30q-72 12 -112.5 52t-40.5 100v58q0 69 52 111t137 42h113q81 0 130.5 -49t49.5 -129h-54q0 58 -34.5 93.5t-91.5 35.5h-113q-61 0 -97.5 -28.5
t-36.5 -75.5v-58q0 -40 27 -67t76 -35l178 -31q74 -13 115.5 -52t41.5 -97v-68q0 -70 -53 -112.5t-141 -42.5h-114q-89 0 -141.5 53zM290 -159q-13 13 -13 33t13 32.5t33 12.5t33 -12.5t13 -32.5t-13 -33t-33 -13t-33 13z" />
    <glyph glyph-name="uni1E9E" unicode="&#x1e9e;" horiz-adv-x="646" 
d="M283.5 31.5q-40.5 39.5 -40.5 104.5h52q0 -44 25.5 -69.5t70.5 -25.5h50q48 0 75.5 33t27.5 89v30q0 50 -19.5 80t-58.5 43l-128 42v41l143 253h-202q-68 0 -107.5 -38t-39.5 -101v-513h-54v513q0 85 54.5 136t146.5 51h260v-48l-148 -261l104 -36q103 -35 103 -162v-30
q0 -79 -42 -125t-115 -46h-50q-67 0 -107.5 39.5z" />
    <glyph glyph-name="uni018F" unicode="&#x18f;" horiz-adv-x="693" 
d="M518 678.5q52 -29.5 80.5 -83.5t28.5 -124v-230q0 -74 -28.5 -130.5t-80.5 -87.5t-120 -31h-114q-65 0 -114.5 30.5t-76.5 86t-27 128.5v119h506v115q0 85 -47.5 136.5t-125.5 51.5h-106q-76 0 -122.5 -47t-46.5 -123h-55q0 65 28 115t79 77t117 27h106q67 0 119 -29.5z
M524 96.5q48 54.5 48 144.5v67h-451v-71q0 -88 45 -141.5t118 -53.5h114q78 0 126 54.5z" />
    <glyph glyph-name="T" unicode="T" horiz-adv-x="571" 
d="M258 652h-222v48h499v-48h-222v-652h-55v652z" />
    <glyph glyph-name="Tbar" unicode="&#x166;" horiz-adv-x="571" 
d="M313 652v-290h167v-46h-167v-316h-55v316h-167v46h167v290h-222v48h499v-48h-222z" />
    <glyph glyph-name="Tcaron" unicode="&#x164;" horiz-adv-x="571" 
d="M258 652h-222v48h499v-48h-222v-652h-55v652zM148 938h53l86 -114l86 114h53l-117 -152h-45z" />
    <glyph glyph-name="uni0162" unicode="&#x162;" horiz-adv-x="571" 
d="M308 0l-24 -53h7q39 0 61.5 -19.5t22.5 -53.5v-10q0 -34 -26.5 -54.5t-71.5 -20.5h-47v39h46q25 0 39.5 9.5t14.5 26.5v10q0 17 -12.5 27t-33.5 10h-44v37l23 52h-5v652h-222v48h499v-48h-222v-652h-5z" />
    <glyph glyph-name="uni021A" unicode="&#x21a;" horiz-adv-x="571" 
d="M258 652h-222v48h499v-48h-222v-652h-55v652zM190 -222l12 8q33 22 47 46.5t14 60.5v29h54v-29q0 -52 -19.5 -87.5t-62.5 -61.5l-14 -9z" />
    <glyph glyph-name="uni1E6C" unicode="&#x1e6c;" horiz-adv-x="571" 
d="M258 652h-222v48h499v-48h-222v-652h-55v652zM254 -159q-13 13 -13 33t13 32.5t33 12.5t33 -12.5t13 -32.5t-13 -33t-33 -13t-33 13z" />
    <glyph glyph-name="uni1E6E" unicode="&#x1e6e;" horiz-adv-x="571" 
d="M258 652h-222v48h499v-48h-222v-652h-55v652zM169 -82h237v-41h-237v41z" />
    <glyph glyph-name="U" unicode="U" horiz-adv-x="685" 
d="M180 19.5q-47 27.5 -72.5 78t-25.5 115.5v487h55v-488q0 -76 41.5 -123t109.5 -47h109q68 0 109.5 46.5t41.5 123.5v488h55v-487q0 -65 -25.5 -115.5t-72.5 -78t-108 -27.5h-109q-61 0 -108 27.5z" />
    <glyph glyph-name="Uacute" unicode="&#xda;" horiz-adv-x="685" 
d="M180 19.5q-47 27.5 -72.5 78t-25.5 115.5v487h55v-488q0 -76 41.5 -123t109.5 -47h109q68 0 109.5 46.5t41.5 123.5v488h55v-487q0 -65 -25.5 -115.5t-72.5 -78t-108 -27.5h-109q-61 0 -108 27.5zM399 930h62l-94 -144h-52z" />
    <glyph glyph-name="Ubreve" unicode="&#x16c;" horiz-adv-x="685" 
d="M180 19.5q-47 27.5 -72.5 78t-25.5 115.5v487h55v-488q0 -76 41.5 -123t109.5 -47h109q68 0 109.5 46.5t41.5 123.5v488h55v-487q0 -65 -25.5 -115.5t-72.5 -78t-108 -27.5h-109q-61 0 -108 27.5zM242.5 812q-35.5 34 -35.5 89v6h45v-6q0 -39 23 -61.5t62 -22.5h12
q39 0 62 22.5t23 61.5v6h45v-6q0 -55 -35.5 -89t-94.5 -34h-12q-59 0 -94.5 34z" />
    <glyph glyph-name="uni01D3" unicode="&#x1d3;" horiz-adv-x="685" 
d="M180 19.5q-47 27.5 -72.5 78t-25.5 115.5v487h55v-488q0 -76 41.5 -123t109.5 -47h109q68 0 109.5 46.5t41.5 123.5v488h55v-487q0 -65 -25.5 -115.5t-72.5 -78t-108 -27.5h-109q-61 0 -108 27.5zM204 938h53l86 -114l86 114h53l-117 -152h-45z" />
    <glyph glyph-name="Ucircumflex" unicode="&#xdb;" horiz-adv-x="685" 
d="M180 19.5q-47 27.5 -72.5 78t-25.5 115.5v487h55v-488q0 -76 41.5 -123t109.5 -47h109q68 0 109.5 46.5t41.5 123.5v488h55v-487q0 -65 -25.5 -115.5t-72.5 -78t-108 -27.5h-109q-61 0 -108 27.5zM320 938h45l117 -152h-53l-86 114l-86 -114h-53z" />
    <glyph glyph-name="Udieresis" unicode="&#xdc;" horiz-adv-x="685" 
d="M180 19.5q-47 27.5 -72.5 78t-25.5 115.5v487h55v-488q0 -76 41.5 -123t109.5 -47h109q68 0 109.5 46.5t41.5 123.5v488h55v-487q0 -65 -25.5 -115.5t-72.5 -78t-108 -27.5h-109q-61 0 -108 27.5zM219.5 797q-11.5 11 -11.5 30q0 18 11.5 29.5t29.5 11.5q19 0 30 -11.5
t11 -29.5q0 -19 -11 -30t-30 -11q-18 0 -29.5 11zM406.5 797q-11.5 11 -11.5 30q0 18 11.5 29.5t29.5 11.5q19 0 30 -11.5t11 -29.5q0 -19 -11 -30t-30 -11q-18 0 -29.5 11z" />
    <glyph glyph-name="uni01D7" unicode="&#x1d7;" horiz-adv-x="685" 
d="M180 19.5q-47 27.5 -72.5 78t-25.5 115.5v487h55v-488q0 -76 41.5 -123t109.5 -47h109q68 0 109.5 46.5t41.5 123.5v488h55v-487q0 -65 -25.5 -115.5t-72.5 -78t-108 -27.5h-109q-61 0 -108 27.5zM380 1025h55l-71 -107h-45zM219.5 797q-11.5 11 -11.5 30q0 18 11.5 29.5
t29.5 11.5q19 0 30 -11.5t11 -29.5q0 -19 -11 -30t-30 -11q-18 0 -29.5 11zM406.5 797q-11.5 11 -11.5 30q0 18 11.5 29.5t29.5 11.5q19 0 30 -11.5t11 -29.5q0 -19 -11 -30t-30 -11q-18 0 -29.5 11z" />
    <glyph glyph-name="uni01D9" unicode="&#x1d9;" horiz-adv-x="685" 
d="M180 19.5q-47 27.5 -72.5 78t-25.5 115.5v487h55v-488q0 -76 41.5 -123t109.5 -47h109q68 0 109.5 46.5t41.5 123.5v488h55v-487q0 -65 -25.5 -115.5t-72.5 -78t-108 -27.5h-109q-61 0 -108 27.5zM226 1031h48l69 -91l69 91h48l-97 -126h-40zM219.5 797
q-11.5 11 -11.5 30q0 18 11.5 29.5t29.5 11.5q19 0 30 -11.5t11 -29.5q0 -19 -11 -30t-30 -11q-18 0 -29.5 11zM406.5 797q-11.5 11 -11.5 30q0 18 11.5 29.5t29.5 11.5q19 0 30 -11.5t11 -29.5q0 -19 -11 -30t-30 -11q-18 0 -29.5 11z" />
    <glyph glyph-name="uni01DB" unicode="&#x1db;" horiz-adv-x="685" 
d="M180 19.5q-47 27.5 -72.5 78t-25.5 115.5v487h55v-488q0 -76 41.5 -123t109.5 -47h109q68 0 109.5 46.5t41.5 123.5v488h55v-487q0 -65 -25.5 -115.5t-72.5 -78t-108 -27.5h-109q-61 0 -108 27.5zM249 1025h55l61 -107h-45zM219.5 797q-11.5 11 -11.5 30q0 18 11.5 29.5
t29.5 11.5q19 0 30 -11.5t11 -29.5q0 -19 -11 -30t-30 -11q-18 0 -29.5 11zM406.5 797q-11.5 11 -11.5 30q0 18 11.5 29.5t29.5 11.5q19 0 30 -11.5t11 -29.5q0 -19 -11 -30t-30 -11q-18 0 -29.5 11z" />
    <glyph glyph-name="uni01D5" unicode="&#x1d5;" horiz-adv-x="685" 
d="M180 19.5q-47 27.5 -72.5 78t-25.5 115.5v487h55v-488q0 -76 41.5 -123t109.5 -47h109q68 0 109.5 46.5t41.5 123.5v488h55v-487q0 -65 -25.5 -115.5t-72.5 -78t-108 -27.5h-109q-61 0 -108 27.5zM225 968h236v-41h-236v41zM219.5 797q-11.5 11 -11.5 30q0 18 11.5 29.5
t29.5 11.5q19 0 30 -11.5t11 -29.5q0 -19 -11 -30t-30 -11q-18 0 -29.5 11zM406.5 797q-11.5 11 -11.5 30q0 18 11.5 29.5t29.5 11.5q19 0 30 -11.5t11 -29.5q0 -19 -11 -30t-30 -11q-18 0 -29.5 11z" />
    <glyph glyph-name="uni1EE4" unicode="&#x1ee4;" horiz-adv-x="685" 
d="M180 19.5q-47 27.5 -72.5 78t-25.5 115.5v487h55v-488q0 -76 41.5 -123t109.5 -47h109q68 0 109.5 46.5t41.5 123.5v488h55v-487q0 -65 -25.5 -115.5t-72.5 -78t-108 -27.5h-109q-61 0 -108 27.5zM310 -159q-13 13 -13 33t13 32.5t33 12.5t33 -12.5t13 -32.5t-13 -33
t-33 -13t-33 13z" />
    <glyph glyph-name="Ugrave" unicode="&#xd9;" horiz-adv-x="685" 
d="M180 19.5q-47 27.5 -72.5 78t-25.5 115.5v487h55v-488q0 -76 41.5 -123t109.5 -47h109q68 0 109.5 46.5t41.5 123.5v488h55v-487q0 -65 -25.5 -115.5t-72.5 -78t-108 -27.5h-109q-61 0 -108 27.5zM231 930h62l84 -144h-52z" />
    <glyph glyph-name="uni1EE6" unicode="&#x1ee6;" horiz-adv-x="685" 
d="M180 19.5q-47 27.5 -72.5 78t-25.5 115.5v487h55v-488q0 -76 41.5 -123t109.5 -47h109q68 0 109.5 46.5t41.5 123.5v488h55v-487q0 -65 -25.5 -115.5t-72.5 -78t-108 -27.5h-109q-61 0 -108 27.5zM316 789q0 19 11.5 31t32.5 25q19 13 27 20.5t8 19.5v11q0 35 -40 35h-22
q-44 0 -44 -44h-45q0 41 23 63t66 22h22q41 0 63.5 -19.5t22.5 -56.5v-11q0 -23 -12.5 -37t-34.5 -29q-15 -9 -22 -16t-7 -15v-14h-49v15z" />
    <glyph glyph-name="Uhorn" unicode="&#x1af;" horiz-adv-x="745" 
d="M744 700v-11q0 -76 -35.5 -118.5t-98.5 -42.5h-7v-315q0 -65 -25.5 -115.5t-72.5 -78t-108 -27.5h-109q-61 0 -108 27.5t-72.5 78t-25.5 115.5v487h55v-488q0 -76 41.5 -123t109.5 -47h109q68 0 109.5 46.5t41.5 123.5v488h55v-126h8q40 0 61 29.5t21 85.5v11h51z" />
    <glyph glyph-name="uni1EE8" unicode="&#x1ee8;" horiz-adv-x="745" 
d="M744 700v-11q0 -76 -35.5 -118.5t-98.5 -42.5h-7v-315q0 -65 -25.5 -115.5t-72.5 -78t-108 -27.5h-109q-61 0 -108 27.5t-72.5 78t-25.5 115.5v487h55v-488q0 -76 41.5 -123t109.5 -47h109q68 0 109.5 46.5t41.5 123.5v488h55v-126h8q40 0 61 29.5t21 85.5v11h51z
M399 930h62l-94 -144h-52z" />
    <glyph glyph-name="uni1EF0" unicode="&#x1ef0;" horiz-adv-x="745" 
d="M744 700v-11q0 -76 -35.5 -118.5t-98.5 -42.5h-7v-315q0 -65 -25.5 -115.5t-72.5 -78t-108 -27.5h-109q-61 0 -108 27.5t-72.5 78t-25.5 115.5v487h55v-488q0 -76 41.5 -123t109.5 -47h109q68 0 109.5 46.5t41.5 123.5v488h55v-126h8q40 0 61 29.5t21 85.5v11h51z
M310 -159q-13 13 -13 33t13 32.5t33 12.5t33 -12.5t13 -32.5t-13 -33t-33 -13t-33 13z" />
    <glyph glyph-name="uni1EEA" unicode="&#x1eea;" horiz-adv-x="745" 
d="M744 700v-11q0 -76 -35.5 -118.5t-98.5 -42.5h-7v-315q0 -65 -25.5 -115.5t-72.5 -78t-108 -27.5h-109q-61 0 -108 27.5t-72.5 78t-25.5 115.5v487h55v-488q0 -76 41.5 -123t109.5 -47h109q68 0 109.5 46.5t41.5 123.5v488h55v-126h8q40 0 61 29.5t21 85.5v11h51z
M231 930h62l84 -144h-52z" />
    <glyph glyph-name="uni1EEC" unicode="&#x1eec;" horiz-adv-x="745" 
d="M744 700v-11q0 -76 -35.5 -118.5t-98.5 -42.5h-7v-315q0 -65 -25.5 -115.5t-72.5 -78t-108 -27.5h-109q-61 0 -108 27.5t-72.5 78t-25.5 115.5v487h55v-488q0 -76 41.5 -123t109.5 -47h109q68 0 109.5 46.5t41.5 123.5v488h55v-126h8q40 0 61 29.5t21 85.5v11h51z
M316 789q0 19 11.5 31t32.5 25q19 13 27 20.5t8 19.5v11q0 35 -40 35h-22q-44 0 -44 -44h-45q0 41 23 63t66 22h22q41 0 63.5 -19.5t22.5 -56.5v-11q0 -23 -12.5 -37t-34.5 -29q-15 -9 -22 -16t-7 -15v-14h-49v15z" />
    <glyph glyph-name="uni1EEE" unicode="&#x1eee;" horiz-adv-x="745" 
d="M744 700v-11q0 -76 -35.5 -118.5t-98.5 -42.5h-7v-315q0 -65 -25.5 -115.5t-72.5 -78t-108 -27.5h-109q-61 0 -108 27.5t-72.5 78t-25.5 115.5v487h55v-488q0 -76 41.5 -123t109.5 -47h109q68 0 109.5 46.5t41.5 123.5v488h55v-126h8q40 0 61 29.5t21 85.5v11h51z
M364.5 787.5q-15.5 9.5 -33.5 27.5q-15 14 -24.5 20.5t-21.5 6.5h-11q-16 0 -27 -13t-12 -35h-44q1 40 24.5 64t58.5 24h11q25 0 41 -10t35 -29q14 -13 22.5 -19t19.5 -6h12q14 0 24.5 13.5t11.5 35.5h45q-1 -40 -23.5 -64.5t-57.5 -24.5h-12q-23 0 -38.5 9.5z" />
    <glyph glyph-name="Uhungarumlaut" unicode="&#x170;" horiz-adv-x="685" 
d="M180 19.5q-47 27.5 -72.5 78t-25.5 115.5v487h55v-488q0 -76 41.5 -123t109.5 -47h109q68 0 109.5 46.5t41.5 123.5v488h55v-487q0 -65 -25.5 -115.5t-72.5 -78t-108 -27.5h-109q-61 0 -108 27.5zM324 930h60l-87 -144h-47zM449 930h60l-86 -144h-47z" />
    <glyph glyph-name="Umacron" unicode="&#x16a;" horiz-adv-x="685" 
d="M180 19.5q-47 27.5 -72.5 78t-25.5 115.5v487h55v-488q0 -76 41.5 -123t109.5 -47h109q68 0 109.5 46.5t41.5 123.5v488h55v-487q0 -65 -25.5 -115.5t-72.5 -78t-108 -27.5h-109q-61 0 -108 27.5zM225 837h237v-41h-237v41z" />
    <glyph glyph-name="Uogonek" unicode="&#x172;" horiz-adv-x="685" 
d="M603 700v-487q0 -96 -53.5 -156.5t-141.5 -64.5q-26 -17 -40 -41t-14 -52v-10q0 -23 13 -36.5t36 -13.5h10q28 0 53 18v-43q-11 -8 -26 -12.5t-29 -4.5h-10q-44 0 -69 24t-25 66v11q0 27 13 52t36 42h-68q-61 0 -108 27.5t-72.5 78t-25.5 115.5v487h55v-488
q0 -76 41.5 -123t109.5 -47h109q68 0 109.5 46.5t41.5 123.5v488h55z" />
    <glyph glyph-name="Uring" unicode="&#x16e;" horiz-adv-x="685" 
d="M180 19.5q-47 27.5 -72.5 78t-25.5 115.5v487h55v-488q0 -76 41.5 -123t109.5 -47h109q68 0 109.5 46.5t41.5 123.5v488h55v-487q0 -65 -25.5 -115.5t-72.5 -78t-108 -27.5h-109q-61 0 -108 27.5zM270 791q-28 27 -28 71t28 71t73 27t73 -27t28 -71t-28 -71t-73 -27
t-73 27zM386.5 818.5q16.5 16.5 16.5 43.5t-16.5 43t-43.5 16t-43.5 -16t-16.5 -43t16.5 -43.5t43.5 -16.5t43.5 16.5z" />
    <glyph glyph-name="Utilde" unicode="&#x168;" horiz-adv-x="685" 
d="M180 19.5q-47 27.5 -72.5 78t-25.5 115.5v487h55v-488q0 -76 41.5 -123t109.5 -47h109q68 0 109.5 46.5t41.5 123.5v488h55v-487q0 -65 -25.5 -115.5t-72.5 -78t-108 -27.5h-109q-61 0 -108 27.5zM364.5 787.5q-15.5 9.5 -33.5 27.5q-15 14 -24.5 20.5t-21.5 6.5h-11
q-16 0 -27 -13t-12 -35h-44q1 40 24.5 64t58.5 24h11q25 0 41 -10t35 -29q14 -13 22.5 -19t19.5 -6h12q14 0 24.5 13.5t11.5 35.5h45q-1 -40 -23.5 -64.5t-57.5 -24.5h-12q-23 0 -38.5 9.5z" />
    <glyph glyph-name="V" unicode="V" horiz-adv-x="626" 
d="M270 36l-242 664h57l227 -632h1l228 632h57l-258 -700h-27q-30 0 -43 36z" />
    <glyph glyph-name="W" unicode="W" horiz-adv-x="836" 
d="M160 51l-120 649h55l113 -632h1l188 595h22q29 0 39 -33l169 -562h1l113 632h55l-120 -649q-5 -26 -17.5 -38.5t-34.5 -12.5h-24l-178 588h-1l-185 -588h-24q-43 0 -52 51z" />
    <glyph glyph-name="Wacute" unicode="&#x1e82;" horiz-adv-x="836" 
d="M160 51l-120 649h55l113 -632h1l188 595h22q29 0 39 -33l169 -562h1l113 632h55l-120 -649q-5 -26 -17.5 -38.5t-34.5 -12.5h-24l-178 588h-1l-185 -588h-24q-43 0 -52 51zM474 930h62l-94 -144h-52z" />
    <glyph glyph-name="Wcircumflex" unicode="&#x174;" horiz-adv-x="836" 
d="M160 51l-120 649h55l113 -632h1l188 595h22q29 0 39 -33l169 -562h1l113 632h55l-120 -649q-5 -26 -17.5 -38.5t-34.5 -12.5h-24l-178 588h-1l-185 -588h-24q-43 0 -52 51zM395 938h45l117 -152h-53l-86 114l-86 -114h-53z" />
    <glyph glyph-name="Wdieresis" unicode="&#x1e84;" horiz-adv-x="836" 
d="M160 51l-120 649h55l113 -632h1l188 595h22q29 0 39 -33l169 -562h1l113 632h55l-120 -649q-5 -26 -17.5 -38.5t-34.5 -12.5h-24l-178 588h-1l-185 -588h-24q-43 0 -52 51zM294.5 797q-11.5 11 -11.5 30q0 18 11.5 29.5t29.5 11.5q19 0 30 -11.5t11 -29.5q0 -19 -11 -30
t-30 -11q-18 0 -29.5 11zM481.5 797q-11.5 11 -11.5 30q0 18 11.5 29.5t29.5 11.5q19 0 30 -11.5t11 -29.5q0 -19 -11 -30t-30 -11q-18 0 -29.5 11z" />
    <glyph glyph-name="Wgrave" unicode="&#x1e80;" horiz-adv-x="836" 
d="M160 51l-120 649h55l113 -632h1l188 595h22q29 0 39 -33l169 -562h1l113 632h55l-120 -649q-5 -26 -17.5 -38.5t-34.5 -12.5h-24l-178 588h-1l-185 -588h-24q-43 0 -52 51zM306 930h62l84 -144h-52z" />
    <glyph glyph-name="X" unicode="X" horiz-adv-x="603" 
d="M271 357l-239 343h63l207 -297l207 297h62l-238 -343l248 -357h-62l-217 312l-217 -312h-63z" />
    <glyph glyph-name="Y" unicode="Y" horiz-adv-x="614" 
d="M280 268l-258 432h60l225 -382l226 382h59l-257 -432v-268h-55v268z" />
    <glyph glyph-name="Yacute" unicode="&#xdd;" horiz-adv-x="614" 
d="M280 268l-258 432h60l225 -382l226 382h59l-257 -432v-268h-55v268zM363 930h62l-94 -144h-52z" />
    <glyph glyph-name="Ycircumflex" unicode="&#x176;" horiz-adv-x="614" 
d="M280 268l-258 432h60l225 -382l226 382h59l-257 -432v-268h-55v268zM284 938h45l117 -152h-53l-86 114l-86 -114h-53z" />
    <glyph glyph-name="Ydieresis" unicode="&#x178;" horiz-adv-x="614" 
d="M280 268l-258 432h60l225 -382l226 382h59l-257 -432v-268h-55v268zM183.5 797q-11.5 11 -11.5 30q0 18 11.5 29.5t29.5 11.5q19 0 30 -11.5t11 -29.5q0 -19 -11 -30t-30 -11q-18 0 -29.5 11zM370.5 797q-11.5 11 -11.5 30q0 18 11.5 29.5t29.5 11.5q19 0 30 -11.5
t11 -29.5q0 -19 -11 -30t-30 -11q-18 0 -29.5 11z" />
    <glyph glyph-name="uni1E8E" unicode="&#x1e8e;" horiz-adv-x="614" 
d="M280 268l-258 432h60l225 -382l226 382h59l-257 -432v-268h-55v268zM274 798.5q-13 12.5 -13 32.5t13 33t33 13t33 -13t13 -33t-13 -32.5t-33 -12.5t-33 12.5z" />
    <glyph glyph-name="uni1EF4" unicode="&#x1ef4;" horiz-adv-x="614" 
d="M280 268l-258 432h60l225 -382l226 382h59l-257 -432v-268h-55v268zM274 -159q-13 13 -13 33t13 32.5t33 12.5t33 -12.5t13 -32.5t-13 -33t-33 -13t-33 13z" />
    <glyph glyph-name="Ygrave" unicode="&#x1ef2;" horiz-adv-x="614" 
d="M280 268l-258 432h60l225 -382l226 382h59l-257 -432v-268h-55v268zM195 930h62l84 -144h-52z" />
    <glyph glyph-name="uni1EF6" unicode="&#x1ef6;" horiz-adv-x="614" 
d="M280 268l-258 432h60l225 -382l226 382h59l-257 -432v-268h-55v268zM280 789q0 19 11.5 31t32.5 25q19 13 27 20.5t8 19.5v11q0 35 -40 35h-22q-44 0 -44 -44h-45q0 41 23 63t66 22h22q41 0 63.5 -19.5t22.5 -56.5v-11q0 -23 -12.5 -37t-34.5 -29q-15 -9 -22 -16t-7 -15
v-14h-49v15z" />
    <glyph glyph-name="uni1EF8" unicode="&#x1ef8;" horiz-adv-x="614" 
d="M280 268l-258 432h60l225 -382l226 382h59l-257 -432v-268h-55v268zM328.5 787.5q-15.5 9.5 -33.5 27.5q-15 14 -24.5 20.5t-21.5 6.5h-11q-16 0 -27 -13t-12 -35h-44q1 40 24.5 64t58.5 24h11q25 0 41 -10t35 -29q14 -13 22.5 -19t19.5 -6h12q14 0 24.5 13.5t11.5 35.5
h45q-1 -40 -23.5 -64.5t-57.5 -24.5h-12q-23 0 -38.5 9.5z" />
    <glyph glyph-name="Z" unicode="Z" horiz-adv-x="575" 
d="M48 26l403 627h-385v47h461v-25l-403 -627h393v-48h-469v26z" />
    <glyph glyph-name="Zacute" unicode="&#x179;" horiz-adv-x="575" 
d="M48 26l403 627h-385v47h461v-25l-403 -627h393v-48h-469v26zM344 930h62l-94 -144h-52z" />
    <glyph glyph-name="Zcaron" unicode="&#x17d;" horiz-adv-x="575" 
d="M48 26l403 627h-385v47h461v-25l-403 -627h393v-48h-469v26zM149 938h53l86 -114l86 114h53l-117 -152h-45z" />
    <glyph glyph-name="Zdotaccent" unicode="&#x17b;" horiz-adv-x="575" 
d="M48 26l403 627h-385v47h461v-25l-403 -627h393v-48h-469v26zM255 798.5q-13 12.5 -13 32.5t13 33t33 13t33 -13t13 -33t-13 -32.5t-33 -12.5t-33 12.5z" />
    <glyph glyph-name="uni1E92" unicode="&#x1e92;" horiz-adv-x="575" 
d="M48 26l403 627h-385v47h461v-25l-403 -627h393v-48h-469v26zM255 -159q-13 13 -13 33t13 32.5t33 12.5t33 -12.5t13 -32.5t-13 -33t-33 -13t-33 13z" />
    <glyph glyph-name="a" unicode="a" horiz-adv-x="548" 
d="M107 28.5q-42 36.5 -42 97.5v38q0 61 43 97t114 36h65q34 0 70.5 -11t62.5 -30v97q0 47 -29 77t-75 30h-78q-47 0 -76 -22t-29 -59h-54q0 58 44 93t115 35h78q71 0 113.5 -42t42.5 -112v-353h-51v78q-26 -40 -64 -63t-77 -23h-61q-70 0 -112 36.5zM281 40q42 0 80.5 30
t58.5 79v54q-22 21 -58.5 34t-74.5 13h-65q-47 0 -75 -23.5t-28 -62.5v-38q0 -39 27 -62.5t73 -23.5h62z" />
    <glyph glyph-name="aacute" unicode="&#xe1;" horiz-adv-x="548" 
d="M107 28.5q-42 36.5 -42 97.5v38q0 61 43 97t114 36h65q34 0 70.5 -11t62.5 -30v97q0 47 -29 77t-75 30h-78q-47 0 -76 -22t-29 -59h-54q0 58 44 93t115 35h78q71 0 113.5 -42t42.5 -112v-353h-51v78q-26 -40 -64 -63t-77 -23h-61q-70 0 -112 36.5zM281 40q42 0 80.5 30
t58.5 79v54q-22 21 -58.5 34t-74.5 13h-65q-47 0 -75 -23.5t-28 -62.5v-38q0 -39 27 -62.5t73 -23.5h62zM335 729h62l-94 -144h-52z" />
    <glyph glyph-name="abreve" unicode="&#x103;" horiz-adv-x="548" 
d="M107 28.5q-42 36.5 -42 97.5v38q0 61 43 97t114 36h65q34 0 70.5 -11t62.5 -30v97q0 47 -29 77t-75 30h-78q-47 0 -76 -22t-29 -59h-54q0 58 44 93t115 35h78q71 0 113.5 -42t42.5 -112v-353h-51v78q-26 -40 -64 -63t-77 -23h-61q-70 0 -112 36.5zM281 40q42 0 80.5 30
t58.5 79v54q-22 21 -58.5 34t-74.5 13h-65q-47 0 -75 -23.5t-28 -62.5v-38q0 -39 27 -62.5t73 -23.5h62zM178.5 611q-35.5 34 -35.5 89v6h45v-6q0 -39 23 -61.5t62 -22.5h12q39 0 62 22.5t23 61.5v6h45v-6q0 -55 -35.5 -89t-94.5 -34h-12q-59 0 -94.5 34z" />
    <glyph glyph-name="uni1EAF" unicode="&#x1eaf;" horiz-adv-x="548" 
d="M107 28.5q-42 36.5 -42 97.5v38q0 61 43 97t114 36h65q34 0 70.5 -11t62.5 -30v97q0 47 -29 77t-75 30h-78q-47 0 -76 -22t-29 -59h-54q0 58 44 93t115 35h78q71 0 113.5 -42t42.5 -112v-353h-51v78q-26 -40 -64 -63t-77 -23h-61q-70 0 -112 36.5zM281 40q42 0 80.5 30
t58.5 79v54q-22 21 -58.5 34t-74.5 13h-65q-47 0 -75 -23.5t-28 -62.5v-38q0 -39 27 -62.5t73 -23.5h62zM316 863h55l-71 -107h-45zM178.5 611q-35.5 34 -35.5 89v6h45v-6q0 -39 23 -61.5t62 -22.5h12q39 0 62 22.5t23 61.5v6h45v-6q0 -55 -35.5 -89t-94.5 -34h-12
q-59 0 -94.5 34z" />
    <glyph glyph-name="uni1EB7" unicode="&#x1eb7;" horiz-adv-x="548" 
d="M107 28.5q-42 36.5 -42 97.5v38q0 61 43 97t114 36h65q34 0 70.5 -11t62.5 -30v97q0 47 -29 77t-75 30h-78q-47 0 -76 -22t-29 -59h-54q0 58 44 93t115 35h78q71 0 113.5 -42t42.5 -112v-353h-51v78q-26 -40 -64 -63t-77 -23h-61q-70 0 -112 36.5zM281 40q42 0 80.5 30
t58.5 79v54q-22 21 -58.5 34t-74.5 13h-65q-47 0 -75 -23.5t-28 -62.5v-38q0 -39 27 -62.5t73 -23.5h62zM246 -163q-13 13 -13 33t13 32.5t33 12.5t33 -12.5t13 -32.5t-13 -33t-33 -13t-33 13zM178.5 611q-35.5 34 -35.5 89v6h45v-6q0 -39 23 -61.5t62 -22.5h12
q39 0 62 22.5t23 61.5v6h45v-6q0 -55 -35.5 -89t-94.5 -34h-12q-59 0 -94.5 34z" />
    <glyph glyph-name="uni1EB1" unicode="&#x1eb1;" horiz-adv-x="548" 
d="M107 28.5q-42 36.5 -42 97.5v38q0 61 43 97t114 36h65q34 0 70.5 -11t62.5 -30v97q0 47 -29 77t-75 30h-78q-47 0 -76 -22t-29 -59h-54q0 58 44 93t115 35h78q71 0 113.5 -42t42.5 -112v-353h-51v78q-26 -40 -64 -63t-77 -23h-61q-70 0 -112 36.5zM281 40q42 0 80.5 30
t58.5 79v54q-22 21 -58.5 34t-74.5 13h-65q-47 0 -75 -23.5t-28 -62.5v-38q0 -39 27 -62.5t73 -23.5h62zM187 863h55l61 -107h-45zM178.5 611q-35.5 34 -35.5 89v6h45v-6q0 -39 23 -61.5t62 -22.5h12q39 0 62 22.5t23 61.5v6h45v-6q0 -55 -35.5 -89t-94.5 -34h-12
q-59 0 -94.5 34z" />
    <glyph glyph-name="uni1EB3" unicode="&#x1eb3;" horiz-adv-x="548" 
d="M107 28.5q-42 36.5 -42 97.5v38q0 61 43 97t114 36h65q34 0 70.5 -11t62.5 -30v97q0 47 -29 77t-75 30h-78q-47 0 -76 -22t-29 -59h-54q0 58 44 93t115 35h78q71 0 113.5 -42t42.5 -112v-353h-51v78q-26 -40 -64 -63t-77 -23h-61q-70 0 -112 36.5zM281 40q42 0 80.5 30
t58.5 79v54q-22 21 -58.5 34t-74.5 13h-65q-47 0 -75 -23.5t-28 -62.5v-38q0 -39 27 -62.5t73 -23.5h62zM257 751q0 15 9.5 25t27.5 21q14 9 21.5 16t7.5 16v9q0 14 -8.5 21.5t-24.5 7.5h-16q-37 0 -37 -35h-38q0 70 75 70h16q35 0 54 -16.5t19 -47.5v-9q0 -19 -10 -30
t-29 -24q-12 -8 -18 -13t-6 -12v-9h-43v10zM178.5 611q-35.5 34 -35.5 89v6h45v-6q0 -39 23 -61.5t62 -22.5h12q39 0 62 22.5t23 61.5v6h45v-6q0 -55 -35.5 -89t-94.5 -34h-12q-59 0 -94.5 34z" />
    <glyph glyph-name="uni1EB5" unicode="&#x1eb5;" horiz-adv-x="548" 
d="M107 28.5q-42 36.5 -42 97.5v38q0 61 43 97t114 36h65q34 0 70.5 -11t62.5 -30v97q0 47 -29 77t-75 30h-78q-47 0 -76 -22t-29 -59h-54q0 58 44 93t115 35h78q71 0 113.5 -42t42.5 -112v-353h-51v78q-26 -40 -64 -63t-77 -23h-61q-70 0 -112 36.5zM281 40q42 0 80.5 30
t58.5 79v54q-22 21 -58.5 34t-74.5 13h-65q-47 0 -75 -23.5t-28 -62.5v-38q0 -39 27 -62.5t73 -23.5h62zM298 760q-13 8 -29 24q-12 12 -20 17.5t-18 5.5h-10q-13 0 -21.5 -11.5t-10.5 -29.5h-38q1 34 20.5 55t49.5 21h10q21 0 35 -8.5t30 -24.5q11 -11 19 -16.5t17 -5.5h9
q12 0 20.5 11.5t9.5 30.5h39q-2 -35 -20.5 -56t-48.5 -21h-9q-21 0 -34 8zM178.5 611q-35.5 34 -35.5 89v6h45v-6q0 -39 23 -61.5t62 -22.5h12q39 0 62 22.5t23 61.5v6h45v-6q0 -55 -35.5 -89t-94.5 -34h-12q-59 0 -94.5 34z" />
    <glyph glyph-name="uni01CE" unicode="&#x1ce;" horiz-adv-x="548" 
d="M107 28.5q-42 36.5 -42 97.5v38q0 61 43 97t114 36h65q34 0 70.5 -11t62.5 -30v97q0 47 -29 77t-75 30h-78q-47 0 -76 -22t-29 -59h-54q0 58 44 93t115 35h78q71 0 113.5 -42t42.5 -112v-353h-51v78q-26 -40 -64 -63t-77 -23h-61q-70 0 -112 36.5zM281 40q42 0 80.5 30
t58.5 79v54q-22 21 -58.5 34t-74.5 13h-65q-47 0 -75 -23.5t-28 -62.5v-38q0 -39 27 -62.5t73 -23.5h62zM140 737h53l86 -114l86 114h53l-117 -152h-45z" />
    <glyph glyph-name="acircumflex" unicode="&#xe2;" horiz-adv-x="548" 
d="M107 28.5q-42 36.5 -42 97.5v38q0 61 43 97t114 36h65q34 0 70.5 -11t62.5 -30v97q0 47 -29 77t-75 30h-78q-47 0 -76 -22t-29 -59h-54q0 58 44 93t115 35h78q71 0 113.5 -42t42.5 -112v-353h-51v78q-26 -40 -64 -63t-77 -23h-61q-70 0 -112 36.5zM281 40q42 0 80.5 30
t58.5 79v54q-22 21 -58.5 34t-74.5 13h-65q-47 0 -75 -23.5t-28 -62.5v-38q0 -39 27 -62.5t73 -23.5h62zM256 737h45l117 -152h-53l-86 114l-86 -114h-53z" />
    <glyph glyph-name="uni1EA5" unicode="&#x1ea5;" horiz-adv-x="548" 
d="M107 28.5q-42 36.5 -42 97.5v38q0 61 43 97t114 36h65q34 0 70.5 -11t62.5 -30v97q0 47 -29 77t-75 30h-78q-47 0 -76 -22t-29 -59h-54q0 58 44 93t115 35h78q71 0 113.5 -42t42.5 -112v-353h-51v78q-26 -40 -64 -63t-77 -23h-61q-70 0 -112 36.5zM281 40q42 0 80.5 30
t58.5 79v54q-22 21 -58.5 34t-74.5 13h-65q-47 0 -75 -23.5t-28 -62.5v-38q0 -39 27 -62.5t73 -23.5h62zM441 839h55l-71 -107h-45zM256 737h45l117 -152h-53l-86 114l-86 -114h-53z" />
    <glyph glyph-name="uni1EAD" unicode="&#x1ead;" horiz-adv-x="548" 
d="M107 28.5q-42 36.5 -42 97.5v38q0 61 43 97t114 36h65q34 0 70.5 -11t62.5 -30v97q0 47 -29 77t-75 30h-78q-47 0 -76 -22t-29 -59h-54q0 58 44 93t115 35h78q71 0 113.5 -42t42.5 -112v-353h-51v78q-26 -40 -64 -63t-77 -23h-61q-70 0 -112 36.5zM281 40q42 0 80.5 30
t58.5 79v54q-22 21 -58.5 34t-74.5 13h-65q-47 0 -75 -23.5t-28 -62.5v-38q0 -39 27 -62.5t73 -23.5h62zM246 -163q-13 13 -13 33t13 32.5t33 12.5t33 -12.5t13 -32.5t-13 -33t-33 -13t-33 13zM256 737h45l117 -152h-53l-86 114l-86 -114h-53z" />
    <glyph glyph-name="uni1EA7" unicode="&#x1ea7;" horiz-adv-x="548" 
d="M107 28.5q-42 36.5 -42 97.5v38q0 61 43 97t114 36h65q34 0 70.5 -11t62.5 -30v97q0 47 -29 77t-75 30h-78q-47 0 -76 -22t-29 -59h-54q0 58 44 93t115 35h78q71 0 113.5 -42t42.5 -112v-353h-51v78q-26 -40 -64 -63t-77 -23h-61q-70 0 -112 36.5zM281 40q42 0 80.5 30
t58.5 79v54q-22 21 -58.5 34t-74.5 13h-65q-47 0 -75 -23.5t-28 -62.5v-38q0 -39 27 -62.5t73 -23.5h62zM333 839h54l61 -107h-45zM256 737h45l117 -152h-53l-86 114l-86 -114h-53z" />
    <glyph glyph-name="uni1EA9" unicode="&#x1ea9;" horiz-adv-x="548" 
d="M107 28.5q-42 36.5 -42 97.5v38q0 61 43 97t114 36h65q34 0 70.5 -11t62.5 -30v97q0 47 -29 77t-75 30h-78q-47 0 -76 -22t-29 -59h-54q0 58 44 93t115 35h78q71 0 113.5 -42t42.5 -112v-353h-51v78q-26 -40 -64 -63t-77 -23h-61q-70 0 -112 36.5zM281 40q42 0 80.5 30
t58.5 79v54q-22 21 -58.5 34t-74.5 13h-65q-47 0 -75 -23.5t-28 -62.5v-38q0 -39 27 -62.5t73 -23.5h62zM386 732q0 15 9 24.5t27 20.5q15 10 22 17t7 17v8q0 28 -32 28h-16q-37 0 -37 -34h-39q0 70 76 70h16q35 0 53.5 -16.5t18.5 -47.5v-8q0 -19 -10.5 -30.5t-29.5 -24.5
q-12 -8 -17.5 -13t-5.5 -12v-9h-42v10zM256 737h45l117 -152h-53l-86 114l-86 -114h-53z" />
    <glyph glyph-name="uni1EAB" unicode="&#x1eab;" horiz-adv-x="548" 
d="M107 28.5q-42 36.5 -42 97.5v38q0 61 43 97t114 36h65q34 0 70.5 -11t62.5 -30v97q0 47 -29 77t-75 30h-78q-47 0 -76 -22t-29 -59h-54q0 58 44 93t115 35h78q71 0 113.5 -42t42.5 -112v-353h-51v78q-26 -40 -64 -63t-77 -23h-61q-70 0 -112 36.5zM281 40q42 0 80.5 30
t58.5 79v54q-22 21 -58.5 34t-74.5 13h-65q-47 0 -75 -23.5t-28 -62.5v-38q0 -39 27 -62.5t73 -23.5h62zM298 787.5q-13 8.5 -29 23.5q-12 12 -20 17.5t-18 5.5h-10q-13 0 -21.5 -11.5t-10.5 -29.5h-38q1 34 20.5 55t49.5 21h10q21 0 35 -8.5t30 -24.5q11 -12 19 -17t17 -5
h9q12 0 20.5 11.5t9.5 30.5h39q-2 -35 -20.5 -56t-48.5 -21h-9q-21 0 -34 8.5zM256 737h45l117 -152h-53l-86 114l-86 -114h-53z" />
    <glyph glyph-name="adieresis" unicode="&#xe4;" horiz-adv-x="548" 
d="M107 28.5q-42 36.5 -42 97.5v38q0 61 43 97t114 36h65q34 0 70.5 -11t62.5 -30v97q0 47 -29 77t-75 30h-78q-47 0 -76 -22t-29 -59h-54q0 58 44 93t115 35h78q71 0 113.5 -42t42.5 -112v-353h-51v78q-26 -40 -64 -63t-77 -23h-61q-70 0 -112 36.5zM281 40q42 0 80.5 30
t58.5 79v54q-22 21 -58.5 34t-74.5 13h-65q-47 0 -75 -23.5t-28 -62.5v-38q0 -39 27 -62.5t73 -23.5h62zM155.5 596q-11.5 11 -11.5 30q0 18 11.5 29.5t29.5 11.5q19 0 30 -11.5t11 -29.5q0 -19 -11 -30t-30 -11q-18 0 -29.5 11zM342.5 596q-11.5 11 -11.5 30
q0 18 11.5 29.5t29.5 11.5q19 0 30 -11.5t11 -29.5q0 -19 -11 -30t-30 -11q-18 0 -29.5 11z" />
    <glyph glyph-name="uni1EA1" unicode="&#x1ea1;" horiz-adv-x="548" 
d="M107 28.5q-42 36.5 -42 97.5v38q0 61 43 97t114 36h65q34 0 70.5 -11t62.5 -30v97q0 47 -29 77t-75 30h-78q-47 0 -76 -22t-29 -59h-54q0 58 44 93t115 35h78q71 0 113.5 -42t42.5 -112v-353h-51v78q-26 -40 -64 -63t-77 -23h-61q-70 0 -112 36.5zM281 40q42 0 80.5 30
t58.5 79v54q-22 21 -58.5 34t-74.5 13h-65q-47 0 -75 -23.5t-28 -62.5v-38q0 -39 27 -62.5t73 -23.5h62zM246 -163q-13 13 -13 33t13 32.5t33 12.5t33 -12.5t13 -32.5t-13 -33t-33 -13t-33 13z" />
    <glyph glyph-name="agrave" unicode="&#xe0;" horiz-adv-x="548" 
d="M107 28.5q-42 36.5 -42 97.5v38q0 61 43 97t114 36h65q34 0 70.5 -11t62.5 -30v97q0 47 -29 77t-75 30h-78q-47 0 -76 -22t-29 -59h-54q0 58 44 93t115 35h78q71 0 113.5 -42t42.5 -112v-353h-51v78q-26 -40 -64 -63t-77 -23h-61q-70 0 -112 36.5zM281 40q42 0 80.5 30
t58.5 79v54q-22 21 -58.5 34t-74.5 13h-65q-47 0 -75 -23.5t-28 -62.5v-38q0 -39 27 -62.5t73 -23.5h62zM167 729h62l84 -144h-52z" />
    <glyph glyph-name="uni1EA3" unicode="&#x1ea3;" horiz-adv-x="548" 
d="M107 28.5q-42 36.5 -42 97.5v38q0 61 43 97t114 36h65q34 0 70.5 -11t62.5 -30v97q0 47 -29 77t-75 30h-78q-47 0 -76 -22t-29 -59h-54q0 58 44 93t115 35h78q71 0 113.5 -42t42.5 -112v-353h-51v78q-26 -40 -64 -63t-77 -23h-61q-70 0 -112 36.5zM281 40q42 0 80.5 30
t58.5 79v54q-22 21 -58.5 34t-74.5 13h-65q-47 0 -75 -23.5t-28 -62.5v-38q0 -39 27 -62.5t73 -23.5h62zM252 588q0 19 11.5 31t32.5 25q19 13 27 20.5t8 19.5v11q0 35 -40 35h-22q-44 0 -44 -44h-45q0 41 23 63t66 22h22q41 0 63.5 -19.5t22.5 -56.5v-11q0 -23 -12.5 -37
t-34.5 -29q-15 -9 -22 -16t-7 -15v-14h-49v15z" />
    <glyph glyph-name="uni0251" unicode="&#x251;" horiz-adv-x="575" 
d="M108 43q-46 51 -46 135v134q0 89 48 142t127 53h76q36 0 70 -19t53 -51v62h52v-394q0 -57 50 -57h21v-48h-26q-81 0 -92 78h-1q-26 -40 -64.5 -63t-79.5 -23h-67q-75 0 -121 51zM298 40q47 0 86.5 38t51.5 91v174q-10 52 -43.5 84t-78.5 32h-76q-55 0 -88.5 -40
t-33.5 -107v-134q0 -62 31.5 -100t82.5 -38h68z" />
    <glyph glyph-name="amacron" unicode="&#x101;" horiz-adv-x="548" 
d="M107 28.5q-42 36.5 -42 97.5v38q0 61 43 97t114 36h65q34 0 70.5 -11t62.5 -30v97q0 47 -29 77t-75 30h-78q-47 0 -76 -22t-29 -59h-54q0 58 44 93t115 35h78q71 0 113.5 -42t42.5 -112v-353h-51v78q-26 -40 -64 -63t-77 -23h-61q-70 0 -112 36.5zM281 40q42 0 80.5 30
t58.5 79v54q-22 21 -58.5 34t-74.5 13h-65q-47 0 -75 -23.5t-28 -62.5v-38q0 -39 27 -62.5t73 -23.5h62zM161 636h237v-41h-237v41z" />
    <glyph glyph-name="aogonek" unicode="&#x105;" horiz-adv-x="548" 
d="M492 -156q14 5 25 13v-43q-10 -8 -25 -12.5t-30 -4.5h-10q-43 0 -68.5 24.5t-25.5 65.5v11q0 31 17.5 59t45.5 43v78q-26 -40 -64 -63t-77 -23h-61q-70 0 -112 36.5t-42 97.5v38q0 61 43 97t114 36h65q34 0 70.5 -11t62.5 -30v97q0 47 -29 77t-75 30h-78q-47 0 -76 -22
t-29 -59h-54q0 58 44 93t115 35h78q71 0 113.5 -42t42.5 -112v-353q-31 -17 -48.5 -43t-17.5 -58v-10q0 -23 13 -36.5t36 -13.5h10q13 0 27 5zM420 203q-22 21 -58.5 34t-74.5 13h-65q-47 0 -75 -23.5t-28 -62.5v-38q0 -39 27 -62.5t73 -23.5h62q42 0 80.5 30t58.5 79v54z
" />
    <glyph glyph-name="aring" unicode="&#xe5;" horiz-adv-x="548" 
d="M107 28.5q-42 36.5 -42 97.5v38q0 61 43 97t114 36h65q34 0 70.5 -11t62.5 -30v97q0 47 -29 77t-75 30h-78q-47 0 -76 -22t-29 -59h-54q0 58 44 93t115 35h78q71 0 113.5 -42t42.5 -112v-353h-51v78q-26 -40 -64 -63t-77 -23h-61q-70 0 -112 36.5zM281 40q42 0 80.5 30
t58.5 79v54q-22 21 -58.5 34t-74.5 13h-65q-47 0 -75 -23.5t-28 -62.5v-38q0 -39 27 -62.5t73 -23.5h62zM206 590q-28 27 -28 71t28 71t73 27t73 -27t28 -71t-28 -71t-73 -27t-73 27zM322.5 617.5q16.5 16.5 16.5 43.5t-16.5 43t-43.5 16t-43.5 -16t-16.5 -43t16.5 -43.5
t43.5 -16.5t43.5 16.5z" />
    <glyph glyph-name="aringacute" unicode="&#x1fb;" horiz-adv-x="548" 
d="M107 28.5q-42 36.5 -42 97.5v38q0 61 43 97t114 36h65q34 0 70.5 -11t62.5 -30v97q0 47 -29 77t-75 30h-78q-47 0 -76 -22t-29 -59h-54q0 58 44 93t115 35h78q71 0 113.5 -42t42.5 -112v-353h-51v78q-26 -40 -64 -63t-77 -23h-61q-70 0 -112 36.5zM281 40q42 0 80.5 30
t58.5 79v54q-22 21 -58.5 34t-74.5 13h-65q-47 0 -75 -23.5t-28 -62.5v-38q0 -39 27 -62.5t73 -23.5h62zM206 590q-28 27 -28 71t28 71t73 27t73 -27t28 -71t-28 -71t-73 -27t-73 27zM322.5 617.5q16.5 16.5 16.5 43.5t-16.5 43t-43.5 16t-43.5 -16t-16.5 -43t16.5 -43.5
t43.5 -16.5t43.5 16.5zM335 956h62l-94 -144h-52z" />
    <glyph glyph-name="atilde" unicode="&#xe3;" horiz-adv-x="548" 
d="M107 28.5q-42 36.5 -42 97.5v38q0 61 43 97t114 36h65q34 0 70.5 -11t62.5 -30v97q0 47 -29 77t-75 30h-78q-47 0 -76 -22t-29 -59h-54q0 58 44 93t115 35h78q71 0 113.5 -42t42.5 -112v-353h-51v78q-26 -40 -64 -63t-77 -23h-61q-70 0 -112 36.5zM281 40q42 0 80.5 30
t58.5 79v54q-22 21 -58.5 34t-74.5 13h-65q-47 0 -75 -23.5t-28 -62.5v-38q0 -39 27 -62.5t73 -23.5h62zM300.5 586.5q-15.5 9.5 -33.5 27.5q-15 14 -24.5 20.5t-21.5 6.5h-11q-16 0 -27 -13t-12 -35h-44q1 40 24.5 64t58.5 24h11q25 0 41 -10t35 -29q14 -13 22.5 -19
t19.5 -6h12q14 0 24.5 13.5t11.5 35.5h45q-1 -40 -23.5 -64.5t-57.5 -24.5h-12q-23 0 -38.5 9.5z" />
    <glyph glyph-name="ae" unicode="&#xe6;" horiz-adv-x="898" 
d="M107.5 29q-42.5 37 -42.5 97v38q0 61 43 97.5t115 36.5h65q34 0 70.5 -11.5t62.5 -30.5v97q0 47 -29 76.5t-75 29.5h-78q-47 0 -76.5 -22t-29.5 -58h-54q0 58 44 93t116 35h78q46 0 81.5 -21t53.5 -57h1q21 37 59 57.5t84 20.5h77q76 0 122.5 -49.5t46.5 -131.5v-84h-368
v-76q0 -57 33.5 -91.5t89.5 -34.5h71q54 0 86.5 31.5t32.5 82.5h53q0 -73 -47.5 -117.5t-124.5 -44.5h-71q-53 0 -94.5 25t-60.5 69h-1q-33 -48 -75.5 -71t-84.5 -23h-61q-70 0 -112.5 37zM788 288v38q0 60 -31.5 96.5t-83.5 36.5h-77q-55 0 -88.5 -37.5t-33.5 -99.5v-34
h314zM282 40q43 0 82 31t57 81v51q-22 21 -58.5 34t-74.5 13h-65q-48 0 -76 -23t-28 -63v-38q0 -39 27.5 -62.5t73.5 -23.5h62z" />
    <glyph glyph-name="aeacute" unicode="&#x1fd;" horiz-adv-x="898" 
d="M107.5 29q-42.5 37 -42.5 97v38q0 61 43 97.5t115 36.5h65q34 0 70.5 -11.5t62.5 -30.5v97q0 47 -29 76.5t-75 29.5h-78q-47 0 -76.5 -22t-29.5 -58h-54q0 58 44 93t116 35h78q46 0 81.5 -21t53.5 -57h1q21 37 59 57.5t84 20.5h77q76 0 122.5 -49.5t46.5 -131.5v-84h-368
v-76q0 -57 33.5 -91.5t89.5 -34.5h71q54 0 86.5 31.5t32.5 82.5h53q0 -73 -47.5 -117.5t-124.5 -44.5h-71q-53 0 -94.5 25t-60.5 69h-1q-33 -48 -75.5 -71t-84.5 -23h-61q-70 0 -112.5 37zM788 288v38q0 60 -31.5 96.5t-83.5 36.5h-77q-55 0 -88.5 -37.5t-33.5 -99.5v-34
h314zM282 40q43 0 82 31t57 81v51q-22 21 -58.5 34t-74.5 13h-65q-48 0 -76 -23t-28 -63v-38q0 -39 27.5 -62.5t73.5 -23.5h62zM514 729h62l-94 -144h-52z" />
    <glyph glyph-name="b" unicode="b" horiz-adv-x="571" 
d="M194.5 15.5q-37.5 23.5 -60.5 59.5v-75h-52v700h54v-271q22 36 58.5 57t78.5 21h70q74 0 120 -50t46 -132v-140q0 -86 -47.5 -139.5t-124.5 -53.5h-69q-36 0 -73.5 23.5zM336 40q53 0 86.5 40t33.5 105v140q0 60 -31.5 97t-82.5 37h-67q-57 0 -95.5 -39.5t-43.5 -103.5
v-150q9 -51 47.5 -88.5t84.5 -37.5h68z" />
    <glyph glyph-name="c" unicode="c" horiz-adv-x="529" 
d="M109.5 40.5q-47.5 48.5 -47.5 127.5v154q0 83 47.5 134t124.5 51h82q73 0 117.5 -40t44.5 -105h-52q0 44 -30.5 70.5t-79.5 26.5h-82q-53 0 -85.5 -37.5t-32.5 -99.5v-154q0 -58 32.5 -93t86.5 -35h82q50 0 81 35t31 92h52q0 -79 -45 -127t-119 -48h-82
q-78 0 -125.5 48.5z" />
    <glyph glyph-name="cacute" unicode="&#x107;" horiz-adv-x="529" 
d="M109.5 40.5q-47.5 48.5 -47.5 127.5v154q0 83 47.5 134t124.5 51h82q73 0 117.5 -40t44.5 -105h-52q0 44 -30.5 70.5t-79.5 26.5h-82q-53 0 -85.5 -37.5t-32.5 -99.5v-154q0 -58 32.5 -93t86.5 -35h82q50 0 81 35t31 92h52q0 -79 -45 -127t-119 -48h-82
q-78 0 -125.5 48.5zM330 729h62l-94 -144h-52z" />
    <glyph glyph-name="ccaron" unicode="&#x10d;" horiz-adv-x="529" 
d="M109.5 40.5q-47.5 48.5 -47.5 127.5v154q0 83 47.5 134t124.5 51h82q73 0 117.5 -40t44.5 -105h-52q0 44 -30.5 70.5t-79.5 26.5h-82q-53 0 -85.5 -37.5t-32.5 -99.5v-154q0 -58 32.5 -93t86.5 -35h82q50 0 81 35t31 92h52q0 -79 -45 -127t-119 -48h-82
q-78 0 -125.5 48.5zM135 737h53l86 -114l86 114h53l-117 -152h-45z" />
    <glyph glyph-name="ccedilla" unicode="&#xe7;" horiz-adv-x="529" 
d="M291 -8l-20 -45h7q39 0 61.5 -19.5t22.5 -53.5v-10q0 -34 -26.5 -54.5t-71.5 -20.5h-47v39h46q25 0 39.5 9.5t14.5 26.5v10q0 17 -12.5 27t-33.5 10h-44v37l19 44h-11q-78 0 -125.5 48.5t-47.5 127.5v154q0 83 47.5 134t124.5 51h82q73 0 117.5 -40t44.5 -105h-52
q0 44 -30.5 70.5t-79.5 26.5h-82q-53 0 -85.5 -37.5t-32.5 -99.5v-154q0 -58 32.5 -93t86.5 -35h82q50 0 81 35t31 92h52q0 -79 -45 -127t-119 -48h-26z" />
    <glyph glyph-name="ccircumflex" unicode="&#x109;" horiz-adv-x="529" 
d="M109.5 40.5q-47.5 48.5 -47.5 127.5v154q0 83 47.5 134t124.5 51h82q73 0 117.5 -40t44.5 -105h-52q0 44 -30.5 70.5t-79.5 26.5h-82q-53 0 -85.5 -37.5t-32.5 -99.5v-154q0 -58 32.5 -93t86.5 -35h82q50 0 81 35t31 92h52q0 -79 -45 -127t-119 -48h-82
q-78 0 -125.5 48.5zM251 737h45l117 -152h-53l-86 114l-86 -114h-53z" />
    <glyph glyph-name="cdotaccent" unicode="&#x10b;" horiz-adv-x="529" 
d="M109.5 40.5q-47.5 48.5 -47.5 127.5v154q0 83 47.5 134t124.5 51h82q73 0 117.5 -40t44.5 -105h-52q0 44 -30.5 70.5t-79.5 26.5h-82q-53 0 -85.5 -37.5t-32.5 -99.5v-154q0 -58 32.5 -93t86.5 -35h82q50 0 81 35t31 92h52q0 -79 -45 -127t-119 -48h-82
q-78 0 -125.5 48.5zM241 597.5q-13 12.5 -13 32.5t13 33t33 13t33 -13t13 -33t-13 -32.5t-33 -12.5t-33 12.5z" />
    <glyph glyph-name="d" unicode="d" horiz-adv-x="570" 
d="M108 43.5q-46 51.5 -46 135.5v134q0 87 48.5 140.5t127.5 53.5h76q35 0 68.5 -18.5t53.5 -49.5v261h53v-700h-52v84q-25 -43 -61.5 -67.5t-76.5 -24.5h-71q-74 0 -120 51.5zM298 40q47 0 87 41.5t51 100.5v162q-10 51 -44 83t-79 32h-74q-56 0 -89.5 -40t-33.5 -106v-134
q0 -62 31.5 -100.5t81.5 -38.5h69z" />
    <glyph glyph-name="eth" unicode="&#xf0;" horiz-adv-x="581" 
d="M493.5 587.5q31.5 -84.5 31.5 -216.5v-159q0 -65 -25.5 -115t-71.5 -77.5t-106 -27.5h-72q-57 0 -101 25t-68.5 70t-24.5 104v116q0 62 24 109t67.5 73t100.5 26h71q49 0 90 -24.5t64 -67.5h1q-5 98 -31 159.5t-77 93.5l-60 -77h-54l75 96q-53 19 -129 19h-24v48h24
q94 0 160 -27l44 57h54l-60 -77q66 -43 97.5 -127.5zM472 291q0 49 -20.5 89t-56 63.5t-79.5 23.5h-67q-63 0 -101 -44t-38 -116v-117q0 -67 39 -108.5t103 -41.5h68q68 0 110 47t42 123v81z" />
    <glyph glyph-name="dcaron" unicode="&#x10f;" horiz-adv-x="713" 
d="M108 43.5q-46 51.5 -46 135.5v134q0 87 48.5 140.5t127.5 53.5h76q35 0 68.5 -18.5t53.5 -49.5v261h53v-700h-52v84q-25 -43 -61.5 -67.5t-76.5 -24.5h-71q-74 0 -120 51.5zM298 40q47 0 87 41.5t51 100.5v162q-10 51 -44 83t-79 32h-74q-56 0 -89.5 -40t-33.5 -106v-134
q0 -62 31.5 -100.5t81.5 -38.5h69zM565 558l12 8q32 21 46 46t14 61v27h54v-27q0 -52 -19 -87.5t-62 -61.5l-14 -9z" />
    <glyph glyph-name="dcroat" unicode="&#x111;" horiz-adv-x="592" 
d="M568 582h-79v-582h-52v84q-25 -43 -61.5 -67.5t-76.5 -24.5h-71q-74 0 -120 51.5t-46 135.5v134q0 87 48.5 140.5t127.5 53.5h76q35 0 68.5 -18.5t53.5 -49.5v143h-162v45h162v73h53v-73h79v-45zM436 344q-10 51 -44 83t-79 32h-74q-56 0 -89.5 -40t-33.5 -106v-134
q0 -62 31.5 -100.5t81.5 -38.5h69q47 0 87 41.5t51 100.5v162z" />
    <glyph glyph-name="uni1E0D" unicode="&#x1e0d;" horiz-adv-x="570" 
d="M108 43.5q-46 51.5 -46 135.5v134q0 87 48.5 140.5t127.5 53.5h76q35 0 68.5 -18.5t53.5 -49.5v261h53v-700h-52v84q-25 -43 -61.5 -67.5t-76.5 -24.5h-71q-74 0 -120 51.5zM298 40q47 0 87 41.5t51 100.5v162q-10 51 -44 83t-79 32h-74q-56 0 -89.5 -40t-33.5 -106v-134
q0 -62 31.5 -100.5t81.5 -38.5h69zM248 -159q-13 13 -13 33t13 32.5t33 12.5t33 -12.5t13 -32.5t-13 -33t-33 -13t-33 13z" />
    <glyph glyph-name="uni1E0F" unicode="&#x1e0f;" horiz-adv-x="570" 
d="M108 43.5q-46 51.5 -46 135.5v134q0 87 48.5 140.5t127.5 53.5h76q35 0 68.5 -18.5t53.5 -49.5v261h53v-700h-52v84q-25 -43 -61.5 -67.5t-76.5 -24.5h-71q-74 0 -120 51.5zM298 40q47 0 87 41.5t51 100.5v162q-10 51 -44 83t-79 32h-74q-56 0 -89.5 -40t-33.5 -106v-134
q0 -62 31.5 -100.5t81.5 -38.5h69zM163 -82h237v-41h-237v41z" />
    <glyph glyph-name="e" unicode="e" horiz-adv-x="545" 
d="M110.5 40q-48.5 48 -48.5 127v155q0 83 48.5 134t127.5 51h82q76 0 122.5 -49.5t46.5 -131.5v-84h-373v-75q0 -57 33.5 -92t88.5 -35h76q54 0 87.5 31.5t33.5 82.5h52q0 -73 -47.5 -117.5t-125.5 -44.5h-76q-79 0 -127.5 48zM436 288v38q0 60 -32 96.5t-84 36.5h-82
q-55 0 -88.5 -38t-33.5 -99v-34h320z" />
    <glyph glyph-name="eacute" unicode="&#xe9;" horiz-adv-x="545" 
d="M110.5 40q-48.5 48 -48.5 127v155q0 83 48.5 134t127.5 51h82q76 0 122.5 -49.5t46.5 -131.5v-84h-373v-75q0 -57 33.5 -92t88.5 -35h76q54 0 87.5 31.5t33.5 82.5h52q0 -73 -47.5 -117.5t-125.5 -44.5h-76q-79 0 -127.5 48zM436 288v38q0 60 -32 96.5t-84 36.5h-82
q-55 0 -88.5 -38t-33.5 -99v-34h320zM332 729h62l-94 -144h-52z" />
    <glyph glyph-name="ebreve" unicode="&#x115;" horiz-adv-x="545" 
d="M110.5 40q-48.5 48 -48.5 127v155q0 83 48.5 134t127.5 51h82q76 0 122.5 -49.5t46.5 -131.5v-84h-373v-75q0 -57 33.5 -92t88.5 -35h76q54 0 87.5 31.5t33.5 82.5h52q0 -73 -47.5 -117.5t-125.5 -44.5h-76q-79 0 -127.5 48zM436 288v38q0 60 -32 96.5t-84 36.5h-82
q-55 0 -88.5 -38t-33.5 -99v-34h320zM175.5 611q-35.5 34 -35.5 89v6h45v-6q0 -39 23 -61.5t62 -22.5h12q39 0 62 22.5t23 61.5v6h45v-6q0 -55 -35.5 -89t-94.5 -34h-12q-59 0 -94.5 34z" />
    <glyph glyph-name="ecaron" unicode="&#x11b;" horiz-adv-x="545" 
d="M110.5 40q-48.5 48 -48.5 127v155q0 83 48.5 134t127.5 51h82q76 0 122.5 -49.5t46.5 -131.5v-84h-373v-75q0 -57 33.5 -92t88.5 -35h76q54 0 87.5 31.5t33.5 82.5h52q0 -73 -47.5 -117.5t-125.5 -44.5h-76q-79 0 -127.5 48zM436 288v38q0 60 -32 96.5t-84 36.5h-82
q-55 0 -88.5 -38t-33.5 -99v-34h320zM137 737h53l86 -114l86 114h53l-117 -152h-45z" />
    <glyph glyph-name="ecircumflex" unicode="&#xea;" horiz-adv-x="545" 
d="M110.5 40q-48.5 48 -48.5 127v155q0 83 48.5 134t127.5 51h82q76 0 122.5 -49.5t46.5 -131.5v-84h-373v-75q0 -57 33.5 -92t88.5 -35h76q54 0 87.5 31.5t33.5 82.5h52q0 -73 -47.5 -117.5t-125.5 -44.5h-76q-79 0 -127.5 48zM436 288v38q0 60 -32 96.5t-84 36.5h-82
q-55 0 -88.5 -38t-33.5 -99v-34h320zM253 737h45l117 -152h-53l-86 114l-86 -114h-53z" />
    <glyph glyph-name="uni1EBF" unicode="&#x1ebf;" horiz-adv-x="545" 
d="M110.5 40q-48.5 48 -48.5 127v155q0 83 48.5 134t127.5 51h82q76 0 122.5 -49.5t46.5 -131.5v-84h-373v-75q0 -57 33.5 -92t88.5 -35h76q54 0 87.5 31.5t33.5 82.5h52q0 -73 -47.5 -117.5t-125.5 -44.5h-76q-79 0 -127.5 48zM436 288v38q0 60 -32 96.5t-84 36.5h-82
q-55 0 -88.5 -38t-33.5 -99v-34h320zM438 839h55l-71 -107h-45zM253 737h45l117 -152h-53l-86 114l-86 -114h-53z" />
    <glyph glyph-name="uni1EC7" unicode="&#x1ec7;" horiz-adv-x="545" 
d="M110.5 40q-48.5 48 -48.5 127v155q0 83 48.5 134t127.5 51h82q76 0 122.5 -49.5t46.5 -131.5v-84h-373v-75q0 -57 33.5 -92t88.5 -35h76q54 0 87.5 31.5t33.5 82.5h52q0 -73 -47.5 -117.5t-125.5 -44.5h-76q-79 0 -127.5 48zM436 288v38q0 60 -32 96.5t-84 36.5h-82
q-55 0 -88.5 -38t-33.5 -99v-34h320zM245 -159q-13 13 -13 33t13 32.5t33 12.5t33 -12.5t13 -32.5t-13 -33t-33 -13t-33 13zM253 737h45l117 -152h-53l-86 114l-86 -114h-53z" />
    <glyph glyph-name="uni1EC1" unicode="&#x1ec1;" horiz-adv-x="545" 
d="M110.5 40q-48.5 48 -48.5 127v155q0 83 48.5 134t127.5 51h82q76 0 122.5 -49.5t46.5 -131.5v-84h-373v-75q0 -57 33.5 -92t88.5 -35h76q54 0 87.5 31.5t33.5 82.5h52q0 -73 -47.5 -117.5t-125.5 -44.5h-76q-79 0 -127.5 48zM436 288v38q0 60 -32 96.5t-84 36.5h-82
q-55 0 -88.5 -38t-33.5 -99v-34h320zM330 839h54l61 -107h-45zM253 737h45l117 -152h-53l-86 114l-86 -114h-53z" />
    <glyph glyph-name="uni1EC3" unicode="&#x1ec3;" horiz-adv-x="545" 
d="M110.5 40q-48.5 48 -48.5 127v155q0 83 48.5 134t127.5 51h82q76 0 122.5 -49.5t46.5 -131.5v-84h-373v-75q0 -57 33.5 -92t88.5 -35h76q54 0 87.5 31.5t33.5 82.5h52q0 -73 -47.5 -117.5t-125.5 -44.5h-76q-79 0 -127.5 48zM436 288v38q0 60 -32 96.5t-84 36.5h-82
q-55 0 -88.5 -38t-33.5 -99v-34h320zM383 732q0 15 9 24.5t27 20.5q15 10 22 17t7 17v8q0 28 -32 28h-16q-37 0 -37 -34h-39q0 70 76 70h16q35 0 53.5 -16.5t18.5 -47.5v-8q0 -19 -10.5 -30.5t-29.5 -24.5q-12 -8 -17.5 -13t-5.5 -12v-9h-42v10zM253 737h45l117 -152h-53
l-86 114l-86 -114h-53z" />
    <glyph glyph-name="uni1EC5" unicode="&#x1ec5;" horiz-adv-x="545" 
d="M110.5 40q-48.5 48 -48.5 127v155q0 83 48.5 134t127.5 51h82q76 0 122.5 -49.5t46.5 -131.5v-84h-373v-75q0 -57 33.5 -92t88.5 -35h76q54 0 87.5 31.5t33.5 82.5h52q0 -73 -47.5 -117.5t-125.5 -44.5h-76q-79 0 -127.5 48zM436 288v38q0 60 -32 96.5t-84 36.5h-82
q-55 0 -88.5 -38t-33.5 -99v-34h320zM295 787.5q-13 8.5 -29 23.5q-12 12 -20 17.5t-18 5.5h-10q-13 0 -21.5 -11.5t-10.5 -29.5h-38q1 34 20.5 55t49.5 21h10q21 0 35 -8.5t30 -24.5q11 -12 19 -17t17 -5h9q12 0 20.5 11.5t9.5 30.5h39q-2 -35 -20.5 -56t-48.5 -21h-9
q-21 0 -34 8.5zM253 737h45l117 -152h-53l-86 114l-86 -114h-53z" />
    <glyph glyph-name="edieresis" unicode="&#xeb;" horiz-adv-x="545" 
d="M110.5 40q-48.5 48 -48.5 127v155q0 83 48.5 134t127.5 51h82q76 0 122.5 -49.5t46.5 -131.5v-84h-373v-75q0 -57 33.5 -92t88.5 -35h76q54 0 87.5 31.5t33.5 82.5h52q0 -73 -47.5 -117.5t-125.5 -44.5h-76q-79 0 -127.5 48zM436 288v38q0 60 -32 96.5t-84 36.5h-82
q-55 0 -88.5 -38t-33.5 -99v-34h320zM152.5 596q-11.5 11 -11.5 30q0 18 11.5 29.5t29.5 11.5q19 0 30 -11.5t11 -29.5q0 -19 -11 -30t-30 -11q-18 0 -29.5 11zM339.5 596q-11.5 11 -11.5 30q0 18 11.5 29.5t29.5 11.5q19 0 30 -11.5t11 -29.5q0 -19 -11 -30t-30 -11
q-18 0 -29.5 11z" />
    <glyph glyph-name="edotaccent" unicode="&#x117;" horiz-adv-x="545" 
d="M110.5 40q-48.5 48 -48.5 127v155q0 83 48.5 134t127.5 51h82q76 0 122.5 -49.5t46.5 -131.5v-84h-373v-75q0 -57 33.5 -92t88.5 -35h76q54 0 87.5 31.5t33.5 82.5h52q0 -73 -47.5 -117.5t-125.5 -44.5h-76q-79 0 -127.5 48zM436 288v38q0 60 -32 96.5t-84 36.5h-82
q-55 0 -88.5 -38t-33.5 -99v-34h320zM243 597.5q-13 12.5 -13 32.5t13 33t33 13t33 -13t13 -33t-13 -32.5t-33 -12.5t-33 12.5z" />
    <glyph glyph-name="uni1EB9" unicode="&#x1eb9;" horiz-adv-x="545" 
d="M110.5 40q-48.5 48 -48.5 127v155q0 83 48.5 134t127.5 51h82q76 0 122.5 -49.5t46.5 -131.5v-84h-373v-75q0 -57 33.5 -92t88.5 -35h76q54 0 87.5 31.5t33.5 82.5h52q0 -73 -47.5 -117.5t-125.5 -44.5h-76q-79 0 -127.5 48zM436 288v38q0 60 -32 96.5t-84 36.5h-82
q-55 0 -88.5 -38t-33.5 -99v-34h320zM245 -159q-13 13 -13 33t13 32.5t33 12.5t33 -12.5t13 -32.5t-13 -33t-33 -13t-33 13z" />
    <glyph glyph-name="egrave" unicode="&#xe8;" horiz-adv-x="545" 
d="M110.5 40q-48.5 48 -48.5 127v155q0 83 48.5 134t127.5 51h82q76 0 122.5 -49.5t46.5 -131.5v-84h-373v-75q0 -57 33.5 -92t88.5 -35h76q54 0 87.5 31.5t33.5 82.5h52q0 -73 -47.5 -117.5t-125.5 -44.5h-76q-79 0 -127.5 48zM436 288v38q0 60 -32 96.5t-84 36.5h-82
q-55 0 -88.5 -38t-33.5 -99v-34h320zM164 729h62l84 -144h-52z" />
    <glyph glyph-name="uni1EBB" unicode="&#x1ebb;" horiz-adv-x="545" 
d="M110.5 40q-48.5 48 -48.5 127v155q0 83 48.5 134t127.5 51h82q76 0 122.5 -49.5t46.5 -131.5v-84h-373v-75q0 -57 33.5 -92t88.5 -35h76q54 0 87.5 31.5t33.5 82.5h52q0 -73 -47.5 -117.5t-125.5 -44.5h-76q-79 0 -127.5 48zM436 288v38q0 60 -32 96.5t-84 36.5h-82
q-55 0 -88.5 -38t-33.5 -99v-34h320zM249 588q0 19 11.5 31t32.5 25q19 13 27 20.5t8 19.5v11q0 35 -40 35h-22q-44 0 -44 -44h-45q0 41 23 63t66 22h22q41 0 63.5 -19.5t22.5 -56.5v-11q0 -23 -12.5 -37t-34.5 -29q-15 -9 -22 -16t-7 -15v-14h-49v15z" />
    <glyph glyph-name="emacron" unicode="&#x113;" horiz-adv-x="545" 
d="M110.5 40q-48.5 48 -48.5 127v155q0 83 48.5 134t127.5 51h82q76 0 122.5 -49.5t46.5 -131.5v-84h-373v-75q0 -57 33.5 -92t88.5 -35h76q54 0 87.5 31.5t33.5 82.5h52q0 -73 -47.5 -117.5t-125.5 -44.5h-76q-79 0 -127.5 48zM436 288v38q0 60 -32 96.5t-84 36.5h-82
q-55 0 -88.5 -38t-33.5 -99v-34h320zM158 636h237v-41h-237v41z" />
    <glyph glyph-name="eogonek" unicode="&#x119;" horiz-adv-x="545" 
d="M116 242v-75q0 -57 33.5 -92t88.5 -35h76q54 0 87.5 31.5t33.5 82.5h52q0 -57 -30 -98t-83 -56h3q-32 -17 -49.5 -43t-17.5 -58v-10q0 -23 13 -36.5t36 -13.5h10q28 0 53 18v-43q-11 -8 -26 -12.5t-29 -4.5h-10q-44 0 -69 24t-25 66v11q0 27 13 52t36 42h-74
q-79 0 -127.5 48t-48.5 127v155q0 83 48.5 134t127.5 51h82q76 0 122.5 -49.5t46.5 -131.5v-84h-373zM116 288h320v38q0 60 -32 96.5t-84 36.5h-82q-55 0 -88.5 -38t-33.5 -99v-34z" />
    <glyph glyph-name="uni1EBD" unicode="&#x1ebd;" horiz-adv-x="545" 
d="M110.5 40q-48.5 48 -48.5 127v155q0 83 48.5 134t127.5 51h82q76 0 122.5 -49.5t46.5 -131.5v-84h-373v-75q0 -57 33.5 -92t88.5 -35h76q54 0 87.5 31.5t33.5 82.5h52q0 -73 -47.5 -117.5t-125.5 -44.5h-76q-79 0 -127.5 48zM436 288v38q0 60 -32 96.5t-84 36.5h-82
q-55 0 -88.5 -38t-33.5 -99v-34h320zM297.5 586.5q-15.5 9.5 -33.5 27.5q-15 14 -24.5 20.5t-21.5 6.5h-11q-16 0 -27 -13t-12 -35h-44q1 40 24.5 64t58.5 24h11q25 0 41 -10t35 -29q14 -13 22.5 -19t19.5 -6h12q14 0 24.5 13.5t11.5 35.5h45q-1 -40 -23.5 -64.5
t-57.5 -24.5h-12q-23 0 -38.5 9.5z" />
    <glyph glyph-name="uni0259" unicode="&#x259;" horiz-adv-x="543" 
d="M102.5 41.5q-46.5 49.5 -46.5 131.5v85h372v74q0 57 -33.5 92t-89.5 35h-75q-54 0 -86.5 -31t-32.5 -83h-53q0 73 47.5 117.5t124.5 44.5h75q79 0 127.5 -48t48.5 -127v-154q0 -84 -48 -135t-127 -51h-81q-76 0 -122.5 49.5zM306 40q55 0 88.5 38t33.5 100v33h-318v-38
q0 -60 31.5 -96.5t83.5 -36.5h81z" />
    <glyph glyph-name="f" unicode="f" horiz-adv-x="352" 
d="M132 451h-86v48h86v42q0 163 156 163h28v-47h-28q-54 0 -78 -27.5t-24 -88.5v-42h119v-48h-119v-451h-54v451z" />
    <glyph glyph-name="g" unicode="g" horiz-adv-x="571" 
d="M133 -170.5q-40 32.5 -45 85.5h54q4 -32 29.5 -51.5t63.5 -19.5h83q56 0 87 36.5t31 101.5v98q-24 -36 -60.5 -58t-73.5 -22h-74q-74 0 -120 51t-46 135v129q0 86 48.5 139t128.5 53h74q36 0 70.5 -19.5t53.5 -51.5v63h52v-517q0 -87 -45 -136t-126 -49h-83
q-62 0 -102 32.5zM301 48q50 0 87.5 39.5t47.5 92.5v166q-9 50 -43.5 81.5t-79.5 31.5h-73q-56 0 -90 -40t-34 -104v-129q0 -61 31.5 -99.5t81.5 -38.5h72z" />
    <glyph glyph-name="gbreve" unicode="&#x11f;" horiz-adv-x="571" 
d="M133 -170.5q-40 32.5 -45 85.5h54q4 -32 29.5 -51.5t63.5 -19.5h83q56 0 87 36.5t31 101.5v98q-24 -36 -60.5 -58t-73.5 -22h-74q-74 0 -120 51t-46 135v129q0 86 48.5 139t128.5 53h74q36 0 70.5 -19.5t53.5 -51.5v63h52v-517q0 -87 -45 -136t-126 -49h-83
q-62 0 -102 32.5zM301 48q50 0 87.5 39.5t47.5 92.5v166q-9 50 -43.5 81.5t-79.5 31.5h-73q-56 0 -90 -40t-34 -104v-129q0 -61 31.5 -99.5t81.5 -38.5h72zM174.5 611q-35.5 34 -35.5 89v6h45v-6q0 -39 23 -61.5t62 -22.5h12q39 0 62 22.5t23 61.5v6h45v-6q0 -55 -35.5 -89
t-94.5 -34h-12q-59 0 -94.5 34z" />
    <glyph glyph-name="gcaron" unicode="&#x1e7;" horiz-adv-x="571" 
d="M133 -170.5q-40 32.5 -45 85.5h54q4 -32 29.5 -51.5t63.5 -19.5h83q56 0 87 36.5t31 101.5v98q-24 -36 -60.5 -58t-73.5 -22h-74q-74 0 -120 51t-46 135v129q0 86 48.5 139t128.5 53h74q36 0 70.5 -19.5t53.5 -51.5v63h52v-517q0 -87 -45 -136t-126 -49h-83
q-62 0 -102 32.5zM301 48q50 0 87.5 39.5t47.5 92.5v166q-9 50 -43.5 81.5t-79.5 31.5h-73q-56 0 -90 -40t-34 -104v-129q0 -61 31.5 -99.5t81.5 -38.5h72zM136 737h53l86 -114l86 114h53l-117 -152h-45z" />
    <glyph glyph-name="gcircumflex" unicode="&#x11d;" horiz-adv-x="571" 
d="M133 -170.5q-40 32.5 -45 85.5h54q4 -32 29.5 -51.5t63.5 -19.5h83q56 0 87 36.5t31 101.5v98q-24 -36 -60.5 -58t-73.5 -22h-74q-74 0 -120 51t-46 135v129q0 86 48.5 139t128.5 53h74q36 0 70.5 -19.5t53.5 -51.5v63h52v-517q0 -87 -45 -136t-126 -49h-83
q-62 0 -102 32.5zM301 48q50 0 87.5 39.5t47.5 92.5v166q-9 50 -43.5 81.5t-79.5 31.5h-73q-56 0 -90 -40t-34 -104v-129q0 -61 31.5 -99.5t81.5 -38.5h72zM252 737h45l117 -152h-53l-86 114l-86 -114h-53z" />
    <glyph glyph-name="uni0123" unicode="&#x123;" horiz-adv-x="571" 
d="M133 -170.5q-40 32.5 -45 85.5h54q4 -32 29.5 -51.5t63.5 -19.5h83q56 0 87 36.5t31 101.5v98q-24 -36 -60.5 -58t-73.5 -22h-74q-74 0 -120 51t-46 135v129q0 86 48.5 139t128.5 53h74q36 0 70.5 -19.5t53.5 -51.5v63h52v-517q0 -87 -45 -136t-126 -49h-83
q-62 0 -102 32.5zM301 48q50 0 87.5 39.5t47.5 92.5v166q-9 50 -43.5 81.5t-79.5 31.5h-73q-56 0 -90 -40t-34 -104v-129q0 -61 31.5 -99.5t81.5 -38.5h72zM246 600q0 51 19 86.5t62 61.5l14 9l31 -42l-12 -8q-32 -22 -46 -47t-14 -60v-28h-54v28z" />
    <glyph glyph-name="gdotaccent" unicode="&#x121;" horiz-adv-x="571" 
d="M133 -170.5q-40 32.5 -45 85.5h54q4 -32 29.5 -51.5t63.5 -19.5h83q56 0 87 36.5t31 101.5v98q-24 -36 -60.5 -58t-73.5 -22h-74q-74 0 -120 51t-46 135v129q0 86 48.5 139t128.5 53h74q36 0 70.5 -19.5t53.5 -51.5v63h52v-517q0 -87 -45 -136t-126 -49h-83
q-62 0 -102 32.5zM301 48q50 0 87.5 39.5t47.5 92.5v166q-9 50 -43.5 81.5t-79.5 31.5h-73q-56 0 -90 -40t-34 -104v-129q0 -61 31.5 -99.5t81.5 -38.5h72zM242 597.5q-13 12.5 -13 32.5t13 33t33 13t33 -13t13 -33t-13 -32.5t-33 -12.5t-33 12.5z" />
    <glyph glyph-name="uni1E21" unicode="&#x1e21;" horiz-adv-x="571" 
d="M133 -170.5q-40 32.5 -45 85.5h54q4 -32 29.5 -51.5t63.5 -19.5h83q56 0 87 36.5t31 101.5v98q-24 -36 -60.5 -58t-73.5 -22h-74q-74 0 -120 51t-46 135v129q0 86 48.5 139t128.5 53h74q36 0 70.5 -19.5t53.5 -51.5v63h52v-517q0 -87 -45 -136t-126 -49h-83
q-62 0 -102 32.5zM301 48q50 0 87.5 39.5t47.5 92.5v166q-9 50 -43.5 81.5t-79.5 31.5h-73q-56 0 -90 -40t-34 -104v-129q0 -61 31.5 -99.5t81.5 -38.5h72zM157 636h237v-41h-237v41z" />
    <glyph glyph-name="h" unicode="h" horiz-adv-x="567" 
d="M82 700h54v-283q25 42 62.5 66t77.5 24h69q65 0 105.5 -45.5t40.5 -120.5v-341h-53v342q0 52 -26 84.5t-68 32.5h-67q-45 0 -85 -36.5t-56 -95.5v-327h-54v700z" />
    <glyph glyph-name="hbar" unicode="&#x127;" horiz-adv-x="612" 
d="M495.5 461.5q40.5 -45.5 40.5 -120.5v-341h-53v342q0 52 -26 84.5t-68 32.5h-67q-45 0 -85 -36.5t-56 -95.5v-327h-54v578h-95v45h95v77h54v-77h140v-45h-140v-161q25 42 62.5 66t77.5 24h69q65 0 105.5 -45.5z" />
    <glyph glyph-name="uni1E2B" unicode="&#x1e2b;" horiz-adv-x="567" 
d="M82 700h54v-283q25 42 62.5 66t77.5 24h69q65 0 105.5 -45.5t40.5 -120.5v-341h-53v342q0 52 -26 84.5t-68 32.5h-67q-45 0 -85 -36.5t-56 -95.5v-327h-54v700zM187.5 -167q-35.5 34 -35.5 89v6h45v-6q0 -39 23 -61.5t62 -22.5h12q39 0 62 22.5t23 61.5v6h45v-6
q0 -55 -35.5 -89t-94.5 -34h-12q-59 0 -94.5 34z" />
    <glyph glyph-name="hcircumflex" unicode="&#x125;" horiz-adv-x="567" 
d="M82 700h54v-283q25 42 62.5 66t77.5 24h69q65 0 105.5 -45.5t40.5 -120.5v-341h-53v342q0 52 -26 84.5t-68 32.5h-67q-45 0 -85 -36.5t-56 -95.5v-327h-54v700zM263 938h45l117 -152h-53l-86 114l-86 -114h-53z" />
    <glyph glyph-name="uni1E25" unicode="&#x1e25;" horiz-adv-x="567" 
d="M82 700h54v-283q25 42 62.5 66t77.5 24h69q65 0 105.5 -45.5t40.5 -120.5v-341h-53v342q0 52 -26 84.5t-68 32.5h-67q-45 0 -85 -36.5t-56 -95.5v-327h-54v700zM255 -159q-13 13 -13 33t13 32.5t33 12.5t33 -12.5t13 -32.5t-13 -33t-33 -13t-33 13z" />
    <glyph glyph-name="i" unicode="i" horiz-adv-x="253" 
d="M94.5 596q-12.5 12 -12.5 32t12.5 32.5t32.5 12.5t32 -12.5t12 -32.5q0 -19 -12 -31.5t-32 -12.5t-32.5 12zM100 499h53v-499h-53v499z" />
    <glyph glyph-name="dotlessi" unicode="&#x131;" horiz-adv-x="228" 
d="M87 499h54v-499h-54v499z" />
    <glyph glyph-name="iacute" unicode="&#xed;" horiz-adv-x="228" 
d="M87 499h54v-499h-54v499zM167 744h62l-94 -144h-52z" />
    <glyph glyph-name="ibreve" unicode="&#x12d;" horiz-adv-x="228" 
d="M87 499h54v-499h-54v499zM13.5 611q-35.5 34 -35.5 89v6h45v-6q0 -39 23 -61.5t62 -22.5h12q39 0 62 22.5t23 61.5v6h45v-6q0 -55 -35.5 -89t-94.5 -34h-12q-59 0 -94.5 34z" />
    <glyph glyph-name="uni01D0" unicode="&#x1d0;" horiz-adv-x="228" 
d="M87 499h54v-499h-54v499zM-25 737h53l86 -114l86 114h53l-117 -152h-45z" />
    <glyph glyph-name="icircumflex" unicode="&#xee;" horiz-adv-x="228" 
d="M87 499h54v-499h-54v499zM91 737h45l117 -152h-53l-86 114l-86 -114h-53z" />
    <glyph glyph-name="idieresis" unicode="&#xef;" horiz-adv-x="228" 
d="M87 499h54v-499h-54v499zM-9.5 596q-11.5 11 -11.5 30q0 18 11.5 29.5t29.5 11.5q19 0 30 -11.5t11 -29.5q0 -19 -11 -30t-30 -11q-18 0 -29.5 11zM177.5 596q-11.5 11 -11.5 30q0 18 11.5 29.5t29.5 11.5q19 0 30 -11.5t11 -29.5q0 -19 -11 -30t-30 -11q-18 0 -29.5 11z
" />
    <glyph glyph-name="uni1ECB" unicode="&#x1ecb;" horiz-adv-x="253" 
d="M94.5 596q-12.5 12 -12.5 32t12.5 32.5t32.5 12.5t32 -12.5t12 -32.5q0 -19 -12 -31.5t-32 -12.5t-32.5 12zM100 499h53v-499h-53v499zM94 -159q-13 13 -13 33t13 32.5t33 12.5t33 -12.5t13 -32.5t-13 -33t-33 -13t-33 13z" />
    <glyph glyph-name="igrave" unicode="&#xec;" horiz-adv-x="228" 
d="M87 499h54v-499h-54v499zM6 744h62l84 -144h-52z" />
    <glyph glyph-name="uni1EC9" unicode="&#x1ec9;" horiz-adv-x="228" 
d="M87 499h54v-499h-54v499zM89 588q0 19 11.5 31t32.5 25q19 13 27 20.5t8 19.5v11q0 35 -40 35h-22q-44 0 -44 -44h-45q0 41 23 63t66 22h22q41 0 63.5 -19.5t22.5 -56.5v-11q0 -23 -12.5 -37t-34.5 -29q-15 -9 -22 -16t-7 -15v-14h-49v15z" />
    <glyph glyph-name="ij" unicode="&#x133;" horiz-adv-x="495" 
d="M94.5 596q-12.5 12 -12.5 32t12.5 32.5t32.5 12.5t32 -12.5t12 -32.5q0 -19 -12 -31.5t-32 -12.5t-32.5 12zM100 499h53v-499h-53v499zM336.5 596q-12.5 12 -12.5 32t12.5 32.5t32.5 12.5t32 -12.5t12 -32.5q0 -19 -12 -31.5t-32 -12.5t-32.5 12zM210 -151h27
q57 0 81 28.5t24 98.5v523h53v-518q0 -98 -36 -139t-122 -41h-27v48z" />
    <glyph glyph-name="imacron" unicode="&#x12b;" horiz-adv-x="228" 
d="M87 499h54v-499h-54v499zM-4 636h237v-41h-237v41z" />
    <glyph glyph-name="iogonek" unicode="&#x12f;" horiz-adv-x="253" 
d="M94.5 596q-12.5 12 -12.5 32t12.5 32.5t32.5 12.5t32 -12.5t12 -32.5q0 -19 -12 -31.5t-32 -12.5t-32.5 12zM100 499h53v-499h-53v499zM64.5 -178.5q-25.5 24.5 -25.5 65.5v11q0 31 17.5 59t45.5 43h52q-32 -17 -49.5 -43t-17.5 -58v-10q0 -23 13 -36.5t36 -13.5h10
q28 0 53 18v-43q-11 -8 -26 -12.5t-29 -4.5h-10q-44 0 -69.5 24.5z" />
    <glyph glyph-name="itilde" unicode="&#x129;" horiz-adv-x="228" 
d="M87 499h54v-499h-54v499zM135.5 586.5q-15.5 9.5 -33.5 27.5q-15 14 -24.5 20.5t-21.5 6.5h-11q-16 0 -27 -13t-12 -35h-44q1 40 24.5 64t58.5 24h11q25 0 41 -10t35 -29q14 -13 22.5 -19t19.5 -6h12q14 0 24.5 13.5t11.5 35.5h45q-1 -40 -23.5 -64.5t-57.5 -24.5h-12
q-23 0 -38.5 9.5z" />
    <glyph glyph-name="j" unicode="j" horiz-adv-x="259" 
d="M100.5 596q-12.5 12 -12.5 32t12.5 32.5t32.5 12.5t32 -12.5t12 -32.5q0 -19 -12 -31.5t-32 -12.5t-32.5 12zM-26 -151h27q57 0 81 28.5t24 98.5v523h53v-518q0 -98 -36 -139t-122 -41h-27v48z" />
    <glyph glyph-name="uni0237" unicode="&#x237;" horiz-adv-x="247" 
d="M-26 -151h27q57 0 81 28.5t24 98.5v523h53v-518q0 -98 -36 -139t-122 -41h-27v48z" />
    <glyph glyph-name="jcircumflex" unicode="&#x135;" horiz-adv-x="247" 
d="M-26 -151h27q57 0 81 28.5t24 98.5v523h53v-518q0 -98 -36 -139t-122 -41h-27v48zM109 737h45l117 -152h-53l-86 114l-86 -114h-53z" />
    <glyph glyph-name="k" unicode="k" horiz-adv-x="498" 
d="M415 0l-205 247l-74 -73v-174h-54v700h54v-459l262 258h66l-217 -215l233 -284h-65z" />
    <glyph glyph-name="uni0137" unicode="&#x137;" horiz-adv-x="498" 
d="M415 0l-205 247l-74 -73v-174h-54v700h54v-459l262 258h66l-217 -215l233 -284h-65zM172 -222l12 8q33 22 47 46.5t14 60.5v29h54v-29q0 -52 -19.5 -87.5t-62.5 -61.5l-14 -9z" />
    <glyph glyph-name="kgreenlandic" unicode="&#x138;" horiz-adv-x="510" 
d="M427 0l-213 243l-78 -77v-166h-54v499h54v-266l272 266h66l-223 -220l241 -279h-65z" />
    <glyph glyph-name="l" unicode="l" horiz-adv-x="261" 
d="M110 30q-28 30 -28 100v570h54v-570q0 -44 15.5 -63t51.5 -19h32v-48h-32q-65 0 -93 30z" />
    <glyph glyph-name="lacute" unicode="&#x13a;" horiz-adv-x="261" 
d="M110 30q-28 30 -28 100v570h54v-570q0 -44 15.5 -63t51.5 -19h32v-48h-32q-65 0 -93 30zM168 915h62l-94 -144h-52z" />
    <glyph glyph-name="lcaron" unicode="&#x13e;" horiz-adv-x="376" 
d="M110 30q-28 30 -28 100v570h54v-570q0 -44 15.5 -63t51.5 -19h32v-48h-32q-65 0 -93 30zM228 558l12 8q32 21 46 46t14 61v27h54v-27q0 -52 -19 -87.5t-62 -61.5l-14 -9z" />
    <glyph glyph-name="uni013C" unicode="&#x13c;" horiz-adv-x="261" 
d="M110 30q-28 30 -28 100v570h54v-570q0 -44 15.5 -63t51.5 -19h32v-48h-32q-65 0 -93 30zM63 -222l12 8q33 22 47 46.5t14 60.5v29h54v-29q0 -52 -19.5 -87.5t-62.5 -61.5l-14 -9z" />
    <glyph glyph-name="ldot" unicode="&#x140;" horiz-adv-x="375" 
d="M110 30q-28 30 -28 100v570h54v-570q0 -44 15.5 -63t51.5 -19h32v-48h-32q-65 0 -93 30zM267.5 223.5q-12.5 12.5 -12.5 32.5t12.5 32.5t32.5 12.5q21 0 33 -12.5t12 -32.5t-12.5 -32.5t-32.5 -12.5t-32.5 12.5z" />
    <glyph glyph-name="uni1E37" unicode="&#x1e37;" horiz-adv-x="261" 
d="M110 30q-28 30 -28 100v570h54v-570q0 -44 15.5 -63t51.5 -19h32v-48h-32q-65 0 -93 30zM127 -159q-13 13 -13 33t13 32.5t33 12.5t33 -12.5t13 -32.5t-13 -33t-33 -13t-33 13z" />
    <glyph glyph-name="uni1E39" unicode="&#x1e39;" horiz-adv-x="261" 
d="M110 30q-28 30 -28 100v570h54v-570q0 -44 15.5 -63t51.5 -19h32v-48h-32q-65 0 -93 30zM127 -159q-13 13 -13 33t13 32.5t33 12.5t33 -12.5t13 -32.5t-13 -33t-33 -13t-33 13zM-9 837h237v-41h-237v41z" />
    <glyph glyph-name="uni1E3B" unicode="&#x1e3b;" horiz-adv-x="261" 
d="M110 30q-28 30 -28 100v570h54v-570q0 -44 15.5 -63t51.5 -19h32v-48h-32q-65 0 -93 30zM42 -82h237v-41h-237v41z" />
    <glyph glyph-name="lslash" unicode="&#x142;" horiz-adv-x="294" 
d="M268 48v-48h-33q-64 0 -92 30t-28 100v155l-89 -52v53l89 52v362h53v-331l92 53v-52l-92 -54v-186q0 -44 15.5 -63t51.5 -19h33z" />
    <glyph glyph-name="m" unicode="m" horiz-adv-x="834" 
d="M721 466q37 -41 37 -111v-355h-54v356q0 47 -22.5 75t-60.5 28h-59q-44 0 -74.5 -32t-40.5 -87v-340h-54v348q0 51 -21.5 81t-57.5 30h-58q-42 0 -75 -37t-45 -96v-326h-54v499h52v-81q22 42 54 65.5t68 23.5h59q41 0 72 -23t45 -64q22 42 55.5 64.5t73.5 22.5h61
q62 0 99 -41z" />
    <glyph glyph-name="uni1E43" unicode="&#x1e43;" horiz-adv-x="834" 
d="M721 466q37 -41 37 -111v-355h-54v356q0 47 -22.5 75t-60.5 28h-59q-44 0 -74.5 -32t-40.5 -87v-340h-54v348q0 51 -21.5 81t-57.5 30h-58q-42 0 -75 -37t-45 -96v-326h-54v499h52v-81q22 42 54 65.5t68 23.5h59q41 0 72 -23t45 -64q22 42 55.5 64.5t73.5 22.5h61
q62 0 99 -41zM387 -159q-13 13 -13 33t13 32.5t33 12.5t33 -12.5t13 -32.5t-13 -33t-33 -13t-33 13z" />
    <glyph glyph-name="n" unicode="n" horiz-adv-x="565" 
d="M82 499h52v-85q25 43 63.5 68t78.5 25h67q65 0 105.5 -45.5t40.5 -120.5v-341h-53v342q0 52 -26 84.5t-68 32.5h-65q-45 0 -85 -37t-56 -96v-326h-54v499z" />
    <glyph glyph-name="nacute" unicode="&#x144;" horiz-adv-x="565" 
d="M82 499h52v-85q25 43 63.5 68t78.5 25h67q65 0 105.5 -45.5t40.5 -120.5v-341h-53v342q0 52 -26 84.5t-68 32.5h-65q-45 0 -85 -37t-56 -96v-326h-54v499zM343 729h62l-94 -144h-52z" />
    <glyph glyph-name="napostrophe" unicode="&#x149;" horiz-adv-x="669" 
d="M186 499h52v-85q25 43 63.5 68t78.5 25h67q65 0 105.5 -45.5t40.5 -120.5v-341h-53v342q0 52 -26 84.5t-68 32.5h-65q-45 0 -85 -37t-56 -96v-326h-54v499zM22 558l12 8q32 21 46 46t14 61v27h54v-27q0 -52 -19 -87.5t-62 -61.5l-14 -9z" />
    <glyph glyph-name="ncaron" unicode="&#x148;" horiz-adv-x="565" 
d="M82 499h52v-85q25 43 63.5 68t78.5 25h67q65 0 105.5 -45.5t40.5 -120.5v-341h-53v342q0 52 -26 84.5t-68 32.5h-65q-45 0 -85 -37t-56 -96v-326h-54v499zM148 737h53l86 -114l86 114h53l-117 -152h-45z" />
    <glyph glyph-name="uni0146" unicode="&#x146;" horiz-adv-x="565" 
d="M82 499h52v-85q25 43 63.5 68t78.5 25h67q65 0 105.5 -45.5t40.5 -120.5v-341h-53v342q0 52 -26 84.5t-68 32.5h-65q-45 0 -85 -37t-56 -96v-326h-54v499zM186 -222l12 8q33 22 47 46.5t14 60.5v29h54v-29q0 -52 -19.5 -87.5t-62.5 -61.5l-14 -9z" />
    <glyph glyph-name="uni1E45" unicode="&#x1e45;" horiz-adv-x="565" 
d="M82 499h52v-85q25 43 63.5 68t78.5 25h67q65 0 105.5 -45.5t40.5 -120.5v-341h-53v342q0 52 -26 84.5t-68 32.5h-65q-45 0 -85 -37t-56 -96v-326h-54v499zM254 597.5q-13 12.5 -13 32.5t13 33t33 13t33 -13t13 -33t-13 -32.5t-33 -12.5t-33 12.5z" />
    <glyph glyph-name="uni1E47" unicode="&#x1e47;" horiz-adv-x="565" 
d="M82 499h52v-85q25 43 63.5 68t78.5 25h67q65 0 105.5 -45.5t40.5 -120.5v-341h-53v342q0 52 -26 84.5t-68 32.5h-65q-45 0 -85 -37t-56 -96v-326h-54v499zM250 -159q-13 13 -13 33t13 32.5t33 12.5t33 -12.5t13 -32.5t-13 -33t-33 -13t-33 13z" />
    <glyph glyph-name="eng" unicode="&#x14b;" horiz-adv-x="565" 
d="M304 -151h27q57 0 81 28.5t24 98.5v366q0 52 -26 84.5t-68 32.5h-65q-31 0 -60.5 -18.5t-51.5 -50.5t-29 -71v-319h-54v499h53v-84q24 42 62 67t78 25h68q65 0 105.5 -45.5t40.5 -120.5v-360q0 -98 -36 -139t-122 -41h-27v48z" />
    <glyph glyph-name="uni1E49" unicode="&#x1e49;" horiz-adv-x="565" 
d="M82 499h52v-85q25 43 63.5 68t78.5 25h67q65 0 105.5 -45.5t40.5 -120.5v-341h-53v342q0 52 -26 84.5t-68 32.5h-65q-45 0 -85 -37t-56 -96v-326h-54v499zM165 -82h237v-41h-237v41z" />
    <glyph glyph-name="ntilde" unicode="&#xf1;" horiz-adv-x="565" 
d="M82 499h52v-85q25 43 63.5 68t78.5 25h67q65 0 105.5 -45.5t40.5 -120.5v-341h-53v342q0 52 -26 84.5t-68 32.5h-65q-45 0 -85 -37t-56 -96v-326h-54v499zM308.5 586.5q-15.5 9.5 -33.5 27.5q-15 14 -24.5 20.5t-21.5 6.5h-11q-16 0 -27 -13t-12 -35h-44q1 40 24.5 64
t58.5 24h11q25 0 41 -10t35 -29q14 -13 22.5 -19t19.5 -6h12q14 0 24.5 13.5t11.5 35.5h45q-1 -40 -23.5 -64.5t-57.5 -24.5h-12q-23 0 -38.5 9.5z" />
    <glyph glyph-name="o" unicode="o" horiz-adv-x="563" 
d="M111 42.5q-49 50.5 -49 132.5v149q0 82 49.5 132.5t130.5 50.5h79q81 0 130.5 -50.5t49.5 -132.5v-149q0 -82 -50 -132.5t-132 -50.5h-79q-80 0 -129 50.5zM319 40q58 0 93.5 37t35.5 98v149q0 61 -35 98t-92 37h-79q-57 0 -91.5 -37t-34.5 -98v-149q0 -61 34 -98t90 -37
h79z" />
    <glyph glyph-name="oacute" unicode="&#xf3;" horiz-adv-x="563" 
d="M111 42.5q-49 50.5 -49 132.5v149q0 82 49.5 132.5t130.5 50.5h79q81 0 130.5 -50.5t49.5 -132.5v-149q0 -82 -50 -132.5t-132 -50.5h-79q-80 0 -129 50.5zM319 40q58 0 93.5 37t35.5 98v149q0 61 -35 98t-92 37h-79q-57 0 -91.5 -37t-34.5 -98v-149q0 -61 34 -98t90 -37
h79zM338 729h62l-94 -144h-52z" />
    <glyph glyph-name="obreve" unicode="&#x14f;" horiz-adv-x="563" 
d="M111 42.5q-49 50.5 -49 132.5v149q0 82 49.5 132.5t130.5 50.5h79q81 0 130.5 -50.5t49.5 -132.5v-149q0 -82 -50 -132.5t-132 -50.5h-79q-80 0 -129 50.5zM319 40q58 0 93.5 37t35.5 98v149q0 61 -35 98t-92 37h-79q-57 0 -91.5 -37t-34.5 -98v-149q0 -61 34 -98t90 -37
h79zM181.5 611q-35.5 34 -35.5 89v6h45v-6q0 -39 23 -61.5t62 -22.5h12q39 0 62 22.5t23 61.5v6h45v-6q0 -55 -35.5 -89t-94.5 -34h-12q-59 0 -94.5 34z" />
    <glyph glyph-name="uni01D2" unicode="&#x1d2;" horiz-adv-x="563" 
d="M111 42.5q-49 50.5 -49 132.5v149q0 82 49.5 132.5t130.5 50.5h79q81 0 130.5 -50.5t49.5 -132.5v-149q0 -82 -50 -132.5t-132 -50.5h-79q-80 0 -129 50.5zM319 40q58 0 93.5 37t35.5 98v149q0 61 -35 98t-92 37h-79q-57 0 -91.5 -37t-34.5 -98v-149q0 -61 34 -98t90 -37
h79zM143 737h53l86 -114l86 114h53l-117 -152h-45z" />
    <glyph glyph-name="ocircumflex" unicode="&#xf4;" horiz-adv-x="563" 
d="M111 42.5q-49 50.5 -49 132.5v149q0 82 49.5 132.5t130.5 50.5h79q81 0 130.5 -50.5t49.5 -132.5v-149q0 -82 -50 -132.5t-132 -50.5h-79q-80 0 -129 50.5zM319 40q58 0 93.5 37t35.5 98v149q0 61 -35 98t-92 37h-79q-57 0 -91.5 -37t-34.5 -98v-149q0 -61 34 -98t90 -37
h79zM259 737h45l117 -152h-53l-86 114l-86 -114h-53z" />
    <glyph glyph-name="uni1ED1" unicode="&#x1ed1;" horiz-adv-x="563" 
d="M111 42.5q-49 50.5 -49 132.5v149q0 82 49.5 132.5t130.5 50.5h79q81 0 130.5 -50.5t49.5 -132.5v-149q0 -82 -50 -132.5t-132 -50.5h-79q-80 0 -129 50.5zM319 40q58 0 93.5 37t35.5 98v149q0 61 -35 98t-92 37h-79q-57 0 -91.5 -37t-34.5 -98v-149q0 -61 34 -98t90 -37
h79zM444 839h55l-71 -107h-45zM259 737h45l117 -152h-53l-86 114l-86 -114h-53z" />
    <glyph glyph-name="uni1ED9" unicode="&#x1ed9;" horiz-adv-x="563" 
d="M111 42.5q-49 50.5 -49 132.5v149q0 82 49.5 132.5t130.5 50.5h79q81 0 130.5 -50.5t49.5 -132.5v-149q0 -82 -50 -132.5t-132 -50.5h-79q-80 0 -129 50.5zM319 40q58 0 93.5 37t35.5 98v149q0 61 -35 98t-92 37h-79q-57 0 -91.5 -37t-34.5 -98v-149q0 -61 34 -98t90 -37
h79zM249 -159q-13 13 -13 33t13 32.5t33 12.5t33 -12.5t13 -32.5t-13 -33t-33 -13t-33 13zM259 737h45l117 -152h-53l-86 114l-86 -114h-53z" />
    <glyph glyph-name="uni1ED3" unicode="&#x1ed3;" horiz-adv-x="563" 
d="M111 42.5q-49 50.5 -49 132.5v149q0 82 49.5 132.5t130.5 50.5h79q81 0 130.5 -50.5t49.5 -132.5v-149q0 -82 -50 -132.5t-132 -50.5h-79q-80 0 -129 50.5zM319 40q58 0 93.5 37t35.5 98v149q0 61 -35 98t-92 37h-79q-57 0 -91.5 -37t-34.5 -98v-149q0 -61 34 -98t90 -37
h79zM336 839h54l61 -107h-45zM259 737h45l117 -152h-53l-86 114l-86 -114h-53z" />
    <glyph glyph-name="uni1ED5" unicode="&#x1ed5;" horiz-adv-x="563" 
d="M111 42.5q-49 50.5 -49 132.5v149q0 82 49.5 132.5t130.5 50.5h79q81 0 130.5 -50.5t49.5 -132.5v-149q0 -82 -50 -132.5t-132 -50.5h-79q-80 0 -129 50.5zM319 40q58 0 93.5 37t35.5 98v149q0 61 -35 98t-92 37h-79q-57 0 -91.5 -37t-34.5 -98v-149q0 -61 34 -98t90 -37
h79zM389 732q0 15 9 24.5t27 20.5q15 10 22 17t7 17v8q0 28 -32 28h-16q-37 0 -37 -34h-39q0 70 76 70h16q35 0 53.5 -16.5t18.5 -47.5v-8q0 -19 -10.5 -30.5t-29.5 -24.5q-12 -8 -17.5 -13t-5.5 -12v-9h-42v10zM259 737h45l117 -152h-53l-86 114l-86 -114h-53z" />
    <glyph glyph-name="uni1ED7" unicode="&#x1ed7;" horiz-adv-x="563" 
d="M111 42.5q-49 50.5 -49 132.5v149q0 82 49.5 132.5t130.5 50.5h79q81 0 130.5 -50.5t49.5 -132.5v-149q0 -82 -50 -132.5t-132 -50.5h-79q-80 0 -129 50.5zM319 40q58 0 93.5 37t35.5 98v149q0 61 -35 98t-92 37h-79q-57 0 -91.5 -37t-34.5 -98v-149q0 -61 34 -98t90 -37
h79zM301 787.5q-13 8.5 -29 23.5q-12 12 -20 17.5t-18 5.5h-10q-13 0 -21.5 -11.5t-10.5 -29.5h-38q1 34 20.5 55t49.5 21h10q21 0 35 -8.5t30 -24.5q11 -12 19 -17t17 -5h9q12 0 20.5 11.5t9.5 30.5h39q-2 -35 -20.5 -56t-48.5 -21h-9q-21 0 -34 8.5zM259 737h45l117 -152
h-53l-86 114l-86 -114h-53z" />
    <glyph glyph-name="odieresis" unicode="&#xf6;" horiz-adv-x="563" 
d="M111 42.5q-49 50.5 -49 132.5v149q0 82 49.5 132.5t130.5 50.5h79q81 0 130.5 -50.5t49.5 -132.5v-149q0 -82 -50 -132.5t-132 -50.5h-79q-80 0 -129 50.5zM319 40q58 0 93.5 37t35.5 98v149q0 61 -35 98t-92 37h-79q-57 0 -91.5 -37t-34.5 -98v-149q0 -61 34 -98t90 -37
h79zM158.5 596q-11.5 11 -11.5 30q0 18 11.5 29.5t29.5 11.5q19 0 30 -11.5t11 -29.5q0 -19 -11 -30t-30 -11q-18 0 -29.5 11zM345.5 596q-11.5 11 -11.5 30q0 18 11.5 29.5t29.5 11.5q19 0 30 -11.5t11 -29.5q0 -19 -11 -30t-30 -11q-18 0 -29.5 11z" />
    <glyph glyph-name="uni1ECD" unicode="&#x1ecd;" horiz-adv-x="563" 
d="M111 42.5q-49 50.5 -49 132.5v149q0 82 49.5 132.5t130.5 50.5h79q81 0 130.5 -50.5t49.5 -132.5v-149q0 -82 -50 -132.5t-132 -50.5h-79q-80 0 -129 50.5zM319 40q58 0 93.5 37t35.5 98v149q0 61 -35 98t-92 37h-79q-57 0 -91.5 -37t-34.5 -98v-149q0 -61 34 -98t90 -37
h79zM249 -159q-13 13 -13 33t13 32.5t33 12.5t33 -12.5t13 -32.5t-13 -33t-33 -13t-33 13z" />
    <glyph glyph-name="ograve" unicode="&#xf2;" horiz-adv-x="563" 
d="M111 42.5q-49 50.5 -49 132.5v149q0 82 49.5 132.5t130.5 50.5h79q81 0 130.5 -50.5t49.5 -132.5v-149q0 -82 -50 -132.5t-132 -50.5h-79q-80 0 -129 50.5zM319 40q58 0 93.5 37t35.5 98v149q0 61 -35 98t-92 37h-79q-57 0 -91.5 -37t-34.5 -98v-149q0 -61 34 -98t90 -37
h79zM170 729h62l84 -144h-52z" />
    <glyph glyph-name="uni1ECF" unicode="&#x1ecf;" horiz-adv-x="563" 
d="M111 42.5q-49 50.5 -49 132.5v149q0 82 49.5 132.5t130.5 50.5h79q81 0 130.5 -50.5t49.5 -132.5v-149q0 -82 -50 -132.5t-132 -50.5h-79q-80 0 -129 50.5zM319 40q58 0 93.5 37t35.5 98v149q0 61 -35 98t-92 37h-79q-57 0 -91.5 -37t-34.5 -98v-149q0 -61 34 -98t90 -37
h79zM255 588q0 19 11.5 31t32.5 25q19 13 27 20.5t8 19.5v11q0 35 -40 35h-22q-44 0 -44 -44h-45q0 41 23 63t66 22h22q41 0 63.5 -19.5t22.5 -56.5v-11q0 -23 -12.5 -37t-34.5 -29q-15 -9 -22 -16t-7 -15v-14h-49v15z" />
    <glyph glyph-name="ohorn" unicode="&#x1a1;" horiz-adv-x="621" 
d="M624 502v-11q0 -73 -32.5 -115t-90.5 -46v-6v-149q0 -82 -50 -132.5t-132 -50.5h-79q-80 0 -129 50.5t-49 132.5v149q0 82 49.5 132.5t130.5 50.5h79q67 0 113.5 -35.5t60.5 -95.5q38 2 58 31.5t20 83.5v11h51zM448 324q0 61 -35 98t-92 37h-79q-57 0 -91.5 -37
t-34.5 -98v-149q0 -61 34 -98t90 -37h79q58 0 93.5 37t35.5 98v149z" />
    <glyph glyph-name="uni1EDB" unicode="&#x1edb;" horiz-adv-x="621" 
d="M624 502v-11q0 -73 -32.5 -115t-90.5 -46v-6v-149q0 -82 -50 -132.5t-132 -50.5h-79q-80 0 -129 50.5t-49 132.5v149q0 82 49.5 132.5t130.5 50.5h79q67 0 113.5 -35.5t60.5 -95.5q38 2 58 31.5t20 83.5v11h51zM448 324q0 61 -35 98t-92 37h-79q-57 0 -91.5 -37
t-34.5 -98v-149q0 -61 34 -98t90 -37h79q58 0 93.5 37t35.5 98v149zM338 729h62l-94 -144h-52z" />
    <glyph glyph-name="uni1EE3" unicode="&#x1ee3;" horiz-adv-x="621" 
d="M624 502v-11q0 -73 -32.5 -115t-90.5 -46v-6v-149q0 -82 -50 -132.5t-132 -50.5h-79q-80 0 -129 50.5t-49 132.5v149q0 82 49.5 132.5t130.5 50.5h79q67 0 113.5 -35.5t60.5 -95.5q38 2 58 31.5t20 83.5v11h51zM448 324q0 61 -35 98t-92 37h-79q-57 0 -91.5 -37
t-34.5 -98v-149q0 -61 34 -98t90 -37h79q58 0 93.5 37t35.5 98v149zM249 -159q-13 13 -13 33t13 32.5t33 12.5t33 -12.5t13 -32.5t-13 -33t-33 -13t-33 13z" />
    <glyph glyph-name="uni1EDD" unicode="&#x1edd;" horiz-adv-x="621" 
d="M624 502v-11q0 -73 -32.5 -115t-90.5 -46v-6v-149q0 -82 -50 -132.5t-132 -50.5h-79q-80 0 -129 50.5t-49 132.5v149q0 82 49.5 132.5t130.5 50.5h79q67 0 113.5 -35.5t60.5 -95.5q38 2 58 31.5t20 83.5v11h51zM448 324q0 61 -35 98t-92 37h-79q-57 0 -91.5 -37
t-34.5 -98v-149q0 -61 34 -98t90 -37h79q58 0 93.5 37t35.5 98v149zM170 729h62l84 -144h-52z" />
    <glyph glyph-name="uni1EDF" unicode="&#x1edf;" horiz-adv-x="621" 
d="M624 502v-11q0 -73 -32.5 -115t-90.5 -46v-6v-149q0 -82 -50 -132.5t-132 -50.5h-79q-80 0 -129 50.5t-49 132.5v149q0 82 49.5 132.5t130.5 50.5h79q67 0 113.5 -35.5t60.5 -95.5q38 2 58 31.5t20 83.5v11h51zM448 324q0 61 -35 98t-92 37h-79q-57 0 -91.5 -37
t-34.5 -98v-149q0 -61 34 -98t90 -37h79q58 0 93.5 37t35.5 98v149zM255 588q0 19 11.5 31t32.5 25q19 13 27 20.5t8 19.5v11q0 35 -40 35h-22q-44 0 -44 -44h-45q0 41 23 63t66 22h22q41 0 63.5 -19.5t22.5 -56.5v-11q0 -23 -12.5 -37t-34.5 -29q-15 -9 -22 -16t-7 -15v-14
h-49v15z" />
    <glyph glyph-name="uni1EE1" unicode="&#x1ee1;" horiz-adv-x="621" 
d="M624 502v-11q0 -73 -32.5 -115t-90.5 -46v-6v-149q0 -82 -50 -132.5t-132 -50.5h-79q-80 0 -129 50.5t-49 132.5v149q0 82 49.5 132.5t130.5 50.5h79q67 0 113.5 -35.5t60.5 -95.5q38 2 58 31.5t20 83.5v11h51zM448 324q0 61 -35 98t-92 37h-79q-57 0 -91.5 -37
t-34.5 -98v-149q0 -61 34 -98t90 -37h79q58 0 93.5 37t35.5 98v149zM303.5 586.5q-15.5 9.5 -33.5 27.5q-15 14 -24.5 20.5t-21.5 6.5h-11q-16 0 -27 -13t-12 -35h-44q1 40 24.5 64t58.5 24h11q25 0 41 -10t35 -29q14 -13 22.5 -19t19.5 -6h12q14 0 24.5 13.5t11.5 35.5h45
q-1 -40 -23.5 -64.5t-57.5 -24.5h-12q-23 0 -38.5 9.5z" />
    <glyph glyph-name="ohungarumlaut" unicode="&#x151;" horiz-adv-x="563" 
d="M111 42.5q-49 50.5 -49 132.5v149q0 82 49.5 132.5t130.5 50.5h79q81 0 130.5 -50.5t49.5 -132.5v-149q0 -82 -50 -132.5t-132 -50.5h-79q-80 0 -129 50.5zM319 40q58 0 93.5 37t35.5 98v149q0 61 -35 98t-92 37h-79q-57 0 -91.5 -37t-34.5 -98v-149q0 -61 34 -98t90 -37
h79zM263 729h60l-87 -144h-47zM388 729h60l-86 -144h-47z" />
    <glyph glyph-name="omacron" unicode="&#x14d;" horiz-adv-x="563" 
d="M111 42.5q-49 50.5 -49 132.5v149q0 82 49.5 132.5t130.5 50.5h79q81 0 130.5 -50.5t49.5 -132.5v-149q0 -82 -50 -132.5t-132 -50.5h-79q-80 0 -129 50.5zM319 40q58 0 93.5 37t35.5 98v149q0 61 -35 98t-92 37h-79q-57 0 -91.5 -37t-34.5 -98v-149q0 -61 34 -98t90 -37
h79zM164 636h237v-41h-237v41z" />
    <glyph glyph-name="oslash" unicode="&#xf8;" horiz-adv-x="563" 
d="M452 456q24 -24 36.5 -58t12.5 -74v-149q0 -82 -50 -132.5t-132 -50.5h-79q-55 0 -94 24l-35 -50h-54l54 77q-24 24 -36.5 58t-12.5 74v149q0 82 49.5 132.5t130.5 50.5h79q56 0 96 -24l36 51h54zM142 87l247 355q-29 17 -68 17h-79q-57 0 -91.5 -37t-34.5 -98v-149
q0 -53 26 -88zM422 412l-248 -355q29 -17 66 -17h79q58 0 93.5 37t35.5 98v149q0 53 -26 88z" />
    <glyph glyph-name="oslashacute" unicode="&#x1ff;" horiz-adv-x="563" 
d="M452 456q24 -24 36.5 -58t12.5 -74v-149q0 -82 -50 -132.5t-132 -50.5h-79q-55 0 -94 24l-35 -50h-54l54 77q-24 24 -36.5 58t-12.5 74v149q0 82 49.5 132.5t130.5 50.5h79q56 0 96 -24l36 51h54zM142 87l247 355q-29 17 -68 17h-79q-57 0 -91.5 -37t-34.5 -98v-149
q0 -53 26 -88zM422 412l-248 -355q29 -17 66 -17h79q58 0 93.5 37t35.5 98v149q0 53 -26 88zM336 729h62l-94 -144h-52z" />
    <glyph glyph-name="otilde" unicode="&#xf5;" horiz-adv-x="563" 
d="M111 42.5q-49 50.5 -49 132.5v149q0 82 49.5 132.5t130.5 50.5h79q81 0 130.5 -50.5t49.5 -132.5v-149q0 -82 -50 -132.5t-132 -50.5h-79q-80 0 -129 50.5zM319 40q58 0 93.5 37t35.5 98v149q0 61 -35 98t-92 37h-79q-57 0 -91.5 -37t-34.5 -98v-149q0 -61 34 -98t90 -37
h79zM303.5 586.5q-15.5 9.5 -33.5 27.5q-15 14 -24.5 20.5t-21.5 6.5h-11q-16 0 -27 -13t-12 -35h-44q1 40 24.5 64t58.5 24h11q25 0 41 -10t35 -29q14 -13 22.5 -19t19.5 -6h12q14 0 24.5 13.5t11.5 35.5h45q-1 -40 -23.5 -64.5t-57.5 -24.5h-12q-23 0 -38.5 9.5z" />
    <glyph glyph-name="oe" unicode="&#x153;" horiz-adv-x="927" 
d="M499 242v-75q0 -57 33.5 -92t89.5 -35h75q54 0 86.5 31.5t32.5 82.5h53q0 -73 -47.5 -117.5t-124.5 -44.5h-75q-52 0 -91 22t-61 62q-22 -40 -61 -62t-92 -22h-77q-80 0 -129 50.5t-49 132.5v149q0 82 49.5 132.5t129.5 50.5h79q52 0 91.5 -22.5t60.5 -62.5
q21 40 59.5 62.5t89.5 22.5h81q76 0 122.5 -49.5t46.5 -131.5v-84h-372zM446 324q0 61 -35 98t-91 37h-79q-56 0 -90.5 -37t-34.5 -98v-149q0 -61 34 -98t90 -37h77q58 0 93.5 37t35.5 98v149zM499 288h318v38q0 60 -31.5 96.5t-83.5 36.5h-81q-55 0 -88.5 -37.5
t-33.5 -99.5v-34z" />
    <glyph glyph-name="p" unicode="p" horiz-adv-x="571" 
d="M82 499h52v-78q22 39 58.5 62.5t74.5 23.5h73q76 0 122.5 -49.5t46.5 -130.5v-136q0 -90 -47 -144.5t-126 -54.5h-73q-36 0 -70.5 21t-56.5 56v-268h-54v698zM335 40q55 0 88 41.5t33 109.5v136q0 59 -32 95.5t-85 36.5h-72q-44 0 -80.5 -35.5t-50.5 -85.5v-172
q9 -50 45 -88t84 -38h70z" />
    <glyph glyph-name="thorn" unicode="&#xfe;" horiz-adv-x="571" 
d="M82 700h54v-276q21 38 56.5 60.5t73.5 22.5h73q77 0 123.5 -49t46.5 -130v-138q0 -90 -48 -144.5t-127 -54.5h-71q-36 0 -71.5 20t-55.5 53v-265h-54v901zM333 39q56 0 89.5 41.5t33.5 109.5v138q0 59 -32.5 95t-85.5 36h-72q-44 0 -80 -34.5t-50 -90.5v-168
q8 -56 44.5 -91.5t85.5 -35.5h67z" />
    <glyph glyph-name="q" unicode="q" horiz-adv-x="571" 
d="M436 75q-24 -39 -60.5 -61t-74.5 -22h-73q-74 0 -120 50.5t-46 132.5v140q0 86 48.5 139t127.5 53h75q36 0 70 -19t54 -52v63h52v-702h-53v278zM299 40q50 0 88 39.5t49 98.5v168q-9 50 -43.5 81.5t-79.5 31.5h-75q-55 0 -88.5 -39.5t-33.5 -104.5v-140q0 -61 31 -98
t82 -37h70z" />
    <glyph glyph-name="r" unicode="r" horiz-adv-x="348" 
d="M82 499h52v-81q22 38 63 60.5t88 22.5h37v-48h-38q-65 0 -106.5 -42t-41.5 -109v-302h-54v499z" />
    <glyph glyph-name="racute" unicode="&#x155;" horiz-adv-x="348" 
d="M82 499h52v-81q22 38 63 60.5t88 22.5h37v-48h-38q-65 0 -106.5 -42t-41.5 -109v-302h-54v499zM254 729h62l-94 -144h-52z" />
    <glyph glyph-name="rcaron" unicode="&#x159;" horiz-adv-x="348" 
d="M82 499h52v-81q22 38 63 60.5t88 22.5h37v-48h-38q-65 0 -106.5 -42t-41.5 -109v-302h-54v499zM59 737h53l86 -114l86 114h53l-117 -152h-45z" />
    <glyph glyph-name="uni0157" unicode="&#x157;" horiz-adv-x="348" 
d="M82 499h52v-81q22 38 63 60.5t88 22.5h37v-48h-38q-65 0 -106.5 -42t-41.5 -109v-302h-54v499zM12 -222l12 8q33 22 47 46.5t14 60.5v29h54v-29q0 -52 -19.5 -87.5t-62.5 -61.5l-14 -9z" />
    <glyph glyph-name="uni1E5B" unicode="&#x1e5b;" horiz-adv-x="348" 
d="M82 499h52v-81q22 38 63 60.5t88 22.5h37v-48h-38q-65 0 -106.5 -42t-41.5 -109v-302h-54v499zM76 -159q-13 13 -13 33t13 32.5t33 12.5t33 -12.5t13 -32.5t-13 -33t-33 -13t-33 13z" />
    <glyph glyph-name="uni1E5D" unicode="&#x1e5d;" horiz-adv-x="348" 
d="M82 499h52v-81q22 38 63 60.5t88 22.5h37v-48h-38q-65 0 -106.5 -42t-41.5 -109v-302h-54v499zM76 -159q-13 13 -13 33t13 32.5t33 12.5t33 -12.5t13 -32.5t-13 -33t-33 -13t-33 13zM80 636h237v-41h-237v41z" />
    <glyph glyph-name="uni1E5F" unicode="&#x1e5f;" horiz-adv-x="348" 
d="M82 499h52v-81q22 38 63 60.5t88 22.5h37v-48h-38q-65 0 -106.5 -42t-41.5 -109v-302h-54v499zM-9 -82h237v-41h-237v41z" />
    <glyph glyph-name="s" unicode="s" horiz-adv-x="513" 
d="M99.5 33.5q-43.5 41.5 -43.5 109.5h52q0 -46 29.5 -75t76.5 -29h86q49 0 78.5 20t29.5 52v39q0 22 -16.5 39t-42.5 22l-174 30q-49 8 -78.5 37.5t-29.5 69.5v34q0 56 41.5 90.5t109.5 34.5h85q66 0 106.5 -38t40.5 -100h-52q-2 41 -27.5 66t-67.5 25h-85q-44 0 -71 -21.5
t-27 -56.5v-32q0 -23 18 -40.5t47 -21.5l174 -30q46 -8 74 -37t28 -69v-42q0 -53 -44 -85.5t-117 -32.5h-86q-71 0 -114.5 41.5z" />
    <glyph glyph-name="sacute" unicode="&#x15b;" horiz-adv-x="513" 
d="M99.5 33.5q-43.5 41.5 -43.5 109.5h52q0 -46 29.5 -75t76.5 -29h86q49 0 78.5 20t29.5 52v39q0 22 -16.5 39t-42.5 22l-174 30q-49 8 -78.5 37.5t-29.5 69.5v34q0 56 41.5 90.5t109.5 34.5h85q66 0 106.5 -38t40.5 -100h-52q-2 41 -27.5 66t-67.5 25h-85q-44 0 -71 -21.5
t-27 -56.5v-32q0 -23 18 -40.5t47 -21.5l174 -30q46 -8 74 -37t28 -69v-42q0 -53 -44 -85.5t-117 -32.5h-86q-71 0 -114.5 41.5zM316 729h62l-94 -144h-52z" />
    <glyph glyph-name="scaron" unicode="&#x161;" horiz-adv-x="513" 
d="M99.5 33.5q-43.5 41.5 -43.5 109.5h52q0 -46 29.5 -75t76.5 -29h86q49 0 78.5 20t29.5 52v39q0 22 -16.5 39t-42.5 22l-174 30q-49 8 -78.5 37.5t-29.5 69.5v34q0 56 41.5 90.5t109.5 34.5h85q66 0 106.5 -38t40.5 -100h-52q-2 41 -27.5 66t-67.5 25h-85q-44 0 -71 -21.5
t-27 -56.5v-32q0 -23 18 -40.5t47 -21.5l174 -30q46 -8 74 -37t28 -69v-42q0 -53 -44 -85.5t-117 -32.5h-86q-71 0 -114.5 41.5zM121 737h53l86 -114l86 114h53l-117 -152h-45z" />
    <glyph glyph-name="scedilla" unicode="&#x15f;" horiz-adv-x="513" 
d="M433 221q28 -29 28 -69v-42q0 -53 -44 -85.5t-117 -32.5h-16l-20 -45h7q39 0 61.5 -19.5t22.5 -53.5v-10q0 -34 -26.5 -54.5t-71.5 -20.5h-47v39h46q25 0 39.5 10t14.5 26v10q0 17 -12.5 27t-33.5 10h-44v37l19 44h-25q-71 0 -114.5 41.5t-43.5 109.5h52q0 -46 29.5 -75
t76.5 -29h86q49 0 78.5 20t29.5 52v39q0 22 -16.5 39t-42.5 22l-174 30q-49 8 -78.5 37.5t-29.5 69.5v34q0 56 41.5 90.5t109.5 34.5h85q66 0 106.5 -38t40.5 -100h-52q-2 41 -27.5 66t-67.5 25h-85q-44 0 -71 -21.5t-27 -56.5v-32q0 -23 18 -40.5t47 -21.5l174 -30
q46 -8 74 -37z" />
    <glyph glyph-name="scircumflex" unicode="&#x15d;" horiz-adv-x="513" 
d="M99.5 33.5q-43.5 41.5 -43.5 109.5h52q0 -46 29.5 -75t76.5 -29h86q49 0 78.5 20t29.5 52v39q0 22 -16.5 39t-42.5 22l-174 30q-49 8 -78.5 37.5t-29.5 69.5v34q0 56 41.5 90.5t109.5 34.5h85q66 0 106.5 -38t40.5 -100h-52q-2 41 -27.5 66t-67.5 25h-85q-44 0 -71 -21.5
t-27 -56.5v-32q0 -23 18 -40.5t47 -21.5l174 -30q46 -8 74 -37t28 -69v-42q0 -53 -44 -85.5t-117 -32.5h-86q-71 0 -114.5 41.5zM237 737h45l117 -152h-53l-86 114l-86 -114h-53z" />
    <glyph glyph-name="uni0219" unicode="&#x219;" horiz-adv-x="513" 
d="M99.5 33.5q-43.5 41.5 -43.5 109.5h52q0 -46 29.5 -75t76.5 -29h86q49 0 78.5 20t29.5 52v39q0 22 -16.5 39t-42.5 22l-174 30q-49 8 -78.5 37.5t-29.5 69.5v34q0 56 41.5 90.5t109.5 34.5h85q66 0 106.5 -38t40.5 -100h-52q-2 41 -27.5 66t-67.5 25h-85q-44 0 -71 -21.5
t-27 -56.5v-32q0 -23 18 -40.5t47 -21.5l174 -30q46 -8 74 -37t28 -69v-42q0 -53 -44 -85.5t-117 -32.5h-86q-71 0 -114.5 41.5zM170 -222l12 8q33 22 47 46.5t14 60.5v29h54v-29q0 -52 -19.5 -87.5t-62.5 -61.5l-14 -9z" />
    <glyph glyph-name="uni1E61" unicode="&#x1e61;" horiz-adv-x="513" 
d="M99.5 33.5q-43.5 41.5 -43.5 109.5h52q0 -46 29.5 -75t76.5 -29h86q49 0 78.5 20t29.5 52v39q0 22 -16.5 39t-42.5 22l-174 30q-49 8 -78.5 37.5t-29.5 69.5v34q0 56 41.5 90.5t109.5 34.5h85q66 0 106.5 -38t40.5 -100h-52q-2 41 -27.5 66t-67.5 25h-85q-44 0 -71 -21.5
t-27 -56.5v-32q0 -23 18 -40.5t47 -21.5l174 -30q46 -8 74 -37t28 -69v-42q0 -53 -44 -85.5t-117 -32.5h-86q-71 0 -114.5 41.5zM227 597.5q-13 12.5 -13 32.5t13 33t33 13t33 -13t13 -33t-13 -32.5t-33 -12.5t-33 12.5z" />
    <glyph glyph-name="uni1E63" unicode="&#x1e63;" horiz-adv-x="513" 
d="M99.5 33.5q-43.5 41.5 -43.5 109.5h52q0 -46 29.5 -75t76.5 -29h86q49 0 78.5 20t29.5 52v39q0 22 -16.5 39t-42.5 22l-174 30q-49 8 -78.5 37.5t-29.5 69.5v34q0 56 41.5 90.5t109.5 34.5h85q66 0 106.5 -38t40.5 -100h-52q-2 41 -27.5 66t-67.5 25h-85q-44 0 -71 -21.5
t-27 -56.5v-32q0 -23 18 -40.5t47 -21.5l174 -30q46 -8 74 -37t28 -69v-42q0 -53 -44 -85.5t-117 -32.5h-86q-71 0 -114.5 41.5zM234 -159q-13 13 -13 33t13 32.5t33 12.5t33 -12.5t13 -32.5t-13 -33t-33 -13t-33 13z" />
    <glyph glyph-name="germandbls" unicode="&#xdf;" horiz-adv-x="666" 
d="M315 29.5q-40 37.5 -40 99.5h53q0 -42 24.5 -65.5t69.5 -23.5h51q44 0 71 23.5t27 61.5v30q0 32 -21 54.5t-64 52.5q-48 34 -72 60.5t-24 66.5v20q0 54 31.5 83.5t91.5 31.5q0 61 -36 96.5t-96 35.5h-77q-65 0 -105.5 -38.5t-40.5 -101.5v-516h-54v422h-86v48h86v46
q0 85 55 136.5t145 51.5h77q83 0 133.5 -49.5t50.5 -131.5v-43h-39q-83 0 -83 -71v-20q0 -25 18.5 -44.5t58.5 -48.5q50 -34 77 -64.5t27 -76.5v-30q0 -60 -41.5 -96.5t-109.5 -36.5h-51q-67 0 -107 37.5z" />
    <glyph glyph-name="t" unicode="t" horiz-adv-x="375" 
d="M163 32.5q-33 32.5 -33 107.5v311h-88v48h88v151h53v-151h130v-48h-130v-311q0 -49 20 -70.5t67 -21.5h43v-48h-41q-76 0 -109 32.5z" />
    <glyph glyph-name="tbar" unicode="&#x167;" horiz-adv-x="370" 
d="M185 451v-162h128v-46h-128v-103q0 -49 20 -70.5t67 -21.5h43v-48h-41q-76 0 -109 32.5t-33 107.5v103h-90v46h90v162h-88v48h88v151h53v-151h130v-48h-130z" />
    <glyph glyph-name="tcaron" unicode="&#x165;" horiz-adv-x="515" 
d="M163 32.5q-33 32.5 -33 107.5v311h-88v48h88v151h53v-151h130v-48h-130v-311q0 -49 20 -70.5t67 -21.5h43v-48h-41q-76 0 -109 32.5zM367 558l12 8q32 21 46 46t14 61v27h54v-27q0 -52 -19 -87.5t-62 -61.5l-14 -9z" />
    <glyph glyph-name="uni0163" unicode="&#x163;" horiz-adv-x="375" 
d="M293.5 -68.5q22.5 -19.5 22.5 -52.5v-11q0 -34 -26.5 -54t-71.5 -20h-47v39h46q25 0 39.5 9.5t14.5 25.5v11q0 16 -12.5 26t-33.5 10h-44v37l24 56q-39 13 -57 44.5t-18 87.5v311h-88v48h88v151h53v-151h130v-48h-130v-311q0 -49 20 -70.5t67 -21.5h43v-48h-41
q-17 0 -25 1l-22 -50h7q39 0 61.5 -19.5z" />
    <glyph glyph-name="uni021B" unicode="&#x21b;" horiz-adv-x="375" 
d="M163 32.5q-33 32.5 -33 107.5v311h-88v48h88v151h53v-151h130v-48h-130v-311q0 -49 20 -70.5t67 -21.5h43v-48h-41q-76 0 -109 32.5zM137 -222l12 8q33 22 47 46.5t14 60.5v29h54v-29q0 -52 -19.5 -87.5t-62.5 -61.5l-14 -9z" />
    <glyph glyph-name="uni1E97" unicode="&#x1e97;" horiz-adv-x="375" 
d="M163 32.5q-33 32.5 -33 107.5v311h-88v48h88v151h53v-151h130v-48h-130v-311q0 -49 20 -70.5t67 -21.5h43v-48h-41q-76 0 -109 32.5zM38.5 747q-11.5 11 -11.5 30q0 18 11.5 29.5t29.5 11.5q19 0 30 -11.5t11 -29.5q0 -19 -11 -30t-30 -11q-18 0 -29.5 11zM225.5 747
q-11.5 11 -11.5 30q0 18 11.5 29.5t29.5 11.5q19 0 30 -11.5t11 -29.5q0 -19 -11 -30t-30 -11q-18 0 -29.5 11z" />
    <glyph glyph-name="uni1E6D" unicode="&#x1e6d;" horiz-adv-x="375" 
d="M163 32.5q-33 32.5 -33 107.5v311h-88v48h88v151h53v-151h130v-48h-130v-311q0 -49 20 -70.5t67 -21.5h43v-48h-41q-76 0 -109 32.5zM201 -159q-13 13 -13 33t13 32.5t33 12.5t33 -12.5t13 -32.5t-13 -33t-33 -13t-33 13z" />
    <glyph glyph-name="uni1E6F" unicode="&#x1e6f;" horiz-adv-x="375" 
d="M163 32.5q-33 32.5 -33 107.5v311h-88v48h88v151h53v-151h130v-48h-130v-311q0 -49 20 -70.5t67 -21.5h43v-48h-41q-76 0 -109 32.5zM116 -82h237v-41h-237v41z" />
    <glyph glyph-name="u" unicode="u" horiz-adv-x="563" 
d="M117 36.5q-41 44.5 -41 117.5v345h54v-346q0 -50 25.5 -81.5t67.5 -31.5h62q29 0 59 19t53 51.5t31 68.5v320h53v-499h-52v90q-25 -43 -65 -70.5t-77 -27.5h-64q-65 0 -106 44.5z" />
    <glyph glyph-name="uacute" unicode="&#xfa;" horiz-adv-x="563" 
d="M117 36.5q-41 44.5 -41 117.5v345h54v-346q0 -50 25.5 -81.5t67.5 -31.5h62q29 0 59 19t53 51.5t31 68.5v320h53v-499h-52v90q-25 -43 -65 -70.5t-77 -27.5h-64q-65 0 -106 44.5zM338 729h62l-94 -144h-52z" />
    <glyph glyph-name="ubreve" unicode="&#x16d;" horiz-adv-x="563" 
d="M117 36.5q-41 44.5 -41 117.5v345h54v-346q0 -50 25.5 -81.5t67.5 -31.5h62q29 0 59 19t53 51.5t31 68.5v320h53v-499h-52v90q-25 -43 -65 -70.5t-77 -27.5h-64q-65 0 -106 44.5zM181.5 611q-35.5 34 -35.5 89v6h45v-6q0 -39 23 -61.5t62 -22.5h12q39 0 62 22.5t23 61.5
v6h45v-6q0 -55 -35.5 -89t-94.5 -34h-12q-59 0 -94.5 34z" />
    <glyph glyph-name="uni01D4" unicode="&#x1d4;" horiz-adv-x="563" 
d="M117 36.5q-41 44.5 -41 117.5v345h54v-346q0 -50 25.5 -81.5t67.5 -31.5h62q29 0 59 19t53 51.5t31 68.5v320h53v-499h-52v90q-25 -43 -65 -70.5t-77 -27.5h-64q-65 0 -106 44.5zM143 737h53l86 -114l86 114h53l-117 -152h-45z" />
    <glyph glyph-name="ucircumflex" unicode="&#xfb;" horiz-adv-x="563" 
d="M117 36.5q-41 44.5 -41 117.5v345h54v-346q0 -50 25.5 -81.5t67.5 -31.5h62q29 0 59 19t53 51.5t31 68.5v320h53v-499h-52v90q-25 -43 -65 -70.5t-77 -27.5h-64q-65 0 -106 44.5zM259 737h45l117 -152h-53l-86 114l-86 -114h-53z" />
    <glyph glyph-name="udieresis" unicode="&#xfc;" horiz-adv-x="563" 
d="M117 36.5q-41 44.5 -41 117.5v345h54v-346q0 -50 25.5 -81.5t67.5 -31.5h62q29 0 59 19t53 51.5t31 68.5v320h53v-499h-52v90q-25 -43 -65 -70.5t-77 -27.5h-64q-65 0 -106 44.5zM158.5 596q-11.5 11 -11.5 30q0 18 11.5 29.5t29.5 11.5q19 0 30 -11.5t11 -29.5
q0 -19 -11 -30t-30 -11q-18 0 -29.5 11zM345.5 596q-11.5 11 -11.5 30q0 18 11.5 29.5t29.5 11.5q19 0 30 -11.5t11 -29.5q0 -19 -11 -30t-30 -11q-18 0 -29.5 11z" />
    <glyph glyph-name="uni01D8" unicode="&#x1d8;" horiz-adv-x="563" 
d="M117 36.5q-41 44.5 -41 117.5v345h54v-346q0 -50 25.5 -81.5t67.5 -31.5h62q29 0 59 19t53 51.5t31 68.5v320h53v-499h-52v90q-25 -43 -65 -70.5t-77 -27.5h-64q-65 0 -106 44.5zM319 824h55l-71 -107h-45zM158.5 596q-11.5 11 -11.5 30q0 18 11.5 29.5t29.5 11.5
q19 0 30 -11.5t11 -29.5q0 -19 -11 -30t-30 -11q-18 0 -29.5 11zM345.5 596q-11.5 11 -11.5 30q0 18 11.5 29.5t29.5 11.5q19 0 30 -11.5t11 -29.5q0 -19 -11 -30t-30 -11q-18 0 -29.5 11z" />
    <glyph glyph-name="uni01DA" unicode="&#x1da;" horiz-adv-x="563" 
d="M117 36.5q-41 44.5 -41 117.5v345h54v-346q0 -50 25.5 -81.5t67.5 -31.5h62q29 0 59 19t53 51.5t31 68.5v320h53v-499h-52v90q-25 -43 -65 -70.5t-77 -27.5h-64q-65 0 -106 44.5zM165 830h48l69 -91l69 91h48l-97 -126h-40zM158.5 596q-11.5 11 -11.5 30q0 18 11.5 29.5
t29.5 11.5q19 0 30 -11.5t11 -29.5q0 -19 -11 -30t-30 -11q-18 0 -29.5 11zM345.5 596q-11.5 11 -11.5 30q0 18 11.5 29.5t29.5 11.5q19 0 30 -11.5t11 -29.5q0 -19 -11 -30t-30 -11q-18 0 -29.5 11z" />
    <glyph glyph-name="uni01DC" unicode="&#x1dc;" horiz-adv-x="563" 
d="M117 36.5q-41 44.5 -41 117.5v345h54v-346q0 -50 25.5 -81.5t67.5 -31.5h62q29 0 59 19t53 51.5t31 68.5v320h53v-499h-52v90q-25 -43 -65 -70.5t-77 -27.5h-64q-65 0 -106 44.5zM188 824h55l61 -107h-45zM158.5 596q-11.5 11 -11.5 30q0 18 11.5 29.5t29.5 11.5
q19 0 30 -11.5t11 -29.5q0 -19 -11 -30t-30 -11q-18 0 -29.5 11zM345.5 596q-11.5 11 -11.5 30q0 18 11.5 29.5t29.5 11.5q19 0 30 -11.5t11 -29.5q0 -19 -11 -30t-30 -11q-18 0 -29.5 11z" />
    <glyph glyph-name="uni01D6" unicode="&#x1d6;" horiz-adv-x="563" 
d="M117 36.5q-41 44.5 -41 117.5v345h54v-346q0 -50 25.5 -81.5t67.5 -31.5h62q29 0 59 19t53 51.5t31 68.5v320h53v-499h-52v90q-25 -43 -65 -70.5t-77 -27.5h-64q-65 0 -106 44.5zM164 767h236v-41h-236v41zM158.5 596q-11.5 11 -11.5 30q0 18 11.5 29.5t29.5 11.5
q19 0 30 -11.5t11 -29.5q0 -19 -11 -30t-30 -11q-18 0 -29.5 11zM345.5 596q-11.5 11 -11.5 30q0 18 11.5 29.5t29.5 11.5q19 0 30 -11.5t11 -29.5q0 -19 -11 -30t-30 -11q-18 0 -29.5 11z" />
    <glyph glyph-name="uni1EE5" unicode="&#x1ee5;" horiz-adv-x="563" 
d="M117 36.5q-41 44.5 -41 117.5v345h54v-346q0 -50 25.5 -81.5t67.5 -31.5h62q29 0 59 19t53 51.5t31 68.5v320h53v-499h-52v90q-25 -43 -65 -70.5t-77 -27.5h-64q-65 0 -106 44.5zM249 -159q-13 13 -13 33t13 32.5t33 12.5t33 -12.5t13 -32.5t-13 -33t-33 -13t-33 13z" />
    <glyph glyph-name="ugrave" unicode="&#xf9;" horiz-adv-x="563" 
d="M117 36.5q-41 44.5 -41 117.5v345h54v-346q0 -50 25.5 -81.5t67.5 -31.5h62q29 0 59 19t53 51.5t31 68.5v320h53v-499h-52v90q-25 -43 -65 -70.5t-77 -27.5h-64q-65 0 -106 44.5zM170 729h62l84 -144h-52z" />
    <glyph glyph-name="uni1EE7" unicode="&#x1ee7;" horiz-adv-x="563" 
d="M117 36.5q-41 44.5 -41 117.5v345h54v-346q0 -50 25.5 -81.5t67.5 -31.5h62q29 0 59 19t53 51.5t31 68.5v320h53v-499h-52v90q-25 -43 -65 -70.5t-77 -27.5h-64q-65 0 -106 44.5zM255 588q0 19 11.5 31t32.5 25q19 13 27 20.5t8 19.5v11q0 35 -40 35h-22q-44 0 -44 -44
h-45q0 41 23 63t66 22h22q41 0 63.5 -19.5t22.5 -56.5v-11q0 -23 -12.5 -37t-34.5 -29q-15 -9 -22 -16t-7 -15v-14h-49v15z" />
    <glyph glyph-name="uhorn" unicode="&#x1b0;" horiz-adv-x="618" 
d="M607 500v-11q0 -74 -33.5 -116.5t-92.5 -45.5v-327h-52v90q-25 -43 -65 -70.5t-77 -27.5h-64q-65 0 -106 44.5t-41 117.5v345h54v-346q0 -50 25.5 -81.5t67.5 -31.5h62q29 0 59 19t53 51.5t31 68.5v320h53v-126q37 3 56 33t19 83v11h51z" />
    <glyph glyph-name="uni1EE9" unicode="&#x1ee9;" horiz-adv-x="618" 
d="M607 500v-11q0 -74 -33.5 -116.5t-92.5 -45.5v-327h-52v90q-25 -43 -65 -70.5t-77 -27.5h-64q-65 0 -106 44.5t-41 117.5v345h54v-346q0 -50 25.5 -81.5t67.5 -31.5h62q29 0 59 19t53 51.5t31 68.5v320h53v-126q37 3 56 33t19 83v11h51zM336 729h62l-94 -144h-52z" />
    <glyph glyph-name="uni1EF1" unicode="&#x1ef1;" horiz-adv-x="618" 
d="M607 500v-11q0 -74 -33.5 -116.5t-92.5 -45.5v-327h-52v90q-25 -43 -65 -70.5t-77 -27.5h-64q-65 0 -106 44.5t-41 117.5v345h54v-346q0 -50 25.5 -81.5t67.5 -31.5h62q29 0 59 19t53 51.5t31 68.5v320h53v-126q37 3 56 33t19 83v11h51zM247 -159q-13 13 -13 33t13 32.5
t33 12.5t33 -12.5t13 -32.5t-13 -33t-33 -13t-33 13z" />
    <glyph glyph-name="uni1EEB" unicode="&#x1eeb;" horiz-adv-x="618" 
d="M607 500v-11q0 -74 -33.5 -116.5t-92.5 -45.5v-327h-52v90q-25 -43 -65 -70.5t-77 -27.5h-64q-65 0 -106 44.5t-41 117.5v345h54v-346q0 -50 25.5 -81.5t67.5 -31.5h62q29 0 59 19t53 51.5t31 68.5v320h53v-126q37 3 56 33t19 83v11h51zM168 729h62l84 -144h-52z" />
    <glyph glyph-name="uni1EED" unicode="&#x1eed;" horiz-adv-x="618" 
d="M607 500v-11q0 -74 -33.5 -116.5t-92.5 -45.5v-327h-52v90q-25 -43 -65 -70.5t-77 -27.5h-64q-65 0 -106 44.5t-41 117.5v345h54v-346q0 -50 25.5 -81.5t67.5 -31.5h62q29 0 59 19t53 51.5t31 68.5v320h53v-126q37 3 56 33t19 83v11h51zM253 588q0 19 11.5 31t32.5 25
q19 13 27 20.5t8 19.5v11q0 35 -40 35h-22q-44 0 -44 -44h-45q0 41 23 63t66 22h22q41 0 63.5 -19.5t22.5 -56.5v-11q0 -23 -12.5 -37t-34.5 -29q-15 -9 -22 -16t-7 -15v-14h-49v15z" />
    <glyph glyph-name="uni1EEF" unicode="&#x1eef;" horiz-adv-x="618" 
d="M607 500v-11q0 -74 -33.5 -116.5t-92.5 -45.5v-327h-52v90q-25 -43 -65 -70.5t-77 -27.5h-64q-65 0 -106 44.5t-41 117.5v345h54v-346q0 -50 25.5 -81.5t67.5 -31.5h62q29 0 59 19t53 51.5t31 68.5v320h53v-126q37 3 56 33t19 83v11h51zM301.5 586.5
q-15.5 9.5 -33.5 27.5q-15 14 -24.5 20.5t-21.5 6.5h-11q-16 0 -27 -13t-12 -35h-44q1 40 24.5 64t58.5 24h11q25 0 41 -10t35 -29q14 -13 22.5 -19t19.5 -6h12q14 0 24.5 13.5t11.5 35.5h45q-1 -40 -23.5 -64.5t-57.5 -24.5h-12q-23 0 -38.5 9.5z" />
    <glyph glyph-name="uhungarumlaut" unicode="&#x171;" horiz-adv-x="563" 
d="M117 36.5q-41 44.5 -41 117.5v345h54v-346q0 -50 25.5 -81.5t67.5 -31.5h62q29 0 59 19t53 51.5t31 68.5v320h53v-499h-52v90q-25 -43 -65 -70.5t-77 -27.5h-64q-65 0 -106 44.5zM263 729h60l-87 -144h-47zM388 729h60l-86 -144h-47z" />
    <glyph glyph-name="umacron" unicode="&#x16b;" horiz-adv-x="563" 
d="M117 36.5q-41 44.5 -41 117.5v345h54v-346q0 -50 25.5 -81.5t67.5 -31.5h62q29 0 59 19t53 51.5t31 68.5v320h53v-499h-52v90q-25 -43 -65 -70.5t-77 -27.5h-64q-65 0 -106 44.5zM164 636h237v-41h-237v41z" />
    <glyph glyph-name="uogonek" unicode="&#x173;" horiz-adv-x="563" 
d="M501 -156q14 5 25 13v-43q-10 -8 -25 -12.5t-30 -4.5h-10q-43 0 -68.5 24.5t-25.5 65.5v11q0 31 17.5 59t45.5 43h-1v90q-25 -43 -65 -70.5t-77 -27.5h-64q-65 0 -106 44.5t-41 117.5v345h54v-346q0 -50 25.5 -81.5t67.5 -31.5h62q29 0 59 19t53 51.5t31 68.5v320h53
v-499q-31 -17 -48.5 -43t-17.5 -58v-10q0 -23 13 -36.5t36 -13.5h10q13 0 27 5z" />
    <glyph glyph-name="uring" unicode="&#x16f;" horiz-adv-x="563" 
d="M117 36.5q-41 44.5 -41 117.5v345h54v-346q0 -50 25.5 -81.5t67.5 -31.5h62q29 0 59 19t53 51.5t31 68.5v320h53v-499h-52v90q-25 -43 -65 -70.5t-77 -27.5h-64q-65 0 -106 44.5zM209 590q-28 27 -28 71t28 71t73 27t73 -27t28 -71t-28 -71t-73 -27t-73 27zM325.5 617.5
q16.5 16.5 16.5 43.5t-16.5 43t-43.5 16t-43.5 -16t-16.5 -43t16.5 -43.5t43.5 -16.5t43.5 16.5z" />
    <glyph glyph-name="utilde" unicode="&#x169;" horiz-adv-x="563" 
d="M117 36.5q-41 44.5 -41 117.5v345h54v-346q0 -50 25.5 -81.5t67.5 -31.5h62q29 0 59 19t53 51.5t31 68.5v320h53v-499h-52v90q-25 -43 -65 -70.5t-77 -27.5h-64q-65 0 -106 44.5zM303.5 586.5q-15.5 9.5 -33.5 27.5q-15 14 -24.5 20.5t-21.5 6.5h-11q-16 0 -27 -13
t-12 -35h-44q1 40 24.5 64t58.5 24h11q25 0 41 -10t35 -29q14 -13 22.5 -19t19.5 -6h12q14 0 24.5 13.5t11.5 35.5h45q-1 -40 -23.5 -64.5t-57.5 -24.5h-12q-23 0 -38.5 9.5z" />
    <glyph glyph-name="v" unicode="v" horiz-adv-x="486" 
d="M216.5 9.5q-11.5 9.5 -19.5 30.5l-175 459h57l164 -442h1l164 442h56l-192 -499h-26q-18 0 -29.5 9.5z" />
    <glyph glyph-name="w" unicode="w" horiz-adv-x="715" 
d="M677 499l-110 -450q-7 -26 -19 -37.5t-32 -11.5h-25l-131 402l-135 -402h-25q-20 0 -32 11.5t-19 37.5l-111 450h57l102 -439l141 425h21q21 0 30 -27l130 -399l101 440h57z" />
    <glyph glyph-name="wacute" unicode="&#x1e83;" horiz-adv-x="715" 
d="M677 499l-110 -450q-7 -26 -19 -37.5t-32 -11.5h-25l-131 402l-135 -402h-25q-20 0 -32 11.5t-19 37.5l-111 450h57l102 -439l141 425h21q21 0 30 -27l130 -399l101 440h57zM415 729h62l-94 -144h-52z" />
    <glyph glyph-name="wcircumflex" unicode="&#x175;" horiz-adv-x="715" 
d="M677 499l-110 -450q-7 -26 -19 -37.5t-32 -11.5h-25l-131 402l-135 -402h-25q-20 0 -32 11.5t-19 37.5l-111 450h57l102 -439l141 425h21q21 0 30 -27l130 -399l101 440h57zM336 737h45l117 -152h-53l-86 114l-86 -114h-53z" />
    <glyph glyph-name="wdieresis" unicode="&#x1e85;" horiz-adv-x="715" 
d="M677 499l-110 -450q-7 -26 -19 -37.5t-32 -11.5h-25l-131 402l-135 -402h-25q-20 0 -32 11.5t-19 37.5l-111 450h57l102 -439l141 425h21q21 0 30 -27l130 -399l101 440h57zM235.5 596q-11.5 11 -11.5 30q0 18 11.5 29.5t29.5 11.5q19 0 30 -11.5t11 -29.5q0 -19 -11 -30
t-30 -11q-18 0 -29.5 11zM422.5 596q-11.5 11 -11.5 30q0 18 11.5 29.5t29.5 11.5q19 0 30 -11.5t11 -29.5q0 -19 -11 -30t-30 -11q-18 0 -29.5 11z" />
    <glyph glyph-name="wgrave" unicode="&#x1e81;" horiz-adv-x="715" 
d="M677 499l-110 -450q-7 -26 -19 -37.5t-32 -11.5h-25l-131 402l-135 -402h-25q-20 0 -32 11.5t-19 37.5l-111 450h57l102 -439l141 425h21q21 0 30 -27l130 -399l101 440h57zM247 729h62l84 -144h-52z" />
    <glyph glyph-name="x" unicode="x" horiz-adv-x="481" 
d="M210 256l-178 243h61l148 -202l147 202h61l-178 -243l187 -256h-61l-156 214l-157 -214h-61z" />
    <glyph glyph-name="y" unicode="y" horiz-adv-x="565" 
d="M132 -170.5q-40 32.5 -45 85.5h53q4 -32 29.5 -51.5t63.5 -19.5h79q55 0 86.5 37t31.5 101v111q-27 -42 -65.5 -67.5t-75.5 -25.5h-65q-66 0 -107 44.5t-41 117.5v337h54v-338q0 -50 26 -81.5t68 -31.5h63q44 0 86.5 39.5t56.5 94.5v317h53v-517q0 -86 -46 -135.5
t-125 -49.5h-79q-61 0 -101 32.5z" />
    <glyph glyph-name="yacute" unicode="&#xfd;" horiz-adv-x="565" 
d="M132 -170.5q-40 32.5 -45 85.5h53q4 -32 29.5 -51.5t63.5 -19.5h79q55 0 86.5 37t31.5 101v111q-27 -42 -65.5 -67.5t-75.5 -25.5h-65q-66 0 -107 44.5t-41 117.5v337h54v-338q0 -50 26 -81.5t68 -31.5h63q44 0 86.5 39.5t56.5 94.5v317h53v-517q0 -86 -46 -135.5
t-125 -49.5h-79q-61 0 -101 32.5zM338 729h62l-94 -144h-52z" />
    <glyph glyph-name="ycircumflex" unicode="&#x177;" horiz-adv-x="565" 
d="M132 -170.5q-40 32.5 -45 85.5h53q4 -32 29.5 -51.5t63.5 -19.5h79q55 0 86.5 37t31.5 101v111q-27 -42 -65.5 -67.5t-75.5 -25.5h-65q-66 0 -107 44.5t-41 117.5v337h54v-338q0 -50 26 -81.5t68 -31.5h63q44 0 86.5 39.5t56.5 94.5v317h53v-517q0 -86 -46 -135.5
t-125 -49.5h-79q-61 0 -101 32.5zM259 737h45l117 -152h-53l-86 114l-86 -114h-53z" />
    <glyph glyph-name="ydieresis" unicode="&#xff;" horiz-adv-x="565" 
d="M132 -170.5q-40 32.5 -45 85.5h53q4 -32 29.5 -51.5t63.5 -19.5h79q55 0 86.5 37t31.5 101v111q-27 -42 -65.5 -67.5t-75.5 -25.5h-65q-66 0 -107 44.5t-41 117.5v337h54v-338q0 -50 26 -81.5t68 -31.5h63q44 0 86.5 39.5t56.5 94.5v317h53v-517q0 -86 -46 -135.5
t-125 -49.5h-79q-61 0 -101 32.5zM158.5 596q-11.5 11 -11.5 30q0 18 11.5 29.5t29.5 11.5q19 0 30 -11.5t11 -29.5q0 -19 -11 -30t-30 -11q-18 0 -29.5 11zM345.5 596q-11.5 11 -11.5 30q0 18 11.5 29.5t29.5 11.5q19 0 30 -11.5t11 -29.5q0 -19 -11 -30t-30 -11
q-18 0 -29.5 11z" />
    <glyph glyph-name="uni1E8F" unicode="&#x1e8f;" horiz-adv-x="565" 
d="M132 -170.5q-40 32.5 -45 85.5h53q4 -32 29.5 -51.5t63.5 -19.5h79q55 0 86.5 37t31.5 101v111q-27 -42 -65.5 -67.5t-75.5 -25.5h-65q-66 0 -107 44.5t-41 117.5v337h54v-338q0 -50 26 -81.5t68 -31.5h63q44 0 86.5 39.5t56.5 94.5v317h53v-517q0 -86 -46 -135.5
t-125 -49.5h-79q-61 0 -101 32.5zM249 597.5q-13 12.5 -13 32.5t13 33t33 13t33 -13t13 -33t-13 -32.5t-33 -12.5t-33 12.5z" />
    <glyph glyph-name="uni1EF5" unicode="&#x1ef5;" horiz-adv-x="565" 
d="M132 -170.5q-40 32.5 -45 85.5h53q4 -32 29.5 -51.5t63.5 -19.5h79q55 0 86.5 37t31.5 101v111q-27 -42 -65.5 -67.5t-75.5 -25.5h-65q-66 0 -107 44.5t-41 117.5v337h54v-338q0 -50 26 -81.5t68 -31.5h63q44 0 86.5 39.5t56.5 94.5v317h53v-517q0 -86 -46 -135.5
t-125 -49.5h-79q-61 0 -101 32.5zM251 -362q-13 13 -13 33t13 32.5t33 12.5t33 -12.5t13 -32.5t-13 -33t-33 -13t-33 13z" />
    <glyph glyph-name="ygrave" unicode="&#x1ef3;" horiz-adv-x="565" 
d="M132 -170.5q-40 32.5 -45 85.5h53q4 -32 29.5 -51.5t63.5 -19.5h79q55 0 86.5 37t31.5 101v111q-27 -42 -65.5 -67.5t-75.5 -25.5h-65q-66 0 -107 44.5t-41 117.5v337h54v-338q0 -50 26 -81.5t68 -31.5h63q44 0 86.5 39.5t56.5 94.5v317h53v-517q0 -86 -46 -135.5
t-125 -49.5h-79q-61 0 -101 32.5zM170 729h62l84 -144h-52z" />
    <glyph glyph-name="uni1EF7" unicode="&#x1ef7;" horiz-adv-x="565" 
d="M132 -170.5q-40 32.5 -45 85.5h53q4 -32 29.5 -51.5t63.5 -19.5h79q55 0 86.5 37t31.5 101v111q-27 -42 -65.5 -67.5t-75.5 -25.5h-65q-66 0 -107 44.5t-41 117.5v337h54v-338q0 -50 26 -81.5t68 -31.5h63q44 0 86.5 39.5t56.5 94.5v317h53v-517q0 -86 -46 -135.5
t-125 -49.5h-79q-61 0 -101 32.5zM255 588q0 19 11.5 31t32.5 25q19 13 27 20.5t8 19.5v11q0 35 -40 35h-22q-44 0 -44 -44h-45q0 41 23 63t66 22h22q41 0 63.5 -19.5t22.5 -56.5v-11q0 -23 -12.5 -37t-34.5 -29q-15 -9 -22 -16t-7 -15v-14h-49v15z" />
    <glyph glyph-name="uni1EF9" unicode="&#x1ef9;" horiz-adv-x="565" 
d="M132 -170.5q-40 32.5 -45 85.5h53q4 -32 29.5 -51.5t63.5 -19.5h79q55 0 86.5 37t31.5 101v111q-27 -42 -65.5 -67.5t-75.5 -25.5h-65q-66 0 -107 44.5t-41 117.5v337h54v-338q0 -50 26 -81.5t68 -31.5h63q44 0 86.5 39.5t56.5 94.5v317h53v-517q0 -86 -46 -135.5
t-125 -49.5h-79q-61 0 -101 32.5zM303.5 586.5q-15.5 9.5 -33.5 27.5q-15 14 -24.5 20.5t-21.5 6.5h-11q-16 0 -27 -13t-12 -35h-44q1 40 24.5 64t58.5 24h11q25 0 41 -10t35 -29q14 -13 22.5 -19t19.5 -6h12q14 0 24.5 13.5t11.5 35.5h45q-1 -40 -23.5 -64.5t-57.5 -24.5
h-12q-23 0 -38.5 9.5z" />
    <glyph glyph-name="z" unicode="z" horiz-adv-x="465" 
d="M42 22l303 432h-291v45h369v-22l-303 -431h298v-46h-376v22z" />
    <glyph glyph-name="zacute" unicode="&#x17a;" horiz-adv-x="465" 
d="M42 22l303 432h-291v45h369v-22l-303 -431h298v-46h-376v22zM289 729h62l-94 -144h-52z" />
    <glyph glyph-name="zcaron" unicode="&#x17e;" horiz-adv-x="465" 
d="M42 22l303 432h-291v45h369v-22l-303 -431h298v-46h-376v22zM94 737h53l86 -114l86 114h53l-117 -152h-45z" />
    <glyph glyph-name="zdotaccent" unicode="&#x17c;" horiz-adv-x="465" 
d="M42 22l303 432h-291v45h369v-22l-303 -431h298v-46h-376v22zM200 597.5q-13 12.5 -13 32.5t13 33t33 13t33 -13t13 -33t-13 -32.5t-33 -12.5t-33 12.5z" />
    <glyph glyph-name="uni1E93" unicode="&#x1e93;" horiz-adv-x="465" 
d="M42 22l303 432h-291v45h369v-22l-303 -431h298v-46h-376v22zM201 -159q-13 13 -13 33t13 32.5t33 12.5t33 -12.5t13 -32.5t-13 -33t-33 -13t-33 13z" />
    <glyph glyph-name="ordfeminine" unicode="&#xaa;" horiz-adv-x="421" 
d="M92 369q-30 26 -30 68v27q0 43 30 68.5t80 25.5h47q22 0 44.5 -6t37.5 -18v63q0 30 -17 48t-45 18h-55q-29 0 -46.5 -13t-17.5 -34h-48q0 40 31 65t81 25h55q49 0 79.5 -30t30.5 -79v-248h-47v50q-16 -25 -40.5 -40.5t-47.5 -15.5h-43q-49 0 -79 26zM214 386
q27 0 51 19.5t36 50.5v33q-12 12 -35 19.5t-48 7.5h-46q-28 0 -44.5 -14.5t-16.5 -37.5v-27q0 -23 16.5 -37t43.5 -14h43z" />
    <glyph glyph-name="ordmasculine" unicode="&#xba;" horiz-adv-x="434" 
d="M96.5 378.5q-34.5 35.5 -34.5 93.5v105q0 58 35 93.5t92 35.5h56q57 0 92 -35.5t35 -93.5v-105q0 -58 -35 -93.5t-91 -35.5h-58q-57 0 -91.5 35.5zM245 386q35 0 56.5 24t21.5 62v105q0 39 -21.5 62.5t-56.5 23.5h-56q-35 0 -56.5 -23.5t-21.5 -62.5v-105q0 -38 21.5 -62
t55.5 -24h57z" />
    <glyph glyph-name="uni207F" unicode="&#x207f;" horiz-adv-x="433" 
d="M74 700h47v-55q15 28 39.5 44.5t50.5 16.5h47q47 0 75 -32t28 -84v-241h-49v242q0 32 -15 52t-40 20h-46q-31 0 -55.5 -24.5t-32.5 -64.5v-225h-49v351z" />
    <glyph glyph-name="uni0394" unicode="&#x394;" horiz-adv-x="698" 
d="M62 48l267 652h47l260 -652v-48h-574v48zM580 49l-227 576l-234 -576h461z" />
    <glyph glyph-name="uni03A9" unicode="&#x3a9;" horiz-adv-x="755" 
d="M62 50h202v141q-80 4 -125 52t-45 128v127q0 99 60.5 154.5t168.5 55.5h109q107 0 167 -55.5t60 -154.5v-127q0 -81 -44.5 -128.5t-123.5 -51.5v-141h202v-50h-257v240h44q59 0 91.5 34.5t32.5 96.5v127q0 76 -45 118.5t-127 42.5h-109q-82 0 -128 -42.5t-46 -118.5v-127
q0 -62 33.5 -96.5t93.5 -34.5h43v-240h-257v50z" />
    <glyph glyph-name="uni03BC" unicode="&#x3bc;" horiz-adv-x="563" 
d="M481 499v-499h-52v90q-25 -43 -65 -70.5t-77 -27.5h-62q-63 0 -95 46v-221h-54v682h54v-349q0 -50 26 -80t69 -30h60q29 0 59 19t53 51.5t31 68.5v320h53z" />
    <glyph glyph-name="pi" unicode="&#x3c0;" horiz-adv-x="719" 
d="M532 451v-311q0 -49 20 -70.5t67 -21.5h38v-48h-36q-76 0 -109 32.5t-33 107.5v311h-248v-451h-54v451h-115v48h595v-48h-125z" />
    <glyph glyph-name="uni0E01" unicode="&#xe01;" horiz-adv-x="596" 
d="M126 275q0 76 -80 91q6 47 33.5 91.5t70 72.5t91.5 28h116q69 0 111 -41t42 -109v-408h-54v408q0 46 -28.5 74t-74.5 28h-111q-45 0 -83 -33t-55 -87q37 -16 56.5 -45.5t19.5 -69.5v-275h-54v275z" />
    <glyph glyph-name="uni0E02" unicode="&#xe02;" horiz-adv-x="549" 
d="M228.5 13.5q-13.5 13.5 -13.5 37.5v185q0 20 7.5 37.5t22.5 42.5q15 27 22.5 44.5t7.5 38.5v39q0 35 -20 56t-52 21h-32q-35 0 -55 -13.5t-29 -42.5l1 -1q15 12 40 12q37 0 59.5 -22.5t22.5 -59.5q0 -38 -24 -61t-63 -23t-63 24t-24 63v34q0 62 36.5 97.5t98.5 35.5h35
q54 0 86.5 -33t32.5 -87v-39q0 -27 -8.5 -48t-23.5 -48q-2 -3 -9.5 -17.5t-11 -26.5t-3.5 -23v-189h77q30 0 46.5 19.5t16.5 54.5v429h54v-428q0 -57 -30.5 -89.5t-84.5 -32.5h-82q-24 0 -37.5 13.5zM157 354q13 13 13 34q0 22 -13 34.5t-34 12.5q-22 0 -34.5 -12.5
t-12.5 -34.5q0 -21 12.5 -34t34.5 -13q21 0 34 13z" />
    <glyph glyph-name="uni0E03" unicode="&#xe03;" horiz-adv-x="559" 
d="M239.5 13.5q-13.5 13.5 -13.5 37.5v183q0 22 9 42t28 48q18 28 27 47.5t9 41.5v43q0 58 -32 58h-8l-52 -53l-55 53h-12q-55 0 -57 -72l1 -1q13 12 40 12q37 0 59.5 -22t22.5 -59q0 -38 -24 -61t-63 -23q-38 0 -61.5 24t-23.5 64v43q0 70 27 104.5t82 34.5h18l46 -46
l43 46h16q40 0 61 -25.5t21 -74.5v-45q0 -29 -9.5 -52t-27.5 -52q-16 -25 -23.5 -42.5t-7.5 -36.5v-183h77q29 0 45.5 19.5t16.5 54.5v429h54v-428q0 -57 -30 -89.5t-85 -32.5h-81q-24 0 -37.5 13.5zM153 338q13 13 13 34q0 20 -13 33t-34 13t-33.5 -13t-12.5 -33
q0 -21 12.5 -34t33.5 -13t34 13z" />
    <glyph glyph-name="uni0E04" unicode="&#xe04;" horiz-adv-x="622" 
d="M490 509.5q46 -48.5 46 -128.5v-381h-54v381q0 58 -31.5 93.5t-82.5 35.5h-103q-57 0 -92 -35.5t-35 -93.5v-299h2l80 184q18 42 39.5 60t55.5 18q41 0 65.5 -24t24.5 -64q0 -38 -25 -62.5t-65 -24.5q-23 0 -42 11t-30 29l-96 -209h-61v381q0 79 49.5 128t129.5 49h103
q76 0 122 -48.5zM279.5 292q-13.5 -13 -13.5 -36q0 -22 13.5 -35.5t35.5 -13.5t35.5 13.5t13.5 35.5t-13.5 35.5t-35.5 13.5t-35.5 -13z" />
    <glyph glyph-name="uni0E05" unicode="&#xe05;" horiz-adv-x="626" 
d="M505.5 513q34.5 -45 34.5 -124v-389h-54v389q0 56 -20 88t-55 32h-12l-85 -83l-84 83h-12q-37 0 -58.5 -32t-21.5 -88v-306h2l81 182q18 42 39.5 60t54.5 18q41 0 65.5 -24t24.5 -64q0 -38 -25 -62.5t-65 -24.5q-23 0 -42 11t-30 29l-97 -208h-60v389q0 79 35.5 124
t98.5 45h23l71 -73l72 73h23q62 0 96.5 -45zM279.5 290.5q-13.5 -13.5 -13.5 -35.5t13.5 -35.5t35.5 -13.5t35.5 13.5t13.5 35.5q0 23 -13 36t-36 13q-22 0 -35.5 -13.5z" />
    <glyph glyph-name="uni0E06" unicode="&#xe06;" horiz-adv-x="641" 
d="M132 17.5q-27 27.5 -27 74.5q0 54 33.5 85.5t90.5 31.5v25q0 22 10.5 41t33.5 49q22 28 33 47.5t11 41.5v43q0 58 -32 58h-9l-54 -53l-57 53h-13q-55 0 -57 -72l1 -1q13 12 40 12q37 0 59.5 -22t22.5 -59q0 -38 -24 -61t-63 -23q-38 0 -61.5 24t-23.5 64v43
q0 70 27 104.5t82 34.5h20l47 -46l44 46h18q40 0 61 -25.5t21 -74.5v-45q0 -28 -11.5 -50t-34.5 -54q-18 -24 -27.5 -41.5t-9.5 -36.5v-26q54 -10 112.5 -46t105.5 -89v480h54v-550h-54q-47 64 -105.5 106.5t-112.5 51.5v-150q-28 -18 -78 -18q-46 0 -73 27.5zM165 338
q13 13 13 34q0 20 -13 33t-34 13t-33.5 -13t-12.5 -33q0 -21 12.5 -34t33.5 -13t34 13zM232 37v127h-9q-34 0 -53 -19.5t-19 -52.5q0 -28 14 -44t39 -16q20 0 28 5z" />
    <glyph glyph-name="uni0E07" unicode="&#xe07;" horiz-adv-x="496" 
d="M384.5 535.5q25.5 -24.5 25.5 -64.5v-356q0 -54 -27.5 -84.5t-76.5 -30.5h-38q-33 0 -50 31l-180 323h59l171 -307h35q25 0 39 18t14 49v279q-17 -10 -40 -10q-41 0 -65.5 24t-24.5 64q0 41 25 65t67 24q41 0 66.5 -24.5zM354.5 435q13.5 14 13.5 36q0 23 -13.5 36.5
t-36.5 13.5q-22 0 -36 -13.5t-14 -36.5q0 -22 14 -36t36 -14q23 0 36.5 14z" />
    <glyph glyph-name="uni0E08" unicode="&#xe08;" horiz-adv-x="575" 
d="M448 516q41 -42 41 -111v-275q0 -63 -32.5 -96.5t-91.5 -33.5h-69q-25 0 -38.5 13t-13.5 38v130q-17 -10 -39 -10q-40 0 -64.5 24t-24.5 64q0 39 25 63.5t66 24.5t66 -24.5t25 -63.5v-211h66q71 0 71 81v275q0 48 -25.5 77t-68.5 29h-125q-52 0 -84 -36t-32 -93h-54
q0 80 47 128.5t123 48.5h124q67 0 108 -42zM243 223.5q13 13.5 13 35.5t-13.5 35.5t-35.5 13.5t-35.5 -13.5t-13.5 -35.5t13.5 -35.5t35.5 -13.5q23 0 36 13.5z" />
    <glyph glyph-name="uni0E09" unicode="&#xe09;" horiz-adv-x="614" 
d="M534.5 140q21.5 -23 21.5 -60q0 -40 -25 -65t-65 -25q-41 0 -66.5 25t-25.5 65q0 11 1 15l-141 -95h-57v159q-16 -8 -36 -8q-40 0 -64.5 24t-24.5 64q0 39 25 63.5t66 24.5q40 0 64 -24.5t24 -63.5v-188l238 159v194q0 48 -26 77t-69 29h-138q-52 0 -84 -32.5t-32 -84.5
h-53q0 74 46.5 119.5t122.5 45.5h138q67 0 108 -42t41 -111v-207l-46 -31q36 -4 57.5 -27zM107 203.5q13 -13.5 35 -13.5t35.5 13.5t13.5 35.5t-13 35.5t-35 13.5t-35.5 -13.5t-13.5 -35.5t13 -35.5zM500.5 42.5q13.5 13.5 13.5 36.5t-13.5 36.5t-35.5 13.5t-35.5 -14
t-13.5 -36t13.5 -36t35.5 -14t35.5 13.5z" />
    <glyph glyph-name="uni0E0A" unicode="&#xe0a;" horiz-adv-x="549" 
d="M467 478q-31 -50 -82 -71q38 -10 58 -33.5t20 -56.5v-195q0 -57 -30.5 -89.5t-84.5 -32.5h-82q-24 0 -37.5 13.5t-13.5 37.5v185q0 20 7.5 37.5t22.5 42.5q15 27 22.5 44.5t7.5 38.5v39q0 35 -20 56t-52 21h-32q-35 0 -55 -13.5t-29 -42.5l1 -1q15 12 40 12
q37 0 59.5 -22.5t22.5 -59.5q0 -38 -24 -61t-63 -23t-63 24t-24 63v34q0 62 36.5 97.5t98.5 35.5h35q54 0 86.5 -33t32.5 -87v-14q52 10 87 56.5t42 115.5l1 10h50l-1 -10q-6 -68 -37 -118zM88.5 422.5q-12.5 -12.5 -12.5 -34.5q0 -21 12.5 -34t34.5 -13q21 0 34 13t13 34
q0 22 -13 34.5t-34 12.5q-22 0 -34.5 -12.5zM324 386q-2 -23 -9.5 -41.5t-21.5 -41.5q-2 -3 -9.5 -17.5t-11 -26.5t-3.5 -23v-190h77q30 0 46.5 19.5t16.5 54.5v198q0 62 -85 68z" />
    <glyph glyph-name="uni0E0B" unicode="&#xe0b;" horiz-adv-x="560" 
d="M478 478q-30 -49 -78 -71q37 -9 55 -32.5t18 -57.5v-195q0 -57 -30 -89.5t-85 -32.5h-81q-24 0 -37.5 13.5t-13.5 37.5v183q0 22 9 42t28 48q18 28 27 47.5t9 41.5v43q0 58 -32 58h-8l-52 -53l-55 53h-12q-55 0 -57 -72l1 -1q13 12 40 12q37 0 59.5 -22t22.5 -59
q0 -38 -24 -61t-63 -23q-38 0 -61.5 24t-23.5 64v43q0 70 27 104.5t82 34.5h18l46 -46l43 46h16q40 0 61 -25.5t21 -74.5v-32q47 13 78.5 58.5t37.5 111.5l1 10h51l-1 -10q-7 -69 -37 -118zM85.5 405q-12.5 -13 -12.5 -33q0 -21 12.5 -34t33.5 -13t34 13t13 34q0 20 -13 33
t-34 13t-33.5 -13zM401 366q-18 17 -56 21q-4 -20 -12 -37t-23 -42t-22.5 -42t-7.5 -36v-184h77q29 0 45.5 19.5t16.5 54.5v198q0 31 -18 48z" />
    <glyph glyph-name="uni0E0C" unicode="&#xe0c;" horiz-adv-x="893" 
d="M807 550v-550h-54q-46 63 -108.5 105.5t-122.5 52.5v-151q-26 -17 -72 -17q-45 0 -70 27t-25 74q0 51 29.5 82.5t80.5 33.5v201q0 46 -29 74t-76 28h-118q-45 0 -83 -33t-55 -87q36 -16 55 -45.5t19 -69.5v-119q17 11 40 11q40 0 64.5 -24t24.5 -64t-25 -64.5t-66 -24.5
t-66.5 24.5t-25.5 64.5v196q0 39 -19 61.5t-59 29.5q6 47 33.5 91.5t70 72.5t91.5 28h123q69 0 111.5 -41.5t42.5 -108.5v-203q62 -11 125.5 -47t109.5 -88v480h54zM474 163h-9q-31 0 -48 -19.5t-17 -52.5q0 -60 49 -60q17 0 25 5v127zM179.5 114.5q-13.5 -13.5 -13.5 -35.5
t14 -36t36 -14t35.5 13.5t13.5 36.5t-13 36t-36 13t-36.5 -13.5z" />
    <glyph glyph-name="uni0E0D" unicode="&#xe0d;" horiz-adv-x="903" 
d="M817 550v-420q0 -61 -32 -95.5t-91 -34.5h-191q-25 0 -38.5 13.5t-13.5 38.5v356q0 46 -28.5 74t-75.5 28h-105q-45 0 -83 -33t-55 -87q36 -16 55 -45.5t19 -69.5v-119q17 11 40 11q40 0 64.5 -24t24.5 -64t-25 -64.5t-66 -24.5t-66.5 24.5t-25.5 64.5v196q0 39 -19 61.5
t-59 29.5q6 47 33.5 91.5t70 72.5t91.5 28h110q69 0 111 -41t42 -109v-359h185q74 0 74 80v421h54zM179.5 114.5q-13.5 -13.5 -13.5 -35.5t14 -36t36 -14t35.5 13.5t13.5 36.5t-13 36t-36 13t-36.5 -13.5zM716 -161q38 34 50 97h49q-12 -82 -65 -128.5t-136 -46.5
q-79 0 -127 28t-48 76q0 37 23 59t61 22t61 -22t23 -59q0 -19 -8 -34t-23 -22q15 -4 44 -4q58 0 96 34zM556.5 -167.5q12.5 12.5 12.5 32.5q0 21 -12.5 33.5t-33.5 12.5q-20 0 -33 -12.5t-13 -33.5q0 -20 13 -32.5t33 -12.5q21 0 33.5 12.5z" />
    <glyph glyph-name="yoYingthai.less" horiz-adv-x="903" 
d="M817 550v-420q0 -61 -32 -95.5t-91 -34.5h-191q-25 0 -38.5 13.5t-13.5 38.5v356q0 46 -28.5 74t-75.5 28h-105q-45 0 -83 -33t-55 -87q36 -16 55 -45.5t19 -69.5v-119q17 11 40 11q40 0 64.5 -24t24.5 -64t-25 -64.5t-66 -24.5t-66.5 24.5t-25.5 64.5v196q0 39 -19 61.5
t-59 29.5q6 47 33.5 91.5t70 72.5t91.5 28h110q69 0 111 -41t42 -109v-359h185q74 0 74 80v421h54zM179.5 114.5q-13.5 -13.5 -13.5 -35.5t14 -36t36 -14t35.5 13.5t13.5 36.5t-13 36t-36 13t-36.5 -13.5z" />
    <glyph glyph-name="uni0E0E" unicode="&#xe0e;" horiz-adv-x="615" 
d="M486.5 516.5q42.5 -41.5 42.5 -108.5v-498q0 -60 -27 -97.5t-87 -55.5l-120 81q-1 -37 -24.5 -60t-60.5 -23q-40 0 -64 24t-24 62t24 62t64 24q19 0 35 -5.5t37 -20.5l135 -89q30 9 44 33t14 65v498q0 46 -28.5 74t-75.5 28h-96q-46 0 -83 -33t-54 -87q38 -15 61 -46
t23 -69v-197q0 -39 -25 -63.5t-65 -24.5t-65 24.5t-25 63.5q0 40 24.5 64t64.5 24q22 0 37 -9v118q0 36 -23.5 59.5t-64.5 31.5q6 47 33 91.5t69.5 72.5t90.5 28h102q69 0 111.5 -41.5zM167.5 42.5q13.5 13.5 13.5 35.5t-13.5 35.5t-35.5 13.5t-35.5 -13.5t-13.5 -35.5
t13.5 -35.5t35.5 -13.5t35.5 13.5zM244 -194q13 13 13 35t-13 35t-34 13q-22 0 -35 -13t-13 -35t13 -35t35 -13q21 0 34 13z" />
    <glyph glyph-name="doChadathai.short" horiz-adv-x="615" 
d="M486.5 516.5q42.5 -41.5 42.5 -108.5v-453q0 -60 -27 -97.5t-87 -55.5l-120 81q-1 -37 -24.5 -60t-60.5 -23q-40 0 -64 24t-24 62t24 62t64 24q18 0 34 -6t38 -20l135 -89q30 9 44 33t14 65v453q0 46 -28.5 74t-75.5 28h-96q-46 0 -83 -33t-54 -87q38 -15 61 -46t23 -69
v-187q0 -39 -25 -63.5t-65 -24.5t-65 24.5t-25 63.5q0 40 24.5 64t64.5 24q22 0 37 -9v108q0 36 -23.5 59.5t-64.5 31.5q6 47 33 91.5t69.5 72.5t90.5 28h102q69 0 111.5 -41.5zM167.5 52.5q13.5 13.5 13.5 35.5t-13.5 35.5t-35.5 13.5t-35.5 -13.5t-13.5 -35.5t13.5 -35.5
t35.5 -13.5t35.5 13.5zM244 -149q13 13 13 35t-13 35t-34 13q-22 0 -35 -13t-13 -35t13 -35t35 -13q21 0 34 13z" />
    <glyph glyph-name="uni0E0F" unicode="&#xe0f;" horiz-adv-x="615" 
d="M486.5 516.5q42.5 -41.5 42.5 -108.5v-505q0 -52 -22.5 -86.5t-72.5 -54.5l-81 78l-55 -78l-58 60q-7 -30 -28.5 -48t-52.5 -18q-39 0 -62.5 23.5t-23.5 61.5t23.5 61.5t62.5 23.5t69 -31l65 -66l54 75l92 -85q36 20 36 84v505q0 46 -28.5 74t-75.5 28h-96
q-45 0 -82.5 -33t-54.5 -87q38 -15 61 -46t23 -69v-197q0 -39 -25 -63.5t-65 -24.5t-65 24.5t-25 63.5q0 40 24.5 64t64.5 24q22 0 37 -9v118q0 36 -23.5 59.5t-64.5 31.5q6 47 33 91.5t69.5 72.5t90.5 28h102q69 0 111.5 -41.5zM167.5 42.5q13.5 13.5 13.5 35.5t-13.5 35.5
t-35.5 13.5t-35.5 -13.5t-13.5 -35.5t13.5 -35.5t35.5 -13.5t35.5 13.5zM194 -194q13 13 13 35t-13 35t-35 13t-35 -13t-13 -35t13 -35t35 -13t35 13z" />
    <glyph glyph-name="toPatakthai.short" horiz-adv-x="615" 
d="M486.5 516.5q42.5 -41.5 42.5 -108.5v-461q0 -102 -94 -141l-79 77l-53 -77l-58 59q-7 -30 -28.5 -47.5t-52.5 -17.5q-39 0 -62.5 23.5t-23.5 61.5t23.5 61.5t62.5 23.5q40 0 70 -31l64 -67l51 76l89 -85q37 19 37 84v461q0 46 -28.5 74t-75.5 28h-96q-45 0 -82.5 -33
t-54.5 -87q38 -15 61 -46t23 -69v-187q0 -39 -25 -63.5t-65 -24.5t-65 24.5t-25 63.5q0 40 24.5 64t64.5 24q22 0 37 -9v108q0 36 -23.5 59.5t-64.5 31.5q6 47 33 91.5t69.5 72.5t90.5 28h102q69 0 111.5 -41.5zM167.5 52.5q13.5 13.5 13.5 35.5t-13.5 35.5t-35.5 13.5
t-35.5 -13.5t-13.5 -35.5t13.5 -35.5t35.5 -13.5t35.5 13.5zM199 -150q13 13 13 35t-13 35t-35 13t-35 -13t-13 -35t13 -35t35 -13t35 13z" />
    <glyph glyph-name="uni0E10" unicode="&#xe10;" horiz-adv-x="540" 
d="M391 291q-46 28 -132.5 53t-199.5 42q0 85 41.5 129.5t118.5 44.5q25 0 45.5 -6t49.5 -17q27 -11 46 -16.5t40 -5.5q42 0 76 32v-51q-13 -13 -32.5 -20.5t-40.5 -7.5q-23 0 -44 5.5t-51 16.5q-27 11 -47.5 16.5t-42.5 5.5q-47 0 -74 -23t-30 -66q96 -15 182.5 -42.5
t147.5 -63.5v-189q0 -60 -32 -94t-89 -34h-62q-25 0 -38.5 13t-13.5 38v82q-16 -8 -36 -8q-40 0 -64.5 24t-24.5 63t25 63t66 24q40 0 63.5 -24t23.5 -63v-165h58q37 0 54 20t17 61v163zM139 176.5q13 -13.5 35 -13.5t35.5 13.5t13.5 35.5t-13 35t-35 13t-35.5 -13
t-13.5 -35t13 -35.5zM472.5 -35q19.5 -19 19.5 -50v-84q0 -39 -25.5 -66.5t-65.5 -35.5l-64 60l-55 -60l-60 63q-5 -29 -28 -47.5t-54 -18.5q-39 0 -64 24t-25 63t24.5 63t63.5 24q23 0 40 -9.5t34 -27.5l71 -74l52 54l74 -68q19 7 29.5 22t10.5 36v23q-13 -8 -31 -8
q-31 0 -50 18.5t-19 49.5t19.5 49.5t51.5 18.5t51.5 -19zM447.5 -110.5q9.5 9.5 9.5 26.5q0 16 -10 26t-26 10t-26 -10t-10 -26q0 -17 10 -26.5t26 -9.5q17 0 26.5 9.5zM175 -223q13 13 13 36t-13.5 36.5t-35.5 13.5t-35.5 -14t-13.5 -36t13.5 -35.5t35.5 -13.5q23 0 36 13z
" />
    <glyph glyph-name="thoThanthai.less" horiz-adv-x="540" 
d="M144 489q-27 -23 -30 -66q96 -15 182.5 -42.5t147.5 -63.5v-189q0 -60 -32 -94t-89 -34h-62q-25 0 -38.5 13t-13.5 38v82q-16 -8 -36 -8q-40 0 -64.5 24t-24.5 63t25 63t66 24q40 0 63.5 -24t23.5 -63v-165h58q37 0 54 20t17 61v163q-46 28 -132.5 53t-199.5 42
q0 85 41.5 129.5t118.5 44.5q25 0 45.5 -6t49.5 -17q27 -11 46 -16.5t40 -5.5q42 0 76 32v-51q-13 -13 -32.5 -20.5t-40.5 -7.5q-23 0 -44 5.5t-51 16.5q-27 11 -47.5 16.5t-42.5 5.5q-47 0 -74 -23zM139 176.5q13 -13.5 35 -13.5t35.5 13.5t13.5 35.5t-13 35t-35 13
t-35.5 -13t-13.5 -35t13 -35.5z" />
    <glyph glyph-name="uni0E11" unicode="&#xe11;" horiz-adv-x="649" 
d="M201 179q0 31 9 55t27 56l12 22q22 37 33.5 66t11.5 66v13q0 28 -9.5 42.5t-26.5 14.5h-5l-50 -52l-52 52h-10q-55 0 -57 -73l1 -1q14 13 38 13q37 0 60.5 -22.5t23.5 -59.5t-24 -60t-63 -23q-38 0 -61.5 24t-23.5 64v43q0 70 27 104.5t82 34.5h16l43 -45l41 45h14
q40 0 60.5 -25.5t20.5 -74.5v-8q0 -22 -7 -40h2l31 44l78 104h18q48 0 75 -33t27 -91v-434h-54v434q0 35 -12.5 54.5t-34.5 19.5h-4l-119 -153q-42 -56 -63 -95t-21 -78v-182h-54v179zM154 337.5q13 12.5 13 33.5t-13 33.5t-34 12.5t-33.5 -12.5t-12.5 -33.5t12.5 -33.5
t33.5 -12.5t34 12.5z" />
    <glyph glyph-name="uni0E12" unicode="&#xe12;" horiz-adv-x="913" 
d="M827 550v-550h-53q-45 64 -103 107t-110 52v-151q-27 -18 -74 -18q-44 0 -69 27t-25 76t30 80t80 32v184q0 56 -20.5 88t-56.5 32h-12l-91 -83l-91 83h-12q-37 0 -58.5 -32t-21.5 -88v-341h14q65 0 109 38t62 93q-14 -8 -34 -8q-38 0 -62.5 24t-24.5 63q0 40 25 64t66 24
t65.5 -25t24.5 -66q0 -68 -30.5 -126.5t-85.5 -93.5t-125 -35h-58v389q0 79 36 124t100 45h23l78 -73l78 73h23q62 0 97 -44.5t35 -124.5v-184q58 -9 114 -44.5t103 -89.5v479h54zM259.5 222.5q13.5 -13.5 35.5 -13.5t35.5 13.5t13.5 35.5t-13.5 35.5t-35.5 13.5t-35.5 -13
t-13.5 -36q0 -22 13.5 -35.5zM513 162h-9q-31 0 -47.5 -18t-16.5 -51q0 -62 46 -62q19 0 27 5v126z" />
    <glyph glyph-name="uni0E13" unicode="&#xe13;" horiz-adv-x="887" 
d="M829.5 132q15.5 -22 15.5 -51q0 -41 -25 -66t-66 -25t-66.5 24.5t-25.5 64.5q0 34 20 52q-98 -25 -185 -131h-52v408q0 46 -28.5 74t-75.5 28h-99q-45 0 -83 -33t-55 -87q36 -16 55 -45.5t19 -69.5v-119q17 11 40 11q40 0 64.5 -24t24.5 -64t-25 -64.5t-66 -24.5
t-66.5 24.5t-25.5 64.5v196q0 39 -19 61.5t-59 29.5q6 47 33.5 91.5t70 72.5t91.5 28h104q69 0 111 -41t42 -109v-341q52 51 112 81t124 35v367h54v-387q26 -9 41.5 -31zM789 43q14 14 14 37t-13.5 36.5t-36.5 13.5q-22 0 -36 -13.5t-14 -36.5t14 -37t36 -14t36 14z
M179.5 114.5q-13.5 -13.5 -13.5 -35.5t14 -36t36 -14t35.5 13.5t13.5 36.5t-13 36t-36 13t-36.5 -13.5z" />
    <glyph glyph-name="uni0E14" unicode="&#xe14;" horiz-adv-x="624" 
d="M490.5 509q47.5 -49 47.5 -128v-381h-54v381q0 58 -32.5 93.5t-84.5 35.5h-105q-54 0 -88 -37t-34 -96v-330h18q70 0 117.5 40t64.5 96q-15 -9 -36 -9q-39 0 -63.5 24t-24.5 63q0 40 25 64t66 24t66 -25t25 -66q0 -74 -32 -133t-89 -92t-129 -33h-62v377q0 82 48.5 131.5
t127.5 49.5h105q76 0 123.5 -49zM271.5 225.5q13.5 -13.5 35.5 -13.5t35.5 13.5t13.5 35.5q0 23 -13 36t-36 13q-22 0 -35.5 -13.5t-13.5 -35.5t13.5 -35.5z" />
    <glyph glyph-name="uni0E15" unicode="&#xe15;" horiz-adv-x="628" 
d="M507 513.5q35 -44.5 35 -124.5v-389h-54v389q0 56 -20 88t-55 32h-13l-85 -83l-84 83h-13q-37 0 -57.5 -32t-20.5 -88v-342h19q70 0 117 39t64 94q-15 -9 -36 -9q-38 0 -62.5 24t-24.5 63q0 40 25 64t66 24t65.5 -25t24.5 -66q0 -74 -32 -132t-88.5 -90.5t-128.5 -32.5
h-63v389q0 80 35.5 124.5t99.5 44.5h23l71 -73l72 73h23q62 0 97 -44.5zM272.5 222.5q13.5 -13.5 35.5 -13.5t35.5 13.5t13.5 35.5t-13.5 35.5t-35.5 13.5t-35.5 -13t-13.5 -36q0 -22 13.5 -35.5z" />
    <glyph glyph-name="uni0E16" unicode="&#xe16;" horiz-adv-x="596" 
d="M468 517q42 -41 42 -109v-408h-54v408q0 46 -28.5 74t-74.5 28h-111q-45 0 -83 -33t-55 -87q36 -16 55 -45.5t19 -69.5v-119q17 11 40 11q40 0 64.5 -24t24.5 -64t-25 -64.5t-66 -24.5t-66.5 24.5t-25.5 64.5v196q0 39 -19 61.5t-59 29.5q6 47 33.5 91.5t70 72.5t91.5 28
h116q69 0 111 -41zM179.5 114.5q-13.5 -13.5 -13.5 -35.5t14 -36t36 -14t35.5 13.5t13.5 36.5t-13 36t-36 13t-36.5 -13.5z" />
    <glyph glyph-name="uni0E17" unicode="&#xe17;" horiz-adv-x="643" 
d="M526.5 524q30.5 -34 30.5 -95v-429h-54v429q0 37 -16 58.5t-45 21.5h-7l-206 -509h-63v393q-17 -10 -40 -10q-41 0 -65.5 24t-24.5 64t25.5 64.5t66.5 24.5q42 0 67 -24t25 -65v-373h1l184 460h36q55 0 85.5 -34zM164.5 435q13.5 14 13.5 36q0 23 -13.5 36.5t-36.5 13.5
q-22 0 -36 -13.5t-14 -36.5q0 -22 14 -36t36 -14q23 0 36.5 14z" />
    <glyph glyph-name="uni0E18" unicode="&#xe18;" horiz-adv-x="563" 
d="M126.5 13.5q-13.5 13.5 -13.5 38.5v216h54v-219h179q73 0 73 80v139q-100 60 -357 100q0 93 42 142.5t121 49.5q25 0 46 -6t51 -17q28 -11 47.5 -16.5t40.5 -5.5q42 0 76 32v-51q-13 -13 -32.5 -20.5t-40.5 -7.5q-23 0 -44.5 5.5t-52.5 16.5q-28 11 -49 16.5t-43 5.5
q-47 0 -75 -28t-32 -79q239 -40 356 -113v-162q0 -63 -32.5 -96.5t-94.5 -33.5h-181q-25 0 -38.5 13.5z" />
    <glyph glyph-name="uni0E19" unicode="&#xe19;" horiz-adv-x="631" 
d="M574 131.5q15 -21.5 15 -50.5q0 -41 -25.5 -66t-66.5 -25t-66 24.5t-25 64.5q0 34 21 53q-57 -13 -113 -49t-95 -83h-53v393q-17 -10 -40 -10q-41 0 -65.5 24t-24.5 64t25.5 64.5t66.5 24.5q42 0 67 -24t25 -65v-404q47 47 118 79t140 37v367h54v-387q27 -10 42 -31.5z
M164.5 435q13.5 14 13.5 36q0 23 -13.5 36.5t-36.5 13.5q-22 0 -36 -13.5t-14 -36.5q0 -22 14 -36t36 -14q23 0 36.5 14zM533 43q14 14 14 37t-13.5 36.5t-36.5 13.5q-22 0 -36 -13.5t-14 -36.5t14 -37t36 -14t36 14z" />
    <glyph glyph-name="uni0E1A" unicode="&#xe1a;" horiz-adv-x="641" 
d="M555 550v-420q0 -61 -32 -95.5t-91 -34.5h-214q-25 0 -38.5 13.5t-13.5 38.5v341q-17 -10 -40 -10q-41 0 -65.5 24t-24.5 64t25.5 64.5t66.5 24.5q42 0 67 -24t25 -65v-422h207q74 0 74 80v421h54zM164.5 435q13.5 14 13.5 36q0 23 -13.5 36.5t-36.5 13.5
q-22 0 -36 -13.5t-14 -36.5q0 -22 14 -36t36 -14q23 0 36.5 14z" />
    <glyph glyph-name="uni0E1B" unicode="&#xe1b;" horiz-adv-x="643" 
d="M557 762v-632q0 -61 -32 -95.5t-91 -34.5h-216q-25 0 -38.5 13.5t-13.5 38.5v341q-17 -10 -40 -10q-41 0 -65.5 24t-24.5 64t25.5 64.5t66.5 24.5q42 0 67 -24t25 -65v-422h209q74 0 74 80v633h54zM164.5 435q13.5 14 13.5 36q0 23 -13.5 36.5t-36.5 13.5
q-22 0 -36 -13.5t-14 -36.5q0 -22 14 -36t36 -14q23 0 36.5 14z" />
    <glyph glyph-name="uni0E1C" unicode="&#xe1c;" horiz-adv-x="615" 
d="M529 550v-506q0 -20 -10.5 -32t-29.5 -12h-17l-163 246l-165 -246h-17q-19 0 -30 11.5t-11 31.5v428q0 40 25.5 64.5t66.5 24.5q42 0 67.5 -24.5t25.5 -64.5t-24.5 -64t-65.5 -24q-25 0 -41 11v-323l161 240h7q11 0 18 -13l149 -226v478h54zM142 507.5
q-14 -13.5 -14 -36.5q0 -22 14 -36t36 -14q23 0 37 14t14 36t-14 36t-37 14q-22 0 -36 -13.5z" />
    <glyph glyph-name="uni0E1D" unicode="&#xe1d;" horiz-adv-x="617" 
d="M531 762v-718q0 -20 -10.5 -32t-29.5 -12h-17l-164 246l-166 -246h-17q-19 0 -30 11.5t-11 31.5v428q0 40 25.5 64.5t66.5 24.5q42 0 67.5 -24.5t25.5 -64.5t-24.5 -64t-65.5 -24q-25 0 -41 11v-323l162 240h7q11 0 18 -13l150 -226v690h54zM142 507.5
q-14 -13.5 -14 -36.5q0 -22 14 -36t36 -14q23 0 37 14t14 36t-14 36t-37 14q-22 0 -36 -13.5z" />
    <glyph glyph-name="uni0E1E" unicode="&#xe1e;" horiz-adv-x="693" 
d="M607 550v-503q0 -23 -12.5 -35t-35.5 -12h-22l-150 413l-151 -413h-22q-23 0 -35.5 12t-12.5 35v346q-17 -10 -40 -10q-41 0 -65.5 24t-24.5 64t25.5 64.5t66.5 24.5t66 -24.5t25 -64.5v-393h1l154 420h13q13 0 19 -17l147 -403h1v472h53zM164.5 435q13.5 14 13.5 36
q0 23 -13.5 36.5t-36.5 13.5q-22 0 -36 -13.5t-14 -36.5q0 -22 14 -36t36 -14q23 0 36.5 14z" />
    <glyph glyph-name="uni0E1F" unicode="&#xe1f;" horiz-adv-x="695" 
d="M609 762v-715q0 -23 -12.5 -35t-35.5 -12h-22l-151 413l-152 -413h-22q-23 0 -35.5 12t-12.5 35v346q-17 -10 -40 -10q-41 0 -65.5 24t-24.5 64t25.5 64.5t66.5 24.5t66 -24.5t25 -64.5v-393h1l155 420h13q13 0 19 -17l148 -403h1v684h53zM164.5 435q13.5 14 13.5 36
q0 23 -13.5 36.5t-36.5 13.5q-22 0 -36 -13.5t-14 -36.5q0 -22 14 -36t36 -14q23 0 36.5 14z" />
    <glyph glyph-name="uni0E20" unicode="&#xe20;" horiz-adv-x="614" 
d="M485.5 516.5q42.5 -41.5 42.5 -108.5v-408h-54v408q0 46 -28.5 74t-75.5 28h-95q-46 0 -83 -33t-54 -87q38 -15 61 -46t23 -69v-197q0 -39 -25 -63.5t-65 -24.5t-65 24.5t-25 63.5q0 40 24.5 64t64.5 24q22 0 37 -9v118q0 36 -23.5 59.5t-64.5 31.5q6 47 33 91.5
t69.5 72.5t90.5 28h101q69 0 111.5 -41.5zM167.5 42.5q13.5 13.5 13.5 35.5t-13.5 35.5t-35.5 13.5t-35.5 -13.5t-13.5 -35.5t13.5 -35.5t35.5 -13.5t35.5 13.5z" />
    <glyph glyph-name="uni0E21" unicode="&#xe21;" horiz-adv-x="620" 
d="M534 550v-550h-53q-43 61 -109.5 105t-131.5 55v-152q-28 -18 -78 -18q-46 0 -73 27.5t-27 74.5q0 55 33.5 86t90.5 31v184q-17 -10 -40 -10q-41 0 -65.5 24t-24.5 64t25.5 64.5t66.5 24.5q42 0 67 -24t25 -65v-265q65 -11 131 -48.5t109 -87.5v480h54zM184.5 435
q13.5 14 13.5 36q0 23 -13.5 36.5t-36.5 13.5q-22 0 -36 -13.5t-14 -36.5q0 -22 14 -36t36 -14q23 0 36.5 14zM189 164h-9q-34 0 -53 -19t-19 -53q0 -28 14 -44t39 -16q20 0 28 5v127z" />
    <glyph glyph-name="uni0E22" unicode="&#xe22;" horiz-adv-x="589" 
d="M503 550v-420q0 -61 -31.5 -95.5t-90.5 -34.5h-245q-25 0 -38.5 13.5t-13.5 38.5v67q0 103 81 143v1q-46 16 -68.5 47.5t-22.5 80.5t17.5 87.5t49 60t70.5 21.5q41 0 66.5 -24t25.5 -64q0 -39 -24.5 -63t-64.5 -24q-31 0 -53 17.5t-26 45.5q-11 -22 -11 -57
q0 -104 127 -104h36v-48h-36q-113 0 -113 -121v-69h238q73 0 73 80v421h54zM175.5 507.5q-13.5 -13.5 -13.5 -35.5t13.5 -35.5t35.5 -13.5t36 13.5t14 35.5t-13.5 35.5t-36.5 13.5q-22 0 -35.5 -13.5z" />
    <glyph glyph-name="uni0E23" unicode="&#xe23;" horiz-adv-x="496" 
d="M450 547v-51q-12 -13 -31 -20.5t-41 -7.5q-21 0 -41 5.5t-46 16.5q-28 11 -47.5 16.5t-42.5 5.5q-44 0 -71 -30t-30 -83q177 -38 293 -108v-212q0 -40 -25 -64.5t-67 -24.5q-41 0 -66.5 24.5t-25.5 64.5t24.5 64.5t65.5 24.5q23 0 40 -10v107q-47 29 -124 55t-169 44
q0 92 41.5 144t113.5 52q26 0 46.5 -6t48.5 -18q24 -10 41.5 -15.5t37.5 -5.5q43 0 75 32zM337.5 43q13.5 14 13.5 36q0 23 -13.5 36.5t-36.5 13.5q-22 0 -36 -13.5t-14 -36.5q0 -22 14 -36t36 -14q23 0 36.5 14z" />
    <glyph glyph-name="uni0E24" unicode="&#xe24;" horiz-adv-x="598" 
d="M470 517q42 -41 42 -109v-608h-54v608q0 46 -28.5 74t-74.5 28h-112q-45 0 -83.5 -33t-55.5 -87q37 -15 55.5 -45t18.5 -70v-119q17 11 40 11q40 0 64.5 -24t24.5 -64t-25 -64.5t-66 -24.5t-66.5 24.5t-25.5 64.5v196q0 39 -19 61.5t-59 29.5q6 47 33.5 91.5t70 72.5
t91.5 28h118q69 0 111 -41zM179.5 114.5q-13.5 -13.5 -13.5 -35.5t14 -36t36 -14t35.5 13.5t13.5 36.5t-13 36t-36 13t-36.5 -13.5z" />
    <glyph glyph-name="uni0E24.short" horiz-adv-x="598" 
d="M470 517q42 -41 42 -109v-528h-54v528q0 46 -28.5 74t-74.5 28h-112q-45 0 -83.5 -33t-55.5 -87q37 -15 55.5 -45t18.5 -70v-119q17 11 40 11q40 0 64.5 -24t24.5 -64t-25 -64.5t-66 -24.5t-66.5 24.5t-25.5 64.5v196q0 39 -19 61.5t-59 29.5q6 47 33.5 91.5t70 72.5
t91.5 28h118q69 0 111 -41zM179.5 114.5q-13.5 -13.5 -13.5 -35.5t14 -36t36 -14t35.5 13.5t13.5 36.5t-13 36t-36 13t-36.5 -13.5z" />
    <glyph glyph-name="uni0E25" unicode="&#xe25;" horiz-adv-x="580" 
d="M453 516q41 -42 41 -111v-405h-54v93q-9 94 -57 146.5t-125 52.5q-56 0 -87 -29t-31 -81v-25q17 10 40 10q40 0 64.5 -24t24.5 -64t-25.5 -64.5t-66.5 -24.5t-66 24.5t-25 64.5v96q0 78 45.5 122t126.5 44q60 0 108 -27t73 -76h1v166q0 48 -26 77t-69 29h-111
q-53 0 -85 -33t-32 -86h-53q0 75 47 121t123 46h111q67 0 108 -42zM141.5 115q-13.5 -13 -13.5 -36t13.5 -36.5t35.5 -13.5q23 0 36.5 14t13.5 36t-13.5 35.5t-36.5 13.5q-22 0 -35.5 -13z" />
    <glyph glyph-name="uni0E26" unicode="&#xe26;" horiz-adv-x="615" 
d="M486.5 516.5q42.5 -41.5 42.5 -108.5v-608h-54v608q0 46 -28.5 74t-75.5 28h-96q-46 0 -83 -33t-54 -87q38 -15 61 -46t23 -69v-197q0 -39 -25 -63.5t-65 -24.5t-65 24.5t-25 63.5q0 40 24.5 64t64.5 24q22 0 37 -9v118q0 36 -23.5 59.5t-64.5 31.5q6 47 33 91.5
t69.5 72.5t90.5 28h102q69 0 111.5 -41.5zM167.5 42.5q13.5 13.5 13.5 35.5t-13.5 35.5t-35.5 13.5t-35.5 -13.5t-13.5 -35.5t13.5 -35.5t35.5 -13.5t35.5 13.5z" />
    <glyph glyph-name="uni0E26.short" horiz-adv-x="615" 
d="M486.5 516.5q42.5 -41.5 42.5 -108.5v-528h-54v528q0 46 -28.5 74t-75.5 28h-96q-46 0 -83 -33t-54 -87q38 -15 61 -46t23 -69v-197q0 -39 -25 -63.5t-65 -24.5t-65 24.5t-25 63.5q0 40 24.5 64t64.5 24q22 0 37 -9v118q0 36 -23.5 59.5t-64.5 31.5q6 47 33 91.5
t69.5 72.5t90.5 28h102q69 0 111.5 -41.5zM167.5 42.5q13.5 13.5 13.5 35.5t-13.5 35.5t-35.5 13.5t-35.5 -13.5t-13.5 -35.5t13.5 -35.5t35.5 -13.5t35.5 13.5z" />
    <glyph glyph-name="uni0E27" unicode="&#xe27;" horiz-adv-x="527" 
d="M400 516q41 -42 41 -112v-325q0 -40 -25.5 -64.5t-66.5 -24.5q-42 0 -67 24.5t-25 64.5t24.5 64.5t65.5 24.5q23 0 40 -10v246q0 48 -26 77t-69 29h-90q-48 0 -77 -35t-29 -92h-54q0 79 44 127t116 48h90q67 0 108 -42zM385.5 43q13.5 14 13.5 36q0 23 -13.5 36.5
t-36.5 13.5q-22 0 -36 -13.5t-14 -36.5q0 -22 14 -36t36 -14q23 0 36.5 14z" />
    <glyph glyph-name="uni0E28" unicode="&#xe28;" horiz-adv-x="623" 
d="M465 527q34 -22 52.5 -59.5t18.5 -86.5v-381h-54v381q0 58 -32 93.5t-84 35.5h-101q-57 0 -92 -35.5t-35 -93.5v-298h2l80 183q18 42 39.5 60t55.5 18q41 0 65.5 -24t24.5 -64q0 -38 -25 -62.5t-65 -24.5q-23 0 -42.5 10.5t-29.5 29.5l-96 -209h-61v381q0 79 49.5 128
t129.5 49h104q57 0 84 12.5t38 44.5l3 9h54l-2 -8q-15 -68 -81 -89zM279.5 292q-13.5 -13 -13.5 -36q0 -22 13.5 -35.5t35.5 -13.5t35.5 13.5t13.5 35.5t-13.5 35.5t-35.5 13.5t-35.5 -13z" />
    <glyph glyph-name="uni0E29" unicode="&#xe29;" horiz-adv-x="683" 
d="M663 337l-1 -7q-8 -52 -32.5 -79t-63.5 -35v-86q0 -61 -32 -95.5t-91 -34.5h-225q-25 0 -38.5 13.5t-13.5 38.5v341q-17 -10 -40 -10q-41 0 -65.5 24t-24.5 64t25.5 64.5t66.5 24.5q42 0 67 -24t25 -65v-422h218q74 0 74 80v83h-138q-40 0 -64.5 23.5t-24.5 62.5
q0 37 24 60.5t62 23.5t62 -23t24 -60q0 -26 -14 -42h69v294h54v-289q43 12 51 68l1 7h45zM164.5 435q13.5 14 13.5 36q0 23 -13.5 36.5t-36.5 13.5q-22 0 -36 -13.5t-14 -36.5q0 -22 14 -36t36 -14q23 0 36.5 14zM404 264q13 13 13 34q0 20 -13 32.5t-33 12.5t-32.5 -12.5
t-12.5 -32.5q0 -21 12.5 -34t32.5 -13t33 13z" />
    <glyph glyph-name="uni0E2A" unicode="&#xe2a;" horiz-adv-x="580" 
d="M437 524q28 -18 42.5 -49.5t14.5 -71.5v-403h-54v93q-9 94 -57 146.5t-125 52.5q-56 0 -87 -29t-31 -81v-25q17 10 40 10q40 0 64.5 -24t24.5 -64t-25.5 -64.5t-66.5 -24.5t-66 24.5t-25 64.5v96q0 78 45.5 122t126.5 44q60 0 108 -27t73 -76h1v165q0 48 -26 77.5
t-68 29.5h-112q-53 0 -85 -33t-32 -86h-53q0 75 47 121t123 46h123q47 0 69 12t33 45l3 9h54l-2 -8q-17 -71 -77 -92zM141.5 115q-13.5 -13 -13.5 -36t13.5 -36.5t35.5 -13.5q23 0 36.5 14t13.5 36t-13.5 35.5t-36.5 13.5q-22 0 -35.5 -13z" />
    <glyph glyph-name="uni0E2B" unicode="&#xe2b;" horiz-adv-x="638" 
d="M543 368.5q6 -15.5 6 -42.5v-326h-54v329q0 18 -5 27t-18 10l-246 -366h-60v393q-17 -10 -40 -10q-41 0 -65.5 24t-24.5 64t25.5 64.5t66.5 24.5q42 0 67 -24t25 -65v-399l216 324q-21 11 -33 31t-12 45q0 40 24.5 64t65.5 24t66 -24t25 -64q0 -26 -13 -46t-37 -31v-1
q15 -10 21 -25.5zM517 436.5q13 13.5 13 35.5q0 23 -13.5 36.5t-35.5 13.5t-35.5 -13.5t-13.5 -36.5q0 -22 13.5 -35.5t35.5 -13.5q23 0 36 13.5zM164.5 435q13.5 14 13.5 36q0 23 -13.5 36.5t-36.5 13.5q-22 0 -36 -13.5t-14 -36.5q0 -22 14 -36t36 -14q23 0 36.5 14z" />
    <glyph glyph-name="uni0E2C" unicode="&#xe2c;" horiz-adv-x="696" 
d="M701 755l-1 -8q-6 -46 -30 -79.5t-61 -50.5v-570q0 -23 -12.5 -35t-35.5 -12h-22l-151 413l-152 -413h-22q-23 0 -35.5 12t-12.5 35v346q-17 -10 -40 -10q-41 0 -65.5 24t-24.5 64t25.5 64.5t66.5 24.5t66 -24.5t25 -64.5v-393h1l155 420h13q13 0 19 -17l148 -403h1v526
q-5 -1 -16 -1q-43 0 -69 23t-26 61t23.5 61.5t63.5 23.5q38 0 61.5 -22.5t23.5 -60.5q0 -14 -6 -25h1q17 8 29.5 30.5t16.5 52.5l1 8h42zM566 653.5q13 12.5 13 33.5t-13 34t-34 13t-33.5 -13t-12.5 -34t12.5 -33.5t33.5 -12.5t34 12.5zM164.5 435q13.5 14 13.5 36
q0 23 -13.5 36.5t-36.5 13.5q-22 0 -36 -13.5t-14 -36.5q0 -22 14 -36t36 -14q23 0 36.5 14z" />
    <glyph glyph-name="loChulathai.short" horiz-adv-x="711" 
d="M701 569l-1 -8q-6 -47 -30 -80.5t-61 -50.5v-383q0 -23 -12.5 -35t-35.5 -12h-22l-151 346l-152 -346h-22q-23 0 -35.5 12t-12.5 35v346q-17 -10 -40 -10q-41 0 -65.5 24t-24.5 64t25.5 64.5t66.5 24.5t66 -24.5t25 -64.5v-403h1l156 354h12q11 0 19 -17l148 -337h1v349
q-5 -1 -16 -1q-43 0 -69 23.5t-26 61.5t23.5 61.5t63.5 23.5q38 0 61.5 -23t23.5 -60q0 -16 -6 -25l1 -1q17 8 29.5 31t16.5 53l1 8h42zM566 467q13 13 13 34t-13 34t-34 13t-33.5 -13t-12.5 -34t12.5 -34t33.5 -13t34 13zM164.5 435q13.5 14 13.5 36q0 23 -13.5 36.5
t-36.5 13.5q-22 0 -36 -13.5t-14 -36.5q0 -22 14 -36t36 -14q23 0 36.5 14z" />
    <glyph glyph-name="uni0E2D" unicode="&#xe2d;" horiz-adv-x="589" 
d="M462 516q41 -42 41 -111v-275q0 -61 -32 -95.5t-91 -34.5h-230q-25 0 -38.5 13.5t-13.5 38.5v210q0 40 25 64t66 24t66 -24t25 -64q0 -39 -24 -63t-64 -24q-24 0 -40 11v-137h226q37 0 54 20t17 60v275q0 48 -26.5 77t-69.5 29h-127q-53 0 -85 -33t-32 -86h-53
q0 74 47.5 120.5t122.5 46.5h127q68 0 109 -42zM153.5 298q-13.5 -13 -13.5 -36q0 -22 13.5 -35.5t35.5 -13.5t35.5 13.5t13.5 35.5t-13.5 35.5t-35.5 13.5t-35.5 -13z" />
    <glyph glyph-name="uni0E2E" unicode="&#xe2e;" horiz-adv-x="593" 
d="M495 483q12 -30 12 -67v-286q0 -61 -32 -95.5t-91 -34.5h-237q-25 0 -38.5 13.5t-13.5 38.5v171q0 39 25 63.5t66 24.5t66 -24.5t25 -63.5q0 -40 -24 -64t-64 -24q-24 0 -40 11v-97h233q37 0 54 20t17 60v287q0 36 -11 60h-1q-15 -55 -51.5 -87t-95.5 -32h-110
q-56 0 -87 26.5t-31 73.5q0 48 33.5 74.5t92.5 26.5h190q21 0 36 -4q3 13 7 48l1 11h47l-1 -11q-2 -29 -10 -70q21 -19 33 -49zM369 427q28 27 41 83q-10 5 -29 5h-191q-35 0 -55 -15.5t-20 -42.5t18 -42t51 -15h110q47 0 75 27zM150.5 258.5q-13.5 -13.5 -13.5 -35.5
t13.5 -35.5t35.5 -13.5q23 0 36 13.5t13 35.5t-13.5 35.5t-35.5 13.5t-35.5 -13.5z" />
    <glyph glyph-name="uni0E30" unicode="&#xe30;" horiz-adv-x="497" 
d="M106.5 353q-50.5 35 -50.5 92q0 40 25 64.5t66 24.5t65.5 -24t24.5 -64q0 -27 -16.5 -47t-42.5 -25v-1q23 -10 66 -10q64 0 103 42.5t47 121.5h51q-7 -101 -60 -155t-145 -54q-83 0 -133.5 35zM182 411q13 13 13 35t-13 35.5t-35 13.5t-35.5 -13.5t-13.5 -35.5t13.5 -35
t35.5 -13t35 13zM106.5 49q-50.5 35 -50.5 92q0 40 25 64.5t66 24.5t65.5 -24t24.5 -64q0 -27 -16.5 -47t-42.5 -25v-1q23 -10 66 -10q64 0 103 42.5t47 121.5h51q-7 -101 -60 -155t-145 -54q-83 0 -133.5 35zM182 107q13 13 13 35t-13 35.5t-35 13.5t-35.5 -13.5
t-13.5 -35.5t13.5 -35t35.5 -13t35 13z" />
    <glyph glyph-name="uni0E32" unicode="&#xe32;" horiz-adv-x="512" 
d="M372 404q0 48 -26 77t-69 29h-75q-48 0 -77.5 -35t-29.5 -91h-53q0 78 44 126t116 48h75q67 0 108 -42t41 -112v-404h-54v404z" />
    <glyph glyph-name="uni0E33" unicode="&#xe33;" horiz-adv-x="512" 
d="M-193.5 678q-27.5 27 -27.5 72q0 44 27.5 71t73.5 27q45 0 73 -27t28 -71q0 -45 -28 -72t-73 -27q-46 0 -73.5 27zM-77.5 707.5q16.5 16.5 16.5 42.5t-16.5 42t-42.5 16q-27 0 -43 -16t-16 -42t16 -42.5t43 -16.5q26 0 42.5 16.5zM372 404q0 48 -26 77t-69 29h-75
q-48 0 -77.5 -35t-29.5 -91h-53q0 78 44 126t116 48h75q67 0 108 -42t41 -112v-404h-54v404z" />
    <glyph glyph-name="uni0E40" unicode="&#xe40;" horiz-adv-x="306" 
d="M246 144q24 -24 24 -65q0 -40 -25 -64.5t-67 -24.5q-41 0 -66.5 24.5t-25.5 64.5v471h54v-393q17 11 41 11q41 0 65 -24zM214.5 43q13.5 14 13.5 36q0 23 -13.5 36.5t-36.5 13.5q-22 0 -36 -13.5t-14 -36.5q0 -22 14 -36t36 -14q23 0 36.5 14z" />
    <glyph glyph-name="uni0E41" unicode="&#xe41;" horiz-adv-x="571" 
d="M246 144q24 -24 24 -65q0 -40 -25 -64.5t-67 -24.5q-41 0 -66.5 24.5t-25.5 64.5v471h54v-393q17 11 41 11q41 0 65 -24zM511 144q24 -24 24 -65q0 -40 -25 -64.5t-67 -24.5q-41 0 -66.5 24.5t-25.5 64.5v471h54v-393q17 11 41 11q41 0 65 -24zM214.5 43q13.5 14 13.5 36
q0 23 -13.5 36.5t-36.5 13.5q-22 0 -36 -13.5t-14 -36.5q0 -22 14 -36t36 -14q23 0 36.5 14zM479.5 43q13.5 14 13.5 36q0 23 -13.5 36.5t-36.5 13.5q-22 0 -36 -13.5t-14 -36.5q0 -22 14 -36t36 -14q23 0 36.5 14z" />
    <glyph glyph-name="uni0E42" unicode="&#xe42;" horiz-adv-x="392" 
d="M65.5 867q-23.5 -26 -25.5 -72q64 -21 112 -47.5t74 -55.5v-534q17 10 40 10q41 0 65.5 -24.5t24.5 -64.5t-25.5 -64.5t-66.5 -24.5q-42 0 -67 24.5t-25 64.5v597q-26 24 -74.5 48.5t-111.5 41.5q0 82 38.5 128t106.5 46q24 0 43.5 -5.5t48.5 -17.5q20 -10 36.5 -15
t34.5 -5q35 0 66 29v-50q-12 -12 -29.5 -19t-36.5 -7q-22 0 -38.5 5t-42.5 16q-24 11 -41.5 16.5t-40.5 5.5q-42 0 -65.5 -26zM228 115.5q-14 -13.5 -14 -36.5q0 -22 14 -36t36 -14q23 0 36.5 14t13.5 36q0 23 -13.5 36.5t-36.5 13.5q-22 0 -36 -13.5z" />
    <glyph glyph-name="uni0E43" unicode="&#xe43;" horiz-adv-x="407" 
d="M346.5 143.5q24.5 -24.5 24.5 -64.5t-25.5 -64.5t-66.5 -24.5q-42 0 -67 24.5t-25 64.5v500q0 20 10.5 38t30.5 43q25 32 38 57t13 56v32q0 41 -25 67t-65 26h-37q-39 0 -65 -19.5t-34 -52.5l1 -1q17 14 43 14q38 0 60.5 -22.5t22.5 -60.5t-24.5 -62t-64.5 -24t-64.5 25
t-24.5 66v32q0 68 41.5 109t109.5 41h37q63 0 101.5 -38t38.5 -100v-32q0 -39 -14 -67.5t-40 -62.5q-18 -24 -26.5 -39t-8.5 -32v-414q17 10 40 10q41 0 65.5 -24.5zM57 790q-13 -13 -13 -34q0 -22 13 -35t34 -13q22 0 35 13t13 35q0 21 -13 34t-35 13q-21 0 -34 -13z
M315.5 43q13.5 14 13.5 36q0 23 -13.5 36.5t-36.5 13.5q-22 0 -36 -13.5t-14 -36.5q0 -22 14 -36t36 -14q23 0 36.5 14z" />
    <glyph glyph-name="uni0E44" unicode="&#xe44;" horiz-adv-x="427" 
d="M366.5 143.5q24.5 -24.5 24.5 -64.5t-25.5 -64.5t-66.5 -24.5q-42 0 -67 24.5t-25 64.5v804l-125 -175h-9q-13 0 -22 16l-127 210h53l97 -166l121 172h13q53 0 53 -50v-732q17 10 40 10q41 0 65.5 -24.5zM335.5 43q13.5 14 13.5 36q0 23 -13.5 36.5t-36.5 13.5
q-22 0 -36 -13.5t-14 -36.5q0 -22 14 -36t36 -14q23 0 36.5 14z" />
    <glyph glyph-name="uni0E45" unicode="&#xe45;" horiz-adv-x="512" 
d="M372 404q0 48 -26 77t-69 29h-75q-48 0 -77.5 -35t-29.5 -91h-53q0 78 44 126t116 48h75q67 0 108 -42t41 -112v-604h-54v604z" />
    <glyph glyph-name="uni210A" unicode="&#x210a;" horiz-adv-x="581" 
d="M559 -45l-70 -7v-30q0 -82 -46 -130t-125 -48h-97q-56 0 -91 27.5t-35 72.5v21q0 46 35.5 73t103.5 34l202 21v111q-23 -36 -60 -58t-74 -22h-74q-74 0 -120 50.5t-46 133.5v112q0 86 49 138.5t128 52.5h75q35 0 69.5 -19.5t53.5 -50.5v62h52v-504l70 7v-47zM389 107
q37 39 47 100v138q-9 50 -43 82t-80 32h-73q-56 0 -90 -39.5t-34 -103.5v-112q0 -60 31.5 -98t81.5 -38h73q50 0 87 39zM436 -57l-202 -21q-86 -9 -86 -61v-20q0 -25 20.5 -40t53.5 -15h96q54 0 86 35.5t32 96.5v25z" />
    <glyph glyph-name="zero" unicode="0" horiz-adv-x="639" 
d="M165.5 19q-44.5 27 -69 75.5t-24.5 112.5v286q0 64 24.5 112.5t69 75.5t101.5 27h106q58 0 102 -27t68 -75.5t24 -112.5v-286q0 -64 -24 -112.5t-68 -75.5t-102 -27h-106q-57 0 -101.5 27zM371 42q64 0 102.5 45.5t38.5 119.5v286q0 75 -38.5 120.5t-102.5 45.5h-102
q-64 0 -103 -45.5t-39 -120.5v-286q0 -74 39 -119.5t103 -45.5h102z" />
    <glyph glyph-name="one" unicode="1" horiz-adv-x="350" 
d="M203 642l-161 -82v53l164 87h52v-700h-55v642z" />
    <glyph glyph-name="two" unicode="2" horiz-adv-x="549" 
d="M59 47q0 61 18 101t62 75l247 200q56 45 56 102v32q0 46 -31.5 74t-83.5 28h-93q-56 0 -90.5 -38.5t-34.5 -102.5h-55q0 86 49.5 138t129.5 52h94q77 0 123.5 -41.5t46.5 -109.5v-32q0 -79 -76 -140l-239 -191q-39 -31 -53.5 -62t-14.5 -82h393v-50h-448v47z" />
    <glyph glyph-name="three" unicode="3" horiz-adv-x="583" 
d="M499.5 302q27.5 -40 27.5 -91v-40q0 -80 -52.5 -129.5t-137.5 -49.5h-97q-85 0 -136.5 53.5t-51.5 141.5h54q0 -65 37 -105t97 -40h97q61 0 98 35.5t37 93.5v40q0 59 -37 91.5t-101 32.5h-99v48h99q58 0 91.5 32t33.5 88v40q0 52 -33 84t-87 32h-97q-59 0 -94.5 -40
t-35.5 -105h-55q0 88 51 141t134 53h97q79 0 127 -45t48 -120v-40q0 -50 -23.5 -87t-65.5 -56q47 -18 74.5 -58z" />
    <glyph glyph-name="four" unicode="4" horiz-adv-x="573" 
d="M392 149h-318q-42 0 -42 33v18l362 500h53v-502h88v-49h-88v-149h-55v149zM394 198v417h-1l-301 -417h302z" />
    <glyph glyph-name="five" unicode="5" horiz-adv-x="591" 
d="M111.5 40.5q-49.5 48.5 -49.5 127.5h54q0 -57 35 -91.5t91 -34.5h96q62 0 100 37.5t38 99.5v64q0 58 -38.5 93t-102.5 35h-247v329h417v-49h-362v-230h192q88 0 142 -49t54 -129v-64q0 -84 -53 -135.5t-140 -51.5h-96q-81 0 -130.5 48.5z" />
    <glyph glyph-name="six" unicode="6" horiz-adv-x="599" 
d="M169.5 19.5q-46.5 27.5 -72 77.5t-25.5 115v268q0 107 54 167.5t147 60.5h86q77 0 124.5 -49.5t47.5 -131.5h-53q0 59 -33 95.5t-86 36.5h-86q-68 0 -107 -47.5t-39 -131.5v-145q28 50 74.5 77.5t100.5 27.5h64q84 0 134.5 -53.5t50.5 -140.5v-44q0 -62 -25 -110t-71 -74
t-106 -26h-73q-60 0 -106.5 27.5zM349 42q66 0 106.5 44t40.5 116v45q0 65 -36 104.5t-94 39.5h-66q-62 0 -108.5 -43.5t-61.5 -108.5v-42q0 -70 40.5 -112.5t106.5 -42.5h72z" />
    <glyph glyph-name="seven" unicode="7" horiz-adv-x="485" 
d="M163 22q0 50 8.5 97.5t24.5 81.5l200 450h-370v49h433v-36l-205 -463q-17 -39 -26.5 -86.5t-9.5 -92.5v-22h-55v22z" />
    <glyph glyph-name="eight" unicode="8" horiz-adv-x="613" 
d="M107.5 40.5q-55.5 48.5 -55.5 127.5v32q0 51 27.5 92.5t82.5 66.5v1q-43 23 -65 60t-22 83v39q0 75 52 120.5t137 45.5h86q85 0 136.5 -45.5t51.5 -120.5v-39q0 -46 -21.5 -83t-64.5 -60v-1q54 -23 81.5 -65t27.5 -94v-32q0 -79 -55 -127.5t-146 -48.5h-106
q-91 0 -146.5 48.5zM352 382q58 0 94.5 33.5t36.5 87.5v40q0 52 -36.5 84t-96.5 32h-86q-60 0 -97 -32t-37 -84v-40q0 -54 36.5 -87.5t95.5 -33.5h90zM360 42q66 0 106 34.5t40 91.5v32q0 61 -42.5 97.5t-111.5 36.5h-90q-70 0 -112.5 -36.5t-42.5 -97.5v-32
q0 -57 40.5 -91.5t106.5 -34.5h106z" />
    <glyph glyph-name="nine" unicode="9" horiz-adv-x="603" 
d="M122.5 40.5q-49.5 48.5 -49.5 128.5h53q0 -58 35 -92.5t93 -34.5h86q63 0 99.5 43.5t36.5 121.5v140q-30 -42 -73 -64.5t-95 -22.5h-67q-85 0 -136 54t-51 144v45q0 93 57 149t152 56h70q89 0 143.5 -55t54.5 -145v-301q0 -101 -51 -158t-140 -57h-86q-82 0 -131.5 48.5z
M310 310q59 0 105.5 36t60.5 88v78q0 66 -39.5 106.5t-103.5 40.5h-70q-69 0 -111.5 -43t-42.5 -113v-45q0 -67 35.5 -107.5t95.5 -40.5h70z" />
    <glyph glyph-name="uni2080" unicode="&#x2080;" horiz-adv-x="403" 
d="M87.5 -119q-31.5 34 -31.5 91v171q0 57 31.5 91t83.5 34h62q51 0 82.5 -34t31.5 -91v-171q0 -57 -31.5 -91t-82.5 -34h-62q-52 0 -83.5 34zM232 -110q30 0 48.5 22.5t18.5 59.5v171q0 37 -18.5 59.5t-48.5 22.5h-60q-30 0 -48.5 -22.5t-18.5 -59.5v-171q0 -37 18.5 -59.5
t48.5 -22.5h60z" />
    <glyph glyph-name="uni2081" unicode="&#x2081;" horiz-adv-x="248" 
d="M132 214l-96 -50v47l98 52h46v-411h-48v362z" />
    <glyph glyph-name="uni2082" unicode="&#x2082;" horiz-adv-x="375" 
d="M57 -112q0 35 9.5 59t33.5 43l137 112q29 24 29 57v20q0 21 -14 33.5t-37 12.5h-55q-26 0 -42 -18.5t-16 -49.5h-48q0 50 28.5 80.5t76.5 30.5h56q45 0 72.5 -24.5t27.5 -64.5v-20q0 -52 -40 -83l-132 -107q-22 -17 -30 -34t-8 -41h216v-42h-264v36z" />
    <glyph glyph-name="uni2083" unicode="&#x2083;" horiz-adv-x="388" 
d="M318 29.5q14 -23.5 14 -54.5v-23q0 -47 -31 -76t-81 -29h-57q-50 0 -80.5 31.5t-30.5 82.5h47q0 -32 17.5 -51.5t46.5 -19.5h57q28 0 45.5 17t17.5 45v23q0 30 -18 48.5t-47 18.5h-58v42h58q26 0 42 17.5t16 46.5v23q0 25 -15 39.5t-40 14.5h-57q-28 0 -45 -19.5
t-17 -51.5h-47q0 51 30 82.5t79 31.5h57q46 0 74.5 -26.5t28.5 -70.5v-23q0 -28 -12 -50t-35 -34q27 -11 41 -34.5z" />
    <glyph glyph-name="uni2084" unicode="&#x2084;" horiz-adv-x="371" 
d="M233 -65h-177q-24 0 -24 21v25l203 282h46v-285h48v-43h-48v-83h-48v83zM235 -23v218h-1l-156 -218h157z" />
    <glyph glyph-name="uni2085" unicode="&#x2085;" horiz-adv-x="380" 
d="M81 -125q-29 28 -29 75h47q0 -27 16 -44t43 -17h56q30 0 48 18.5t18 48.5v43q0 28 -18.5 45t-48.5 17h-146v202h246v-42h-198v-118h98q52 0 83.5 -28.5t31.5 -75.5v-43q0 -49 -31.5 -79t-82.5 -30h-56q-48 0 -77 28z" />
    <glyph glyph-name="uni2086" unicode="&#x2086;" horiz-adv-x="384" 
d="M89 -117.5q-33 35.5 -33 93.5v159q0 60 32.5 96.5t85.5 36.5h51q46 0 73.5 -29t27.5 -77h-47q0 28 -15 45.5t-39 17.5h-51q-31 0 -50.5 -24.5t-19.5 -65.5v-74q16 24 38.5 37t48.5 13h38q49 0 79 -31.5t30 -83.5v-26q0 -55 -33 -89t-86 -34h-43q-54 0 -87 35.5zM219 -110
q32 0 51.5 22t19.5 58v27q0 32 -16.5 51.5t-44.5 19.5h-39q-30 0 -53.5 -21t-31.5 -55v-24q0 -35 20 -56.5t52 -21.5h42z" />
    <glyph glyph-name="uni2087" unicode="&#x2087;" horiz-adv-x="329" 
d="M112 -135q0 62 19 105l108 251h-202v42h255v-34l-111 -259q-21 -48 -21 -105v-13h-48v13z" />
    <glyph glyph-name="uni2088" unicode="&#x2088;" horiz-adv-x="404" 
d="M85 -124.5q-33 28.5 -33 74.5v19q0 31 16 56t46 38v1q-24 13 -36 35t-12 48v23q0 44 30.5 71t80.5 27h50q50 0 80.5 -27t30.5 -71v-23q0 -26 -12 -47.5t-36 -35.5v-1q31 -12 46.5 -37t15.5 -57v-19q0 -46 -33 -74.5t-86 -28.5h-62q-53 0 -86 28.5zM227 83q28 0 45.5 17.5
t17.5 46.5v24q0 25 -17.5 40t-45.5 15h-50q-28 0 -45.5 -15t-17.5 -40v-24q0 -29 17.5 -46.5t45.5 -17.5h50zM233 -111q31 0 51 17t20 44v19q0 33 -21 53t-56 20h-50q-35 0 -56 -20t-21 -53v-19q0 -27 19.5 -44t51.5 -17h62z" />
    <glyph glyph-name="uni2089" unicode="&#x2089;" horiz-adv-x="385" 
d="M88.5 -124.5q-29.5 28.5 -29.5 75.5h47q0 -28 16.5 -44.5t43.5 -16.5h50q29 0 46.5 23t17.5 60v72q-14 -18 -36.5 -29t-45.5 -11h-40q-49 0 -79.5 32t-30.5 85v26q0 54 34 87t89 33h41q53 0 85 -32.5t32 -86.5v-176q0 -56 -31 -91t-82 -35h-50q-48 0 -77.5 28.5zM199 48
q29 0 51.5 16t29.5 43v47q0 32 -18.5 51.5t-49.5 19.5h-41q-33 0 -53.5 -21.5t-20.5 -55.5v-26q0 -33 16.5 -53.5t44.5 -20.5h41z" />
    <glyph glyph-name="uni2070" unicode="&#x2070;" horiz-adv-x="403" 
d="M87.5 318q-31.5 34 -31.5 91v171q0 57 31.5 91t83.5 34h62q51 0 82.5 -34t31.5 -91v-171q0 -57 -31.5 -91t-82.5 -34h-62q-52 0 -83.5 34zM232 327q30 0 48.5 22.5t18.5 59.5v171q0 37 -18.5 59.5t-48.5 22.5h-60q-30 0 -48.5 -22.5t-18.5 -59.5v-171q0 -37 18.5 -59.5
t48.5 -22.5h60z" />
    <glyph glyph-name="uni00B9" unicode="&#xb9;" horiz-adv-x="248" 
d="M132 651l-96 -50v47l98 52h46v-411h-48v362z" />
    <glyph glyph-name="uni00B2" unicode="&#xb2;" horiz-adv-x="375" 
d="M57 325q0 35 9.5 59t33.5 43l137 112q29 24 29 57v20q0 21 -14 33.5t-37 12.5h-55q-26 0 -42 -18.5t-16 -49.5h-48q0 50 28.5 80.5t76.5 30.5h56q45 0 72.5 -24.5t27.5 -64.5v-20q0 -52 -40 -83l-132 -107q-22 -17 -30 -34t-8 -41h216v-42h-264v36z" />
    <glyph glyph-name="uni00B3" unicode="&#xb3;" horiz-adv-x="388" 
d="M318 466.5q14 -23.5 14 -54.5v-23q0 -47 -31 -76t-81 -29h-57q-50 0 -80.5 31.5t-30.5 82.5h47q0 -32 17.5 -51.5t46.5 -19.5h57q28 0 45.5 17t17.5 45v23q0 30 -18 48.5t-47 18.5h-58v42h58q26 0 42 17.5t16 46.5v23q0 25 -15 39.5t-40 14.5h-57q-28 0 -45 -19.5
t-17 -51.5h-47q0 51 30 82.5t79 31.5h57q46 0 74.5 -26.5t28.5 -70.5v-23q0 -28 -12 -50t-35 -34q27 -11 41 -34.5z" />
    <glyph glyph-name="uni2074" unicode="&#x2074;" horiz-adv-x="371" 
d="M233 372h-177q-24 0 -24 21v25l203 282h46v-285h48v-43h-48v-83h-48v83zM235 414v218h-1l-156 -218h157z" />
    <glyph glyph-name="uni2075" unicode="&#x2075;" horiz-adv-x="380" 
d="M81 312q-29 28 -29 75h47q0 -27 16 -44t43 -17h56q30 0 48 18.5t18 48.5v43q0 28 -18.5 45t-48.5 17h-146v202h246v-42h-198v-118h98q52 0 83.5 -28.5t31.5 -75.5v-43q0 -49 -31.5 -79t-82.5 -30h-56q-48 0 -77 28z" />
    <glyph glyph-name="uni2076" unicode="&#x2076;" horiz-adv-x="384" 
d="M89 319.5q-33 35.5 -33 93.5v159q0 60 32.5 96.5t85.5 36.5h51q46 0 73.5 -29t27.5 -77h-47q0 28 -15 45.5t-39 17.5h-51q-31 0 -50.5 -24.5t-19.5 -65.5v-74q16 24 38.5 37t48.5 13h38q49 0 79 -31.5t30 -83.5v-26q0 -55 -33 -89t-86 -34h-43q-54 0 -87 35.5zM219 327
q32 0 51.5 22t19.5 58v27q0 32 -16.5 51.5t-44.5 19.5h-39q-30 0 -53.5 -21t-31.5 -55v-24q0 -35 20 -56.5t52 -21.5h42z" />
    <glyph glyph-name="uni2077" unicode="&#x2077;" horiz-adv-x="329" 
d="M112 302q0 62 19 105l108 251h-202v42h255v-34l-111 -259q-21 -48 -21 -105v-13h-48v13z" />
    <glyph glyph-name="uni2078" unicode="&#x2078;" horiz-adv-x="404" 
d="M85 312.5q-33 28.5 -33 74.5v19q0 31 16 56t46 38v1q-24 13 -36 35t-12 48v23q0 44 30.5 71t80.5 27h50q50 0 80.5 -27t30.5 -71v-23q0 -26 -12 -47.5t-36 -35.5v-1q31 -12 46.5 -37t15.5 -57v-19q0 -46 -33 -74.5t-86 -28.5h-62q-53 0 -86 28.5zM227 520q28 0 45.5 17.5
t17.5 46.5v24q0 25 -17.5 40t-45.5 15h-50q-28 0 -45.5 -15t-17.5 -40v-24q0 -29 17.5 -46.5t45.5 -17.5h50zM233 326q31 0 51 17t20 44v19q0 33 -21 53t-56 20h-50q-35 0 -56 -20t-21 -53v-19q0 -27 19.5 -44t51.5 -17h62z" />
    <glyph glyph-name="uni2079" unicode="&#x2079;" horiz-adv-x="385" 
d="M88.5 312.5q-29.5 28.5 -29.5 75.5h47q0 -28 16.5 -44.5t43.5 -16.5h50q29 0 46.5 23t17.5 60v72q-14 -18 -36.5 -29t-45.5 -11h-40q-49 0 -79.5 32t-30.5 85v26q0 54 34 87t89 33h41q53 0 85 -32.5t32 -86.5v-176q0 -56 -31 -91t-82 -35h-50q-48 0 -77.5 28.5zM199 485
q29 0 51.5 16t29.5 43v47q0 32 -18.5 51.5t-49.5 19.5h-41q-33 0 -53.5 -21.5t-20.5 -55.5v-26q0 -33 16.5 -53.5t44.5 -20.5h41z" />
    <glyph glyph-name="fraction" unicode="&#x2044;" horiz-adv-x="164" 
d="M247 722h52l-382 -747h-52z" />
    <glyph glyph-name="onehalf" unicode="&#xbd;" horiz-adv-x="818" 
d="M158 651l-96 -50v47l98 52h46v-411h-48v362zM492 36q0 35 9.5 59t33.5 43l137 112q29 24 29 57v20q0 21 -14 33.5t-37 12.5h-55q-26 0 -42 -18.5t-16 -49.5h-48q0 50 28.5 80.5t76.5 30.5h56q45 0 72.5 -24.5t27.5 -64.5v-20q0 -52 -40 -83l-132 -107q-22 -17 -30 -34
t-8 -41h216v-42h-264v36zM527 722h52l-382 -747h-52z" />
    <glyph glyph-name="uni2153" unicode="&#x2153;" horiz-adv-x="829" 
d="M158 651l-96 -50v47l98 52h46v-411h-48v362zM527 722h52l-382 -747h-52zM754 176.5q14 -23.5 14 -54.5v-23q0 -47 -31 -76t-81 -29h-57q-50 0 -80.5 31.5t-30.5 82.5h47q0 -32 17.5 -51.5t46.5 -19.5h57q28 0 45.5 17t17.5 45v23q0 30 -18 48.5t-47 18.5h-58v42h58
q26 0 42 17.5t16 46.5v23q0 25 -15 39.5t-40 14.5h-57q-28 0 -45 -19.5t-17 -51.5h-47q0 51 30 82.5t79 31.5h57q46 0 74.5 -26.5t28.5 -70.5v-23q0 -28 -12 -50t-35 -34q27 -11 41 -34.5z" />
    <glyph glyph-name="uni2154" unicode="&#x2154;" horiz-adv-x="909" 
d="M65 325q0 35 9.5 59t33.5 43l137 112q29 24 29 57v20q0 21 -14 33.5t-37 12.5h-55q-26 0 -42 -18.5t-16 -49.5h-48q0 50 28.5 80.5t76.5 30.5h56q45 0 72.5 -24.5t27.5 -64.5v-20q0 -52 -40 -83l-132 -107q-22 -17 -30 -34t-8 -41h216v-42h-264v36zM834 176.5
q14 -23.5 14 -54.5v-23q0 -47 -31 -76t-81 -29h-57q-50 0 -80.5 31.5t-30.5 82.5h47q0 -32 17.5 -51.5t46.5 -19.5h57q28 0 45.5 17t17.5 45v23q0 30 -18 48.5t-47 18.5h-58v42h58q26 0 42 17.5t16 46.5v23q0 25 -15 39.5t-40 14.5h-57q-28 0 -45 -19.5t-17 -51.5h-47
q0 51 30 82.5t79 31.5h57q46 0 74.5 -26.5t28.5 -70.5v-23q0 -28 -12 -50t-35 -34q27 -11 41 -34.5zM628 722h52l-382 -747h-52z" />
    <glyph glyph-name="onequarter" unicode="&#xbc;" horiz-adv-x="766" 
d="M158 651l-96 -50v47l98 52h46v-411h-48v362zM527 722h52l-382 -747h-52zM608 83h-177q-24 0 -24 21v25l203 282h46v-285h48v-43h-48v-83h-48v83zM610 125v218h-1l-156 -218h157z" />
    <glyph glyph-name="threequarters" unicode="&#xbe;" horiz-adv-x="842" 
d="M328 466.5q14 -23.5 14 -54.5v-23q0 -47 -31 -76t-81 -29h-57q-50 0 -80.5 31.5t-30.5 82.5h47q0 -32 17.5 -51.5t46.5 -19.5h57q28 0 45.5 17t17.5 45v23q0 30 -18 48.5t-47 18.5h-58v42h58q26 0 42 17.5t16 46.5v23q0 25 -15 39.5t-40 14.5h-57q-28 0 -45 -19.5
t-17 -51.5h-47q0 51 30 82.5t79 31.5h57q46 0 74.5 -26.5t28.5 -70.5v-23q0 -28 -12 -50t-35 -34q27 -11 41 -34.5zM684 83h-177q-24 0 -24 21v25l203 282h46v-285h48v-43h-48v-83h-48v83zM686 125v218h-1l-156 -218h157zM622 722h52l-382 -747h-52z" />
    </font>
</defs>
</svg>
